<svg id="Layer_1" data-name="Layer 1" xmlns="http://www.w3.org/2000/svg" viewBox="0 0 269.66 171.03"><defs><style>.cls-1{fill:#fff;}.cls-2{fill:#dd1e34;}</style></defs><title>angular-overlay</title><polygon class="cls-1" points="168.39 36.45 164.05 28.93 155.35 28.93 155.35 43.98 164.05 43.98 168.39 36.45"/><polygon class="cls-1" points="126.65 28.93 108.42 72.94 124.11 72.94 134.49 47.87 144.88 72.94 160.57 72.94 142.34 28.93 126.65 28.93"/><path class="cls-2" d="M179.19,20.72,134.49,4.78,89.79,20.72l6.82,59.11,37.88,21,37.89-21ZM144.88,72.94,134.49,47.87,124.11,72.94H108.42l18.23-44h15.69l18.23,44Zm19.17-29h-8.7v-15h8.7l4.34,7.52Z"/><path class="cls-2" d="M23.89,128.91a8,8,0,0,0-6.45-3c-5.68,0-10.17,4.44-10.17,12.08,0,7.93,4.58,12.14,10.17,12.14a8.34,8.34,0,0,0,6.5-3v2.43h8.6V126.47H23.89Zm.05,12a5,5,0,0,1-3.58,1.58,4.23,4.23,0,0,1-4.3-4.54,4.15,4.15,0,0,1,4.3-4.44,5,5,0,0,1,3.58,1.53Z"/><path class="cls-2" d="M54.33,125.9a10.16,10.16,0,0,0-7.93,3.2v-2.63H37.8v23.07h8.6V135.31a4.52,4.52,0,0,1,3.67-1.82c2.06,0,3.35.91,3.35,3.3v12.75H62V133.16C62,129.14,59.68,125.9,54.33,125.9Z"/><path class="cls-2" d="M82.32,128.91a8.1,8.1,0,0,0-6.49-3c-5.69,0-10.13,3.82-10.13,11.51,0,7.88,4.58,11.51,10.13,11.51a8.22,8.22,0,0,0,6.49-3.1v1.24c0,4.06-3.34,4.82-5.35,4.82a9.75,9.75,0,0,1-6.88-2.53l-3.63,6.12A16.36,16.36,0,0,0,77,158.91c5.73,0,14-1.87,14-11.85V126.47h-8.6Zm0,10.94a5.13,5.13,0,0,1-3.53,1.48c-2.34,0-4.3-1.1-4.3-3.92s2-3.92,4.3-3.92A5.13,5.13,0,0,1,82.32,135Z"/><path class="cls-2" d="M111.75,140.71a4.52,4.52,0,0,1-3.63,1.81c-2.1,0-3.34-.91-3.34-3.25v-12.8h-8.6V143c0,4,2.29,7.17,7.64,7.17a10.36,10.36,0,0,0,7.93-3.16v2.58h8.6V126.47h-8.6Z"/><rect class="cls-2" x="125.61" y="117.68" width="8.6" height="31.86"/><path class="cls-2" d="M154.51,128.91a8,8,0,0,0-6.45-3c-5.68,0-10.17,4.44-10.17,12.08,0,7.93,4.58,12.14,10.17,12.14a8.34,8.34,0,0,0,6.5-3v2.43h8.6V126.47h-8.65Zm.05,12a5,5,0,0,1-3.59,1.58,4.22,4.22,0,0,1-4.29-4.54,4.14,4.14,0,0,1,4.29-4.44,5,5,0,0,1,3.59,1.53Z"/><path class="cls-2" d="M177,129v-2.53h-8.6v23.07H177V135.4c1-1.14,3.3-1.62,5.11-1.62a6.53,6.53,0,0,1,2,.24V125.8A10.36,10.36,0,0,0,177,129Z"/><path class="cls-2" d="M205.44,130a9.62,9.62,0,0,0-7.79-4.06c-6,0-10.27,4.73-10.27,12.13s4.25,12.09,10.27,12.09a9.73,9.73,0,0,0,7.79-4v3.44H209V117.68h-3.58Zm0,13.28a8.55,8.55,0,0,1-6.88,3.68c-4.68,0-7.45-3.78-7.45-8.89s2.77-8.93,7.45-8.93a8.58,8.58,0,0,1,6.88,3.72Z"/><path class="cls-2" d="M232.43,130a9.62,9.62,0,0,0-7.79-4.06c-6,0-10.27,4.73-10.27,12.13s4.26,12.09,10.27,12.09a9.73,9.73,0,0,0,7.79-4v3.44H236V126.47h-3.58Zm0,13.28a8.55,8.55,0,0,1-6.88,3.68c-4.68,0-7.45-3.78-7.45-8.89s2.77-8.93,7.45-8.93a8.58,8.58,0,0,1,6.88,3.72Z"/><path class="cls-2" d="M258.52,126.47l-7.69,18.92-7.65-18.92h-3.91l9.64,23.31-1.52,3.49c-.82,1.91-1.87,2.44-3.44,2.44a5.43,5.43,0,0,1-2-.39l-.53,3.25a11,11,0,0,0,2.58.34,6.87,6.87,0,0,0,6.79-4.69l11.56-27.75Z"/></svg>