<?xml version="1.0" standalone="no"?>
<!DOCTYPE svg PUBLIC "-//W3C//DTD SVG 20010904//EN"
 "http://www.w3.org/TR/2001/REC-SVG-20010904/DTD/svg10.dtd">
<svg version="1.0" xmlns="http://www.w3.org/2000/svg"
 width="369.000000pt" height="369.000000pt" viewBox="0 0 369.000000 369.000000"
 preserveAspectRatio="xMidYMid meet">
<metadata>
Created by potrace 1.11, written by Peter Selinger 2001-2013
</metadata>
<g transform="translate(0.000000,369.000000) scale(0.100000,-0.100000)"
fill="#000000" stroke="none">
<path d="M1060 3259 c-426 -153 -779 -280 -784 -281 -9 -4 221 -2045 235
-2083 4 -14 218 -137 660 -382 360 -199 661 -365 670 -368 10 -4 263 131 680
362 365 202 666 370 669 374 8 11 245 2088 239 2094 -8 8 -1572 565 -1584 564
-5 -1 -359 -127 -785 -280z m1390 -1354 c176 -424 320 -773 320 -777 0 -5
-123 -8 -274 -8 l-273 0 -124 298 c-269 648 -246 599 -258 572 -6 -14 -90
-214 -185 -445 l-174 -420 -277 -3 c-220 -2 -276 0 -272 10 2 7 147 358 322
781 l318 767 279 -2 279 -3 319 -770z m525 644 l76 -131 -78 -134 -77 -134
-153 0 -153 0 0 265 0 265 154 0 154 0 77 -131z"/>
</g>
</svg>
