<?xml version="1.0" encoding="utf-8"?>
<!-- Generator: Adobe Illustrator 25.0.1, SVG Export Plug-In . SVG Version: 6.00 Build 0)  -->
<svg version="1.1" id="Layer_1" xmlns="http://www.w3.org/2000/svg" xmlns:xlink="http://www.w3.org/1999/xlink" x="0px" y="0px"
	 viewBox="0 0 200 85" style="enable-background:new 0 0 200 85;" xml:space="preserve">
<style type="text/css">
	.st0{fill-rule:evenodd;clip-rule:evenodd;fill:#A101FF;}
	.st1{fill-rule:evenodd;clip-rule:evenodd;}
</style>
<desc>Created with Sketch.</desc>
<g id="Page-1">
	<g id="accenture">
		<g id="Group" transform="translate(18.000000, 21.000000)">
			<polygon id="Fill-2" class="st0" points="96,12 105.4,8.5 96,4.9 96,0 112.1,6.5 112.1,10.5 96,17 			"/>
			<path id="Fill-3" class="st1" d="M151,30.9h7.1c-0.1-2.8-1.4-4-3.5-4C153,27,151.4,27.9,151,30.9L151,30.9z M154.8,42.9
				c-5.4,0-9.1-3.2-9.1-9.5V33c0-6.3,3.9-9.8,9-9.8c4.7,0,8.6,2.6,8.6,8.9v2.3h-12.2c0.2,3.4,1.7,4.7,3.9,4.7c2,0,3.1-1.1,3.5-2.4
				h4.9C162.6,40.2,159.7,42.9,154.8,42.9L154.8,42.9z M133.1,23.7h5.3v3.5c1.1-2.5,2.9-3.7,5.7-3.7v5.2c-3.6,0-5.7,1.1-5.7,4.2v9.7
				h-5.3V23.7z M129.2,42.5H124v-2.8c-0.9,1.8-2.7,3.2-5.5,3.2c-3.4,0-5.9-2.1-5.9-6.5V23.7h5.3v12c0,2.2,0.9,3.2,2.7,3.2
				c1.8,0,3.3-1.2,3.3-3.5V23.7h5.3V42.5z M105.8,18v5.7h3.6v3.9h-3.6v8.9c0,1.4,0.6,2.1,1.9,2.1c0.8,0,1.3-0.1,1.8-0.3v4.1
				c-0.6,0.2-1.7,0.4-3,0.4c-4.1,0-6-1.9-6-5.7v-9.5h-2.2v-3.9h2.2v-3.5L105.8,18z M79.4,23.7h5.3v2.8c0.9-1.8,2.8-3.2,5.7-3.2
				c3.4,0,5.7,2.1,5.7,6.6v12.6h-5.3V30.7c0-2.2-0.9-3.2-2.8-3.2c-1.8,0-3.3,1.1-3.3,3.5v11.5h-5.3V23.7z M64,30.9H71
				c-0.1-2.8-1.4-4-3.5-4C65.9,27,64.4,27.9,64,30.9L64,30.9z M67.7,42.9c-5.4,0-9.1-3.2-9.1-9.5V33c0-6.3,3.9-9.8,9-9.8
				c4.7,0,8.6,2.6,8.6,8.9v2.3H63.9c0.2,3.4,1.7,4.7,3.9,4.7c2,0,3.1-1.1,3.5-2.4h4.9C75.6,40.2,72.6,42.9,67.7,42.9L67.7,42.9z
				 M48,42.9c-5.2,0-9-3.2-9-9.6V33c0-6.4,4-9.8,9-9.8c4.3,0,7.8,2.2,8.2,7.1h-5c-0.3-1.8-1.3-3-3.1-3c-2.2,0-3.8,1.8-3.8,5.5v0.6
				c0,3.8,1.4,5.5,3.8,5.5c1.8,0,3.1-1.3,3.4-3.4h4.8C56,39.8,53.1,42.9,48,42.9L48,42.9z M28.4,42.9c-5.2,0-9-3.2-9-9.6V33
				c0-6.4,4-9.8,9-9.8c4.3,0,7.8,2.2,8.2,7.1h-5c-0.3-1.8-1.3-3-3.1-3c-2.2,0-3.8,1.8-3.8,5.5v0.6c0,3.8,1.4,5.5,3.8,5.5
				c1.8,0,3.1-1.3,3.4-3.4h4.8C36.4,39.8,33.5,42.9,28.4,42.9L28.4,42.9z M11.2,36.2v-1.8H9.1c-2.6,0-3.9,0.7-3.9,2.4V37
				c0,1.3,0.8,2.2,2.6,2.2C9.6,39.2,11.2,38.2,11.2,36.2L11.2,36.2z M6.2,42.9c-3.4,0-6.2-1.7-6.2-5.5v-0.2C0,32.5,4,31,8.9,31h2.3
				v-0.9c0-1.9-0.8-3-2.8-3c-1.8,0-2.7,1-2.8,2.4h-5c0.4-4.2,3.7-6.2,8.1-6.2c4.5,0,7.8,1.9,7.8,6.6v12.6h-5.1v-2.2
				C10.4,41.7,8.7,42.9,6.2,42.9L6.2,42.9z"/>
		</g>
	</g>
</g>
</svg>
