<?xml version="1.0" encoding="utf-8"?>
<!-- Generator: Adobe Illustrator 16.0.3, SVG Export Plug-In . SVG Version: 6.00 Build 0)  -->
<!DOCTYPE svg PUBLIC "-//W3C//DTD SVG 1.1//EN" "http://www.w3.org/Graphics/SVG/1.1/DTD/svg11.dtd">
<svg version="1.1" xmlns="http://www.w3.org/2000/svg" xmlns:xlink="http://www.w3.org/1999/xlink" x="0px" y="0px" width="623.6px"
	 height="255.1px" viewBox="0 0 623.6 255.1" style="enable-background:new 0 0 623.6 255.1;" xml:space="preserve">
<style type="text/css">
<![CDATA[
	.st0{fill:#FFFFFF;}
	.st1{fill:none;stroke:#FFFFFF;stroke-width:5.4717;stroke-linejoin:round;}
	.st2{fill:#CB2026;}
	.st3{fill:#CB2026;stroke:#FFFFFF;stroke-width:0.9119;stroke-miterlimit:10;}
	.st4{fill:none;stroke:#FFFFFF;stroke-width:0.456;stroke-miterlimit:10;}
]]>
</style>
<g id="BG">
	<rect class="st0" width="623.6" height="255.1"/>
</g>
<g id="Logo">
	<g>
		<path class="st2" d="M257.4,32.5c-29.2,10.4-53.1,18.9-53.1,19c-0.1,0.1,16.2,140.5,16.3,140.6c0,0,20.3,11.3,44.9,24.9
			c40.6,22.5,44.9,24.8,45.3,24.6c0.3-0.1,20.8-11.5,45.6-25.2c31.6-17.5,45.2-25.1,45.3-25.4c0.2-0.6,17.7-140.1,17.6-140.2
			c-0.1-0.1-23.6-8.1-52.4-17.9c-28.8-9.8-53.2-18.1-54.4-18.6l-2.1-0.7L257.4,32.5z"/>
		<path class="st3" d="M263,41.9c-26.3,9.4-47.8,17-47.8,17.1c-0.1,0.1,14.6,126.4,14.6,126.5c0,0,18.2,10.1,40.4,22.4
			c36.5,20.2,40.4,22.4,40.8,22.1c0.3-0.1,18.7-10.3,41-22.7c28.5-15.7,40.6-22.6,40.7-22.8c0.2-0.6,15.9-126,15.8-126.1
			c-0.1-0.1-21.3-7.3-47.1-16.1c-25.9-8.8-47.9-16.3-48.9-16.7l-1.9-0.7L263,41.9z"/>
		<rect x="280.4" y="49.9" class="st4" width="60.9" height="60.8"/>
		<rect x="280.4" y="135.9" class="st4" width="60.9" height="60.8"/>
		<rect x="237.4" y="92.9" class="st4" width="60.9" height="60.9"/>
		<rect x="323.4" y="92.9" class="st4" width="60.9" height="60.9"/>
		
			<rect x="250" y="62.5" transform="matrix(-0.7071 0.7071 -0.7071 -0.7071 544.3547 -39.6716)" class="st4" width="60.9" height="60.8"/>
		
			<rect x="310.8" y="123.3" transform="matrix(-0.7071 0.7071 -0.7071 -0.7071 691.2554 21.1762)" class="st4" width="60.8" height="60.9"/>
		
			<rect x="250" y="123.3" transform="matrix(-0.7071 0.7071 -0.7071 -0.7071 587.3773 64.2062)" class="st4" width="60.9" height="60.9"/>
		
			<rect x="310.8" y="62.5" transform="matrix(-0.7071 0.7071 -0.7071 -0.7071 648.2262 -82.6969)" class="st4" width="60.8" height="60.9"/>
		<path class="st1" d="M311,64.7c-0.1,0.1-0.3,0.5-0.4,0.7s-2.1,3.8-4.4,8c-2.3,4.1-4.4,8.1-4.8,8.7s-0.8,1.5-1,1.8
			c-1.2,2.1-9.1,16.5-11.6,21.1c-0.3,0.6-1.4,2.4-2.3,4.1c-0.9,1.7-2.4,4.4-3.3,6c-0.9,1.7-1.9,3.5-2.3,4.1c-0.9,1.6-2.7,5-3.5,6.4
			c-1.3,2.4-2,3.7-2.9,5.3c-0.5,0.9-1.3,2.3-1.7,3.1c-0.5,0.8-0.9,1.6-1,1.7c-0.1,0.1-0.6,1-1.1,1.9c-0.5,0.9-1.2,2.1-1.5,2.7
			c-0.3,0.5-1.3,2.3-2.2,4c-0.9,1.7-2.5,4.4-3.4,6.2c-1,1.8-2.1,3.8-2.5,4.5c-0.4,0.7-1.7,3-2.9,5.2l-2.1,3.9l9,0.1
			c5.8,0,9.1,0,9.3-0.2c0.4-0.5,0.7-1.1,1-1.7c0.4-0.8,0.9-1.8,1.2-2.2c0.3-0.4,0.7-1.3,1.1-1.9s2.4-4.3,4.5-8.2
			c2.1-3.8,3.9-7.1,4-7.3c0.1-0.2,0.3-0.5,0.4-0.8c0.1-0.2,0.7-1.3,1.3-2.4c0.6-1.1,1.3-2.3,1.5-2.7l0.5-0.8l21,0
			c11.6,0,21.1,0,21.2,0.1c0.1,0,0.8,1.1,2,3.4c0.5,0.8,1,1.8,1.2,2.3c0.2,0.4,0.9,1.7,1.6,2.9c0.7,1.2,2.5,4.5,4.1,7.4
			c3.1,5.6,3.8,7,5.5,10.1l1.1,2h18.4l-0.5-0.9c-0.3-0.5-1.7-3-3-5.5c-1.4-2.5-2.6-4.7-2.7-4.8c-0.1-0.1-0.6-1.1-1.1-2.1
			s-1.2-2.2-1.4-2.6c-0.2-0.4-0.7-1.3-1.1-2c-0.4-0.7-0.9-1.7-1.2-2.1c-0.3-0.5-3.3-5.9-6.7-12.1c-3.4-6.2-6.5-11.7-6.7-12.2
			c-0.3-0.5-0.9-1.6-1.3-2.4c-1-1.8-6.2-11.4-7-12.7c-0.3-0.5-1.3-2.4-2.3-4.1s-2-3.6-2.3-4.2c-2.7-4.9-4.7-8.6-4.7-8.6
			c-0.1-0.3-0.3-0.6-0.5-0.9c-0.3-0.4-0.9-1.6-1.5-2.5c-1.4-2.5-5.1-9.4-5.4-9.8c-0.1-0.2-0.6-1-1-1.8s-0.9-1.6-0.9-1.7
			c-0.1-0.1-0.5-0.8-0.9-1.5c-0.4-0.7-0.9-1.7-1.2-2.3c-0.3-0.5-0.8-1.4-1-1.9C311.4,64.7,311.2,64.5,311,64.7z M312.3,99.6
			c0.5,0.9,1.1,2.1,1.4,2.5c0.3,0.5,0.8,1.5,1.2,2.1c0.4,0.7,0.9,1.7,1.2,2.3c0.5,1,4.3,7.8,5.6,10.1c0.3,0.6,0.9,1.5,1.1,2
			c1.2,2.1,2,3.6,2,3.8s-5.5,0.2-13.6,0.2h-13.6l0.2-0.4c0.1-0.3,0.7-1.3,1.3-2.4c0.6-1.1,1.3-2.4,1.7-3c0.3-0.6,1.3-2.4,2.3-4.1
			c0.9-1.7,2-3.6,2.4-4.4c0.4-0.8,1.2-2.1,1.7-3c0.5-0.9,1.2-2.3,1.7-3.1c0.5-0.8,1-1.8,1.2-2.1c0.2-0.4,0.6-1,0.8-1.4
			c0.2-0.4,0.4-0.7,0.5-0.7S311.8,98.7,312.3,99.6L312.3,99.6z"/>
	</g>
</g>
</svg>
