<svg xmlns="http://www.w3.org/2000/svg" viewBox="0 0 623.62 255.12"><defs><style>.cls-1{fill:#fff;}.cls-2{fill:#dd0031;}.cls-3{fill:#c3002f;}</style></defs><g id="BG"><rect class="cls-1" width="623.62" height="255.12"/></g><g id="Logo"><g id="Layer_2" data-name="Layer 2"><g id="Layer_1-2" data-name="Layer 1-2"><g id="bg-2" data-name="bg"><polygon class="cls-2" points="311.79 14.18 206.25 51.84 222.34 191.39 311.79 240.94 401.28 191.39 417.37 51.84 311.79 14.18"/><polygon class="cls-3" points="311.79 14.18 311.79 39.33 311.79 39.23 311.79 154.08 311.79 154.08 311.79 240.94 311.79 240.94 401.28 191.39 417.37 51.84 311.79 14.18"/></g><g id="Layer_1-3" data-name="Layer 1-3"><g id="athens"><path class="cls-1" d="M329.4,226.42a3.76,3.76,0,0,1-1.82-1.72,13.67,13.67,0,0,1-1.27-3.6,9.43,9.43,0,0,1-.15-3.74,3,3,0,0,1,1.27-2.28,2,2,0,0,1,1.92,0,7.69,7.69,0,0,1,2.23,1.82c.05,0,.15.1.2,0s.05-.1,0-.2l-.3-1.22c-.16-.75-.31-1.46-.51-2.17a1.48,1.48,0,0,1-.05-.66.58.58,0,0,1,.25-.41,1.67,1.67,0,0,1,.91-.1,4,4,0,0,1,1.12.31,1.22,1.22,0,0,1,.7.6,9.56,9.56,0,0,1,.61,2.89,20.13,20.13,0,0,1,0,4.25,1.31,1.31,0,0,0,1.42,0,2.11,2.11,0,0,0,.86-.76,8,8,0,0,0,.46-.81,1.51,1.51,0,0,1,.2-.45l.05-.05a.55.55,0,0,1,.4,0,1.74,1.74,0,0,1,.66.71,3.44,3.44,0,0,1,.41,1.51,2.85,2.85,0,0,1-.41,1.42,2.22,2.22,0,0,1-.91.91,1.71,1.71,0,0,1-1.57-.05,5.33,5.33,0,0,1-1.82-1.52,11.12,11.12,0,0,1-1,3,4.33,4.33,0,0,1-1.77,1.92A2.07,2.07,0,0,1,329.4,226.42Zm2.28-3a18.15,18.15,0,0,0,.4-3.29v-1.67a4,4,0,0,0-1.47-1,1.32,1.32,0,0,0-1.16.1,2.06,2.06,0,0,0-.81,1.62,8.34,8.34,0,0,0,0,2.73,7.09,7.09,0,0,0,.71,2.43c.45.81.91,1,1.47.71C331.17,224.9,331.42,224.34,331.68,223.43Z"/><path class="cls-1" d="M345.29,217.15a10,10,0,0,1-3-2.32,19,19,0,0,1-2.64-3.6,14.43,14.43,0,0,1-1.56-4.35,10.36,10.36,0,0,1-.06-4.15,3.61,3.61,0,0,1,1.62-2.53,2.83,2.83,0,0,1,2.69.15,11.12,11.12,0,0,1,3.19,2.43,18.27,18.27,0,0,1,2.73,3.69,13.36,13.36,0,0,1,1.47,4.21,9.82,9.82,0,0,1,0,4,4,4,0,0,1-1.77,2.59A3.06,3.06,0,0,1,345.29,217.15Zm.36-11.23a.25.25,0,0,0,.15-.31,1.33,1.33,0,0,0-.25-.6,5.19,5.19,0,0,0-2-2.33,2.37,2.37,0,0,0-2.22.2A2.42,2.42,0,0,0,340,204.8a10.08,10.08,0,0,0,.51,3.7l.05.05c0,.1.15.1.25,0Zm2.12,6.32a7.59,7.59,0,0,0-.65-3.64l-.05-.1c-.05-.15-.16-.15-.31-.1l-5.16,2.83c-.2.1-.2.26-.1.46a7.26,7.26,0,0,0,2.33,2.83,2.31,2.31,0,0,0,2.43,0,2.51,2.51,0,0,0,1.51-2.28Z"/><path class="cls-1" d="M357.85,210.78a2.85,2.85,0,0,1-2.08-1.47,2.23,2.23,0,0,1-.2-1.22,9,9,0,0,1,.25-1.36.45.45,0,0,0,0-.36c-.05-.1-.15-.15-.35-.15a2.13,2.13,0,0,1-1.17-.15,2,2,0,0,1-.81-.86,3,3,0,0,1-.3-2.13,5.88,5.88,0,0,1,1.06-2.28,7.08,7.08,0,0,1,2.08-1.77,2.14,2.14,0,0,1,1.31-.25,1.24,1.24,0,0,1,.92.61,1.19,1.19,0,0,1,0,1,1.79,1.79,0,0,1-.66.91,6.78,6.78,0,0,0-2.28,1.87c-.46.66-.61,1.22-.35,1.67a.68.68,0,0,0,.4.36.63.63,0,0,0,.56-.1c.15-.05.35-.36.66-.86a10.74,10.74,0,0,1,.91-1.22,2.33,2.33,0,0,1,.86-.76,1,1,0,0,1,1.57.41,2,2,0,0,1,.15,1.52,1.89,1.89,0,0,1-.91,1.21l-.81.41c-.36.15-.71.3-1,.45a1.83,1.83,0,0,0-.75.76,1,1,0,0,0-.06.81.89.89,0,0,0,.81.35,2.86,2.86,0,0,0,1.32-.35,7.16,7.16,0,0,0,1.47-1.16,8.28,8.28,0,0,0,1.16-1.42l.46-.61c.25-.15.45-.1.61.2a2.87,2.87,0,0,1,.25,1.78,5.22,5.22,0,0,1-.76,2,3.9,3.9,0,0,1-1.52,1.47A3.81,3.81,0,0,1,357.85,210.78Z"/><path class="cls-1" d="M372.07,203.69a.7.7,0,0,1-.51-.41c0-.05-.1-.25-.25-.65a14.17,14.17,0,0,0-.91-1.83,9.84,9.84,0,0,0-1.72-2.48,2.65,2.65,0,0,0-1.52-.86,2.58,2.58,0,0,0-1.62.41,7.23,7.23,0,0,0-1.31,1l-.11,0q-.22.15-.45-.3a2.41,2.41,0,0,1-.25-1.42,3.7,3.7,0,0,1,.5-1.62,3.45,3.45,0,0,1,1.22-1.21,1.64,1.64,0,0,1,1.67-.11,4.08,4.08,0,0,1,1.46,1.37,31.48,31.48,0,0,1,1.78,2.94l.5.86c.1.15.2.25.26.2a.9.9,0,0,0,.3-.41,9.52,9.52,0,0,0,.71-2.93,5,5,0,0,0-.46-2.84,4.12,4.12,0,0,0-.76-1,3.19,3.19,0,0,1-.45-.45.34.34,0,0,1,0-.31.92.92,0,0,1,.4-.3,1.58,1.58,0,0,1,1.62.15,3.71,3.71,0,0,1,1.42,1.52,7.83,7.83,0,0,1,.86,4.56,15,15,0,0,1-1.11,4.7c0,.15-.16.36-.26.61s-.19.41-.3.61-.15.2-.25.25A2.31,2.31,0,0,1,372.07,203.69Z"/><path class="cls-1" d="M384.12,197.36a2.24,2.24,0,0,1-.81-.15,1.07,1.07,0,0,1-.51-.35c-.25-.46-.2-.76.2-1a3.13,3.13,0,0,0,1-.86,3.65,3.65,0,0,0,.5-1c.1-.3.1-.55,0-.66s-.1-.15-.2-.15a.61.61,0,0,0-.3.05l-1.17.66-1.16.66a1.66,1.66,0,0,1-1.67,0,4.56,4.56,0,0,1-1.72-2,5,5,0,0,1-.61-2.89,6.29,6.29,0,0,1,.86-2.63,4.34,4.34,0,0,1,1.47-1.57,1.2,1.2,0,0,1,1.62.45,1.85,1.85,0,0,1,.25,1,1,1,0,0,1-.56.76,6.87,6.87,0,0,0-2.43,1.92,1.94,1.94,0,0,0,.06,2.07,1.26,1.26,0,0,0,.86.71,1.4,1.4,0,0,0,1.11-.15c.2-.1.35-.2.56-.3a3.76,3.76,0,0,0,.5-.31,6.89,6.89,0,0,1,1-.6,1,1,0,0,1,1.07,0,2.88,2.88,0,0,1,1,1.06,6.54,6.54,0,0,1,.66,2,5.28,5.28,0,0,1-.1,2,2,2,0,0,1-.81,1.21C384.57,197.31,384.37,197.36,384.12,197.36Z"/></g><g id="angular"><path class="cls-1" d="M227.25,189.16a3.42,3.42,0,0,1,.51-2.43,12.25,12.25,0,0,1,2.38-3,10.47,10.47,0,0,1,3.09-2.13,2.73,2.73,0,0,1,2.58-.1,2,2,0,0,1,1,1.67,8.47,8.47,0,0,1-.36,2.83c0,.11,0,.16.06.21s.1,0,.15,0l.91-.92c.56-.5,1.06-1.06,1.57-1.56a1.64,1.64,0,0,1,.5-.41.72.72,0,0,1,.46,0,1.45,1.45,0,0,1,.56.71,4,4,0,0,1,.35,1.11,1.45,1.45,0,0,1-.15,1,7.24,7.24,0,0,1-2.13,2,24.46,24.46,0,0,1-3.59,2.28,1.39,1.39,0,0,0,.71,1.21A3.61,3.61,0,0,0,237,192a3.09,3.09,0,0,0,1,0,1.77,1.77,0,0,1,.51-.05l.05.05a.36.36,0,0,1,.2.35,2,2,0,0,1-.3.91,3.14,3.14,0,0,1-1.12,1.17,3.65,3.65,0,0,1-1.41.45,2.52,2.52,0,0,1-1.27-.25,1.59,1.59,0,0,1-.76-1.37,6,6,0,0,1,.31-2.38,8.46,8.46,0,0,1-3,.76,4.19,4.19,0,0,1-2.58-.45A3.48,3.48,0,0,1,227.25,189.16Zm3.75.36a21.16,21.16,0,0,0,3-1.37l1.42-.91a4,4,0,0,0,0-1.72,1.35,1.35,0,0,0-.71-1,2,2,0,0,0-1.82.15,9.46,9.46,0,0,0-4,3.34c-.45.76-.4,1.31.15,1.62a2.69,2.69,0,0,0,1.93-.15Z"/><path class="cls-1" d="M242,198.32a.83.83,0,0,1,.05-.6,3.12,3.12,0,0,1,.46-.56,19.39,19.39,0,0,0,1.11-1.72,13.49,13.49,0,0,0,1.22-2.78,2.65,2.65,0,0,0,0-1.78,2.84,2.84,0,0,0-1.17-1.16,4.8,4.8,0,0,0-1.52-.56l-.1,0c-.15-.1-.15-.25,0-.56a2.91,2.91,0,0,1,1.07-1,3.2,3.2,0,0,1,1.67-.4,3.61,3.61,0,0,1,1.67.35,1.82,1.82,0,0,1,1,1.37,4.31,4.31,0,0,1-.41,2,23.59,23.59,0,0,1-1.57,3.09l-.5.86c-.1.15-.1.25,0,.31a1.4,1.4,0,0,0,.5.05,8.74,8.74,0,0,0,2.89-1,5.07,5.07,0,0,0,2.18-1.87,3.05,3.05,0,0,0,.45-1.16,2.44,2.44,0,0,1,.15-.66.28.28,0,0,1,.26-.15,1.26,1.26,0,0,1,.5.15,1.52,1.52,0,0,1,.76,1.47,4.2,4.2,0,0,1-.5,2,7.93,7.93,0,0,1-3.4,3.14,14.12,14.12,0,0,1-4.55,1.52c-.22,0-.44.08-.66.1a3.67,3.67,0,0,1-.66.05.74.74,0,0,1-.35-.1A.51.51,0,0,1,242,198.32Z"/><path class="cls-1" d="M252.36,204.65a1.7,1.7,0,0,1-.3-.81,1.18,1.18,0,0,1,.1-.76,4,4,0,0,1,1.11-1.21A18.41,18.41,0,0,1,255,200.6l.31-.2a4.81,4.81,0,0,0,.5-.51,4.89,4.89,0,0,0,.41-.6,6.8,6.8,0,0,0,.76-2.64,2,2,0,0,0-1-1.92,2.63,2.63,0,0,0-.6-.25,2.12,2.12,0,0,0-.56,0c-.2,0-.3,0-.36-.05s-.15-.11-.15-.16a.74.74,0,0,1,0-.25,2.5,2.5,0,0,1,.86-.91,2.07,2.07,0,0,1,1.22-.4,1.89,1.89,0,0,1,1.21.25,2,2,0,0,1,.81,2.28,10.69,10.69,0,0,1-1.31,3.49.17.17,0,0,0-.05.15s0,.1.05.1.1,0,.1,0,.1-.05.2-.15A20,20,0,0,0,259.6,197c.76-.71,1.41-1.32,2-1.87a.41.41,0,0,1,.25-.11.81.81,0,0,1,.31.05,1,1,0,0,1,.4.51,1.77,1.77,0,0,1,.1.76,1.61,1.61,0,0,1-.2.71,3.66,3.66,0,0,1-.86.71c-.5.3-1.26.76-2.28,1.41s-2,1.17-2.48,1.47a1.48,1.48,0,0,0-.3.26l-.2.2L254,204.75a.7.7,0,0,1-1,.26C252.71,205.11,252.51,204.9,252.36,204.65Z"/><path class="cls-1" d="M262.48,209.36a3.84,3.84,0,0,1-.55-1.67,2.5,2.5,0,0,1,.3-1.52c.1-.15.3-.4.56-.76a3.75,3.75,0,0,1,.55-.61,13.42,13.42,0,0,0,1.83-2.22,1.28,1.28,0,0,0,.2-1,1.69,1.69,0,0,0-.81-.75,3.41,3.41,0,0,0-.86-.36c-.21-.05-.36-.1-.41-.1a.23.23,0,0,1-.15-.15,1.06,1.06,0,0,1,.05-.31,2.45,2.45,0,0,1,.91-.81,3.25,3.25,0,0,1,3.14,0,2.55,2.55,0,0,1,1.11,1.07,1.57,1.57,0,0,1-.25,1.36,3,3,0,0,1-.61.76,12.42,12.42,0,0,1-1,1,19,19,0,0,0-1.42,1.42,5,5,0,0,0-.81,1.12,1.16,1.16,0,0,0-.15,1.11,2.05,2.05,0,0,0,1,.86,2.18,2.18,0,0,0,1.62.2,4.78,4.78,0,0,0,1.83-.81,4.62,4.62,0,0,0,1.41-1.57,8.16,8.16,0,0,0,.92-2.12,11.52,11.52,0,0,0,.35-1.52c.05-.36.1-.61.1-.66h0a.17.17,0,0,1,.15-.05.28.28,0,0,1,.21.05,1.9,1.9,0,0,1,.65.61c.15.25.36.66.66,1.21a3.18,3.18,0,0,1-.05,1.93,16.07,16.07,0,0,1-1.06,2.63,6.78,6.78,0,0,1-2.23,2.38,7.18,7.18,0,0,1-3.09,1.16,4.51,4.51,0,0,1-2.88-.5A7.93,7.93,0,0,1,262.48,209.36Z"/><path class="cls-1" d="M271.7,214.83a4.12,4.12,0,0,1-.56-.92,1.13,1.13,0,0,1,0-.81c.1-.15.15-.25.3-.3a3.11,3.11,0,0,1,.41-.2,2.1,2.1,0,0,0,.3-.15c1.62-.81,3.19-1.62,4.66-2.48a34,34,0,0,0,4.2-2.84,1.76,1.76,0,0,0,.4-.5,2,2,0,0,0,.21-.56,5.52,5.52,0,0,0,0-3.39,4.44,4.44,0,0,0-2.08-2.13,2.78,2.78,0,0,0-1.47-.35,4.33,4.33,0,0,1-.71-.1.29.29,0,0,1-.05-.46,3,3,0,0,1,1-.91,4.62,4.62,0,0,1,1.67-.46,3,3,0,0,1,1.72.41,3.5,3.5,0,0,1,1.87,2.93,14.16,14.16,0,0,1-.91,5.52l-.81,2.58c-.25.86-.51,1.62-.71,2.28s-.35,1.22-.45,1.62a3.22,3.22,0,0,0,.05,1.87A2.75,2.75,0,0,0,282,216.7a6.62,6.62,0,0,0,1.11.45,6.37,6.37,0,0,1,.66.21c.2.1.2.25.1.45a4.54,4.54,0,0,1-1,1.22,3.06,3.06,0,0,1-1.52.71,2.46,2.46,0,0,1-1.82-.41,1.94,1.94,0,0,1-.86-1.11,4.2,4.2,0,0,1-.1-1.83c.15-.86.56-2.22,1.11-4.15l.61-2a.23.23,0,0,0,0-.25c-.05-.05-.1-.05-.2,0-.66.61-1.72,1.42-3.14,2.53s-2.48,1.87-3.24,2.43a2.58,2.58,0,0,1-.81.45,1,1,0,0,1-.56,0Q272,215.12,271.7,214.83Z"/><path class="cls-1" d="M284.65,220.9a3.42,3.42,0,0,1,.51-2.43,12.74,12.74,0,0,1,2.38-3,10.63,10.63,0,0,1,3.09-2.12,2.73,2.73,0,0,1,2.58-.1,2,2,0,0,1,1,1.67,7.73,7.73,0,0,1-.35,2.83c0,.1,0,.15.05.2s.1,0,.15-.05L295,217c.56-.5,1.06-1.06,1.57-1.57a1.76,1.76,0,0,1,.5-.4.72.72,0,0,1,.46,0,1.4,1.4,0,0,1,.56.71,3.88,3.88,0,0,1,.35,1.11,1.45,1.45,0,0,1-.15,1,7.24,7.24,0,0,1-2.13,2,26.18,26.18,0,0,1-3.59,2.27,1.42,1.42,0,0,0,.71,1.22,2.39,2.39,0,0,0,1.11.3,5.11,5.11,0,0,0,1,0,2.94,2.94,0,0,1,.51-.05l.05.05a.38.38,0,0,1,.2.36,1.86,1.86,0,0,1-.3.91,3.09,3.09,0,0,1-1.11,1.16,3.6,3.6,0,0,1-1.42.46,2,2,0,0,1-1.27-.26,1.58,1.58,0,0,1-.76-1.36,6,6,0,0,1,.31-2.38,8.46,8.46,0,0,1-3,.76,4.27,4.27,0,0,1-2.58-.46A3.3,3.3,0,0,1,284.65,220.9Zm3.75.35a20.63,20.63,0,0,0,3-1.36l1.41-.91a4,4,0,0,0,.05-1.72,1.34,1.34,0,0,0-.71-1,2,2,0,0,0-1.82.16,9.41,9.41,0,0,0-4,3.34c-.45.76-.4,1.31.16,1.62a2.63,2.63,0,0,0,1.92-.16Z"/><path class="cls-1" d="M296.55,229.05a1,1,0,0,1-.1-1.06c.66-1.17,1.26-2.28,1.82-3.39.2-.36.51-.92.91-1.68s.76-1.41,1.11-2a5.69,5.69,0,0,1,1.42-1.67,4.07,4.07,0,0,1,1.82-.76,2.88,2.88,0,0,1,2,.46,2.59,2.59,0,0,1,1.42,2.27,5.68,5.68,0,0,1-.81,3.09,4.6,4.6,0,0,1-1.37,1.57,3.61,3.61,0,0,1-1.77.71,3.23,3.23,0,0,1-1.83-.36,1.65,1.65,0,0,1-.45-.75,5.63,5.63,0,0,1-.3-1.12c0-.05,0-.05-.06-.1s-.15,0-.25.25a8.91,8.91,0,0,0-.76,1.93l-.45,1.72a6.57,6.57,0,0,0-.21.76,3.56,3.56,0,0,1-.25.76.7.7,0,0,1-.9.41l-.11-.06A2.57,2.57,0,0,1,296.55,229.05Zm6.33-4.61a3.84,3.84,0,0,0,1.67-.55,4.13,4.13,0,0,0,1.26-1.37,1,1,0,0,0,.1-.86,1.16,1.16,0,0,0-.55-.76,2.48,2.48,0,0,0-2.43-.2,5.12,5.12,0,0,0-2.08,2.17.93.93,0,0,0-.1.71,1,1,0,0,0,.4.51A3,3,0,0,0,302.88,224.44Z"/></g><g id="normal"><g id="right_a" data-name="right a"><path class="cls-1" d="M241.93,149.53c-2.23-2.53-3.34-6.13-3.34-10.68a56.11,56.11,0,0,1,2.78-16.76,48.82,48.82,0,0,1,7.39-15c3.09-4,6.38-6.07,9.93-6.07a8.92,8.92,0,0,1,7.59,4.25c2,2.83,3.64,6.78,4.91,11.89.15.41.35.61.61.66s.4-.15.45-.66l1.52-5.41c1-3.24,1.92-6.43,2.73-9.67a6.62,6.62,0,0,1,1.12-2.63,2.27,2.27,0,0,1,1.82-1,7.08,7.08,0,0,1,3.69,1.47,14.2,14.2,0,0,1,3.7,3.55,6.69,6.69,0,0,1,1.52,3.94c0,2.53-1.27,6.74-3.8,12.56a96,96,0,0,1-9.21,16.7,5.89,5.89,0,0,0,5.42,3.09,10.68,10.68,0,0,0,5.11-1.17,26.27,26.27,0,0,0,3.54-2.27,13.33,13.33,0,0,1,1.82-1.37h.26a1.85,1.85,0,0,1,1.67,1,8.4,8.4,0,0,1,1,4.25,13.53,13.53,0,0,1-1.77,6.84,13,13,0,0,1-4.61,4.75,10.54,10.54,0,0,1-5.57,1.73c-2.27,0-4.3-1.22-6-3.6a26.38,26.38,0,0,1-4-9.87A44.68,44.68,0,0,1,262,149.63a19.54,19.54,0,0,1-11.09,3.8A11.75,11.75,0,0,1,241.93,149.53Zm15.34-6.84a75,75,0,0,0,8.65-12l3.65-6.63a20.49,20.49,0,0,0-3.59-6.89,6.12,6.12,0,0,0-4.76-2.17c-2.13,0-4.36,1.52-6.74,4.5a41.36,41.36,0,0,0-6,10.73,31,31,0,0,0-2.43,11c0,4,1.37,6,4.15,6C252.16,147.2,254.48,145.73,257.27,142.69Z"/></g><g id="left_a" data-name="left a"><path class="cls-1" d="M367.36,153.38a19.51,19.51,0,0,1-11.08-3.8,45.81,45.81,0,0,1-10.18-9.67,28,28,0,0,1-4,9.87c-1.73,2.43-3.75,3.6-6,3.6a10.63,10.63,0,0,1-5.57-1.73,13.41,13.41,0,0,1-6.37-11.59,7.76,7.76,0,0,1,1-4.25,1.94,1.94,0,0,1,1.67-1H327a12.21,12.21,0,0,1,1.82,1.37,20,20,0,0,0,3.55,2.27,10.4,10.4,0,0,0,5.11,1.17,5.78,5.78,0,0,0,5.41-3.09,100.17,100.17,0,0,1-9.21-16.7c-2.53-5.88-3.79-10.08-3.79-12.56a6.73,6.73,0,0,1,1.51-4,16.58,16.58,0,0,1,3.7-3.54,7.27,7.27,0,0,1,3.69-1.47,2.29,2.29,0,0,1,1.83,1,7,7,0,0,1,1.11,2.63c.81,3.24,1.67,6.43,2.73,9.67l1.52,5.41c.1.46.26.71.46.66a1,1,0,0,0,.61-.66C348.33,112,350,108,352,105.19s4.55-4.26,7.59-4.26c3.54,0,6.83,2,9.92,6.08a48.38,48.38,0,0,1,7.39,15,56.11,56.11,0,0,1,2.78,16.76c0,4.55-1.11,8.15-3.34,10.68A11.33,11.33,0,0,1,367.36,153.38Zm.71-6.18c2.74,0,4.15-2,4.15-6a31.2,31.2,0,0,0-2.43-11,41.07,41.07,0,0,0-6-10.73c-2.38-3-4.61-4.5-6.73-4.5a6,6,0,0,0-4.76,2.17,20.82,20.82,0,0,0-3.59,6.89l3.64,6.63a75.66,75.66,0,0,0,8.66,12c2.83,3.09,5.16,4.56,7,4.56Z"/></g></g></g></g></g></g></svg>