<svg xmlns="http://www.w3.org/2000/svg" viewBox="0 0 623.62 255.12"><defs><style>.cls-1{fill:#fff;}.cls-2{fill:#be1f51;}</style></defs><g id="BG"><rect class="cls-1" width="623.62" height="255.12"/></g><g id="Logo"><path class="cls-2" d="M623.62,255.12H0V0H623.62ZM379.81,32a3.14,3.14,0,0,0-.67-.25c-3.91-.47-7.8-1.13-11.72-1.35-6-.32-12.05.06-17.77,2.32-7.16,2.81-11.43,7.84-12,15.69-.73,10.35,5.31,17.36,15.48,18a19.35,19.35,0,0,0,8.71-1.29,7.92,7.92,0,0,1-6.08,9.4,20.53,20.53,0,0,1-9,.12c-2.75-.56-5.44-1.44-8.2-2.19v9.89a37.39,37.39,0,0,0,19.26,1.52,18.27,18.27,0,0,0,11.76-6.6c2.78-3.51,3.66-7.68,3.74-12,.12-7.21,0-14.42-.09-21.63v-4l2.55.21C377.15,37.25,378.46,34.66,379.81,32ZM227.52,30.39c-2.73,0-5.38-.17-8,0a19,19,0,0,0-12,5.06c-4.24,4-5.52,9.13-5.27,14.77.32,7.5,4.35,12.84,11.57,14.9a36.45,36.45,0,0,0,7.7,1.29,70.63,70.63,0,0,0,17.73-1.39V14.17H227.52Zm170.63-.65-.08.35c-5.24.05-10.16,1.17-14,4.91-5.24,5-6.27,11.42-5,18.24s5.39,11.24,12.11,12.95a29.86,29.86,0,0,0,7.49.8c8.77,0,15.36-4.8,17.55-12.51a22.34,22.34,0,0,0,0-12.32,15,15,0,0,0-9.9-10.63A67.85,67.85,0,0,0,398.15,29.74ZM311.22,39.79a50.87,50.87,0,0,1,5.54-.59c3.94,0,5.42,1.59,5.42,5.54V66.06H334V64.54c0-5.71,0-11.42,0-17.13,0-2.21,0-4.43-.16-6.63a9.7,9.7,0,0,0-6.35-8.87,20.07,20.07,0,0,0-4.31-1.24,48.85,48.85,0,0,0-15.45.39c-2.78.44-5.54,1.07-8.26,1.6V66h11.76ZM265.08,42c1.66-.62,3.13-1.22,4.64-1.71a27.27,27.27,0,0,1,10.45-1.44c1.21.08,2.37.41,2.59,1.8a21,21,0,0,1,0,3.18l-1.27.11a41.91,41.91,0,0,0-12.26,2.67c-5.28,2.25-7.49,6.44-6.48,12.09a8,8,0,0,0,5.68,6.72A22.62,22.62,0,0,0,275,66.58c4.59,0,9.19-.3,13.78-.54,1.62-.09,3.23-.34,5-.52v-1.6c0-5,0-10.09,0-15.14,0-3.23.05-6.46-.15-9.68-.3-4.76-2.36-7.08-7-8.21a30.73,30.73,0,0,0-12.38-.11,33.25,33.25,0,0,0-9.05,2.8Zm-19,127-.42.39c.32,1,.39,2.23,1,3a11,11,0,0,0,3.84,3.11c6,2.37,11.86,1.95,17.2-1.71s7.75-9,9.23-14.91c1.86-7.51,1.48-15.11.66-22.7-1-9.2-2.19-18.37-1-27.66a17.06,17.06,0,0,0-.35-4.87,2.6,2.6,0,0,0-1.24-1.51,10.79,10.79,0,0,0-2.25-.74c-6.1-2-11.73-1.34-16.53,3.22a21.51,21.51,0,0,0-5.22,8.69c-3,8.44-3,17.1-1.72,25.83a10.55,10.55,0,0,0,.92,2.76c.76,1.64,1.62,2.24,3.38,1.85a20.79,20.79,0,0,0,5.45-1.92,17.67,17.67,0,0,0,6.66-6.9c2.11-3.68,3.93-7.52,5.88-11.29.17-.35.35-.69.52-1a28.7,28.7,0,0,1,.7,5c.47,8.17,1.08,16.34,1.31,24.52a25,25,0,0,1-3.94,14.65c-3.7,5.69-12.74,8.76-18.91,4.33a10.36,10.36,0,0,0-2.34-1.26A29.09,29.09,0,0,0,246.08,169ZM234.69,76.56c3.63,1.61,7.09,3.15,10.57,4.66a1.23,1.23,0,0,0,.86-.06c5.61-2.43,9.68-6.35,10.85-12.49a67.55,67.55,0,0,0,1-11.46c.15-8.22,0-16.46,0-24.69V31.15H246.24c0,2,0,3.88,0,5.78-.11,8.44-.1,16.9-.41,25.34C245.6,68,243,72.49,237.59,75.08,236.68,75.52,235.79,76,234.69,76.56Zm140.36,27.3a24.44,24.44,0,0,0-9.44-3.48,18.23,18.23,0,0,0-15.5,4.08,6.33,6.33,0,0,0-2.38,4,10.7,10.7,0,0,0,2.47,8.91,29.65,29.65,0,0,0,9.22,6.6c4.06,2.06,8.14,4.1,12.13,6.28a8.34,8.34,0,0,1,2.7,2.49c1.82,2.57.64,4.83-2.52,5a34.77,34.77,0,0,1-15-2.43A52.15,52.15,0,0,1,343,126.49c-1.83-1.54-3.77-1.11-4.86,1.12.24.29.47.61.74.89.61.64,1.21,1.3,1.87,1.88a47.27,47.27,0,0,0,25.38,11.48,46.23,46.23,0,0,0,9.91,0,5.09,5.09,0,0,0,4.91-4.17,8.64,8.64,0,0,0-2.21-8.34c-3.09-3.12-7-4.67-11-6.28a57.88,57.88,0,0,1-7.6-3.44c-1.94-1.14-4.09-2.54-5.19-4.4-2.9-4.91-2.55-8.31,3.36-10a16.63,16.63,0,0,1,2.2-.49c4.29-.6,8.47-.49,12.35,2Zm-76.64-3.74a22.45,22.45,0,0,0-2.14-.84c-2.14-.6-3.44.25-3.55,2.44a18.84,18.84,0,0,0,.31,4c.45,2.61,1.22,5.18,1.46,7.81.74,8.1,1.28,16.23,1.92,24.34.14,1.75.36,3.48.55,5.33l5.18-1c-.05-.32-.06-.45-.08-.58-1.62-7.7-1.51-15.32,1.48-22.69,3.3-8.16,8.85-14,17.59-16.34.54-.15,1.09-.27,1.67-.41.26-1.46.51-2.83.8-4.42-10.62.47-18.07,5.58-23.29,14.71ZM327.22,76c0,.61,0,1,0,1.49q.58,12,1.17,24,.9,18.9,1.8,37.79a4.48,4.48,0,0,0,.67,2.08,1.35,1.35,0,0,0,2.47,0,7.08,7.08,0,0,0,.87-3.24c-.2-7.88-.51-15.74-.81-23.61q-.7-18.78-1.44-37.54c0-.47-.1-.94-.16-1.52Zm61.61,132.69L381.17,189h-4.79l-7.65,19.75c1.27,0,2.37,0,3.46,0a1.66,1.66,0,0,0,1.79-1.26c.36-1,.73-2,1.08-3h7.48a23.53,23.53,0,0,0,1.07,3,2.31,2.31,0,0,0,1.37,1.19A28.65,28.65,0,0,0,388.83,208.72ZM288.45,142.79V101.16c-3.28.45-3.85,1.09-3.85,4.14q0,14.53,0,29.08c0,1.81-.06,3.63,0,5.44a2.35,2.35,0,0,0,.77,1.66A18.49,18.49,0,0,0,288.45,142.79Zm113.93,46.1c.37.67.59,1.09.83,1.5,1.9,3.24,3.84,6.46,5.67,9.74a5.77,5.77,0,0,1,.67,2.48c.09,2,0,4,0,6h4.67c0-2.08-.06-4.11,0-6.13a5.36,5.36,0,0,1,.63-2.36c1.86-3.31,3.81-6.57,5.73-9.86.23-.39.43-.81.74-1.42-1.19,0-2.16.07-3.11,0a2.65,2.65,0,0,0-2.94,1.9c-1,2.33-2.18,4.6-3.38,7.09-.24-.44-.37-.69-.5-1-1.08-2.22-2.1-4.49-3.29-6.65A2.89,2.89,0,0,0,406.4,189,26.16,26.16,0,0,0,402.38,188.89Zm-48.81,3.77h5.5v16h4.66v-16h5.55V189H353.57ZM246.33,14.19V25.37H258V14.19Zm150,190.88V189h-4.54v19.66h11.8v-3.58ZM349.91,189h-4.59v19.68h4.59Zm-61.66-99.9c-.06-2-1-2.75-2.85-2.15a6.1,6.1,0,0,0-2.27,1.29c-1.95,1.9-1.78,3.14.51,4.61a2.51,2.51,0,0,0,3.93-1.22A15.94,15.94,0,0,0,288.25,89.05Zm69.86-49.61c-4.68.67-7.62,3.13-8.21,7.19a16.42,16.42,0,0,0,.19,5.37,6.35,6.35,0,0,0,4.71,5.07,11.52,11.52,0,0,0,7.11-.3V39.16C360.48,39.26,359.28,39.27,358.11,39.44Zm-134.32-.26c-4.78-.15-8.22,2.22-9.16,6.38a14.81,14.81,0,0,0-.3,4.2c.24,3.27,1.65,5.86,4.86,7.13,2.68,1,5.45.75,8.28.46V39.63A36.56,36.56,0,0,0,223.79,39.18ZM392.05,54.81c1.13,2.43,3.37,3.38,6,3.29a5.92,5.92,0,0,0,5.59-3.59,13.91,13.91,0,0,0,0-11.83A5.88,5.88,0,0,0,398,39.07c-2.71,0-5,1-6.07,3.49a45,45,0,0,0-1.73,6.07A43,43,0,0,0,392.05,54.81ZM275.41,52.74a3,3,0,0,0-2.16,3.64c.22,1.39,1.23,2.33,3.06,2.4,2.31.08,4.63-.08,7-.13v-7.8C280.52,51.5,277.91,52,275.41,52.74Zm-15.2,55.78a16.83,16.83,0,0,0-5.13,7.6,42,42,0,0,0-2.33,16.32,17.21,17.21,0,0,0,.66,4.29,2.18,2.18,0,0,0,3,1.62,9.12,9.12,0,0,0,3.6-2,22.4,22.4,0,0,0,3.37-4.57,60.16,60.16,0,0,0,6.12-16.9c.58-2.53,1-5.1,1.42-7.66C267,105.74,263.44,105.92,260.21,108.52ZM381.4,201l-2.63-7.68L376.18,201Z"/></g></svg>