<svg xmlns="http://www.w3.org/2000/svg" viewBox="0 0 623.62 255.12"><defs><style>.cls-1{fill:#fff;}.cls-2{fill:#b1b1b1;}.cls-3{fill:#b0afb1;}.cls-4{fill:#e03920;}.cls-5{fill:#5a79ba;}.cls-6{fill:#f5bf00;}.cls-7{fill:#209640;}.cls-8,.cls-9{fill:#575756;}.cls-8{stroke:#575756;stroke-miterlimit:10;stroke-width:3px;}</style></defs><g id="BG"><rect class="cls-1" width="623.62" height="255.12"/></g><g id="Logo"><path class="cls-2" d="M68.94,179.64H67.38v-8.29s-8.81,4.15,0-43c0,0,10.2,41.63,1.39,43.18Z"/><path class="cls-2" d="M68.94,177.16H67.38l0,2.48v-8.29a16,16,0,0,1,0-2.48c-.8.37-1.68-.28-2.13-.9a9,9,0,0,1-1.36-3.9,28.15,28.15,0,0,1-.36-3.67c0-.36,0-.72,0-1.07s0,2.45,0,2.11,0-.49,0-.73c0-1,.08-2.07.15-3.1.36-5.74,1.14-11.45,2-17.12.14-.9,1.81-9.59,1.68-9.63.15,0,.33,1.37.36,1.51,1.54,6.67,2.84,13.41,3.73,20.2.27,2.05.5,4.12.66,6.18.08,1,.14,2.09.17,3.13,0,.21,0,.43,0,.64a14.89,14.89,0,0,0,0-2.22c0,.46,0,.92-.07,1.38-.15,2.18-.4,5.38-2.31,6.83a2.87,2.87,0,0,1-1.18.53,37.21,37.21,0,0,0,0,4.63l.18,8.12c0,.94,0-.81,0-.89,0-1.13,0-2.27,0-3.4l-.17-8.12V174c2.47-.49,3.07-3.73,3.34-5.8a70.09,70.09,0,0,0,0-14.19,172.93,172.93,0,0,0-3.92-24.47c-.22-1-.45-2-.68-3,0-.1-.07-.57-.15-.62.12.07-.66,3.49-.74,4-1.2,6.77-2.25,13.59-2.83,20.45a117.15,117.15,0,0,0-.32,14.87,20.41,20.41,0,0,0,1.05,6.45c.41,1,1.38,2.69,2.77,2.22l0,0,0-2.49v8.29c0,.15,0,2.49,0,2.49h1.56S69,177.16,68.94,177.16Z"/><path class="cls-2" d="M55.16,179.46H53.29v-10s-10.58,5,0-51.65c0,0,12.24,50,1.66,51.86Z"/><path class="cls-2" d="M55.16,177H53.29l0,2.49v-10a16.09,16.09,0,0,1,0-2.49c-1,.46-2-.36-2.59-1.11a11.25,11.25,0,0,1-1.63-4.79,37.8,37.8,0,0,1-.42-4.51c0-.38,0-.83,0-1.17,0,.48,0,1,0,1.45v.35c0-.32,0-.63,0-.94,0-1.24.09-2.47.17-3.7.44-7,1.39-13.89,2.48-20.77q.54-3.39,1.14-6.75c.1-.55,1-4.62.87-4.69.23.12.39,1.63.44,1.86,1.87,8.11,3.44,16.3,4.51,24.55.33,2.54.61,5.09.79,7.65.08,1.17.15,2.36.18,3.54.06,2.17.06-2.52,0-1.28,0,.52,0,1.05-.07,1.58-.18,2.64-.47,6.55-2.79,8.32a3.36,3.36,0,0,1-1.42.62,37.36,37.36,0,0,0,0,4.63l.21,9.75c0,.94,0-.8,0-.89,0-1.13,0-2.27,0-3.4L55,167.56v4.63c3-.57,3.69-4.46,4-6.93a58.58,58.58,0,0,0,.32-7.73c0-2.9-.06-5.79-.29-8.68a212,212,0,0,0-4.71-29.19c-.26-1.17-.53-2.34-.8-3.51a2.69,2.69,0,0,0-.17-.73c.12.07-.82,4.33-.92,4.91-1.42,8-2.66,16.15-3.36,24.3a131.38,131.38,0,0,0-.38,17.18,23.49,23.49,0,0,0,1.29,7.62c.48,1.2,1.67,3.17,3.28,2.58l.07,0,0-2.48v10c0,.14,0,2.48,0,2.48h1.87S55.2,177,55.16,177Z"/><path class="cls-2" d="M39.25,182l-1.73,1.15v-9.23s-9.81,3.46,0-49c0,0,11.34,46.35,1.53,48.08Z"/><path class="cls-2" d="M39.25,179.53l-1.73,1.15,0,2.48v-9.23a20.72,20.72,0,0,1,0-2.48c-1,.34-1.94-.65-2.41-1.37a12.21,12.21,0,0,1-1.5-4.72,36.36,36.36,0,0,1-.4-4.3l0-1.21c0,2.09,0,2.78,0,2,0-.29,0-.57,0-.86,0-1.17.09-2.34.16-3.51.41-6.52,1.29-13,2.32-19.46.33-2.12.69-4.23,1.06-6.33.08-.47.85-4.2.79-4.22.18.07.36,1.55.4,1.73,1.73,7.5,3.19,15.09,4.18,22.72.3,2.34.56,4.68.73,7,.08,1.1.14,2.2.17,3.31,0,.21,0,.43,0,.65s0-3.51,0-2.05c0,.46,0,.92-.06,1.38-.17,2.45-.44,6.07-2.58,7.71a3.26,3.26,0,0,1-1.33.59,37.35,37.35,0,0,0,0,4.63l.19,9c0,.94,0-.81,0-.9,0-1.13,0-2.26,0-3.39l-.19-9,0,4.63c2.74-.53,3.41-4.1,3.72-6.38a55.87,55.87,0,0,0,.3-7.32c0-2.7,0-5.4-.25-8.09a195.82,195.82,0,0,0-4.38-27.22c-.24-1.1-.49-2.21-.75-3.31,0-.1-.07-.61-.16-.67a44.51,44.51,0,0,1-.83,4.43c-1.33,7.55-2.49,15.15-3.13,22.79a126.88,126.88,0,0,0-.36,16.43,24.8,24.8,0,0,0,1.19,7.45c.43,1.15,1.46,3.23,3.05,2.86h.07l0-2.49v9.23a11.6,11.6,0,0,1,0,2.49l1.73-1.16c.22-.15,0-2.18,0-2.48S39,179.67,39.25,179.53Z"/><path class="cls-2" d="M412.16,170.79l50.8-4s1.06-7.12-1.84-7.65l.53-8.83s4-1.43,1-5.12c0,0,3.64-3.19-.45-6.08l1-7.42s3.19-2.08.29-4.45l1.19-6.46s4.41-2.5.92-5.27l.92-7s2.64-2.11-.13-4.22l.37-6.74s3.58-2.61.66-4.77l.43-7.6s5.13-2,1.31-4.22L469,72.82s3.34-1.19,1.62-3.95l-5-2s.29-9.06,1.22-9.93c2.3-2.16,1.77-7,1.77-7l-30.71-3.82s-2,6.72,0,8l-.8,9.62-6.72,1.46a2,2,0,0,0,.93,3.16l-.53,8.57s-3,1.84-.53,4.22l-1.18,7.64s-3.82.92-1.58,4l-.14,7.38s-4.74,1.84-1.32,4.87l-.79,6.73a2.25,2.25,0,0,0-.53,4l-.39,6.85s-3.69,1.32-1,4.09l-1.06,8.7s-3.58,1.32-1.74,5.41c0,0-2.9,2.14-.76,4.74L418,156.13C412.38,161.82,412.16,170.79,412.16,170.79Z"/><path class="cls-3" d="M270.64,210.68c37-21.16,81.76-27.72,123.3-33.94,30-4.49,59.81-8.79,90.18-8.1,26.25.6,52.46,3.31,78.43,7.06q15.62,2.25,31.14,5.1c3.08.57,6.16,1.16,9.23,1.81.94.19,1.9.49,2.85.62s1.53.81.51-.11v-2.64a2,2,0,0,1,1.13-.54c-2.39-.16-2.38,3.56,0,3.73a1.94,1.94,0,0,0,1.5-.55,1.88,1.88,0,0,0,0-2.64c-2.07-1.85-7.08-1.9-9.61-2.4-8.38-1.63-16.8-3.06-25.23-4.39a732.52,732.52,0,0,0-76.62-8.28,385.57,385.57,0,0,0-41.22-.11c-15.65.89-31.22,3.32-46.73,5.46-27.83,3.86-55.72,8.17-83,15-20,5-39.79,11.49-57.74,21.74-2.08,1.19-.21,4.41,1.88,3.22Z"/><path class="cls-3" d="M16.52,190.75c14.14-4,28.92-5.59,43.52-6.74,19.05-1.5,38.18-1.89,57.29-1.7,39.63.4,79.64,2.92,118.72,9.77,15.17,2.66,31,5.66,45.07,12.22,2.16,1,4.06-2.21,1.88-3.22-12.35-5.76-26-8.8-39.28-11.37-18.47-3.56-37.2-5.86-55.93-7.58-40.54-3.71-81.63-5-122.27-2.24-16.73,1.12-33.8,2.71-50,7.26-2.3.65-1.32,4.25,1,3.6Z"/><path class="cls-4" d="M107.28,117l21.22-12.25a10.44,10.44,0,1,0-10.44-18.09L81.39,107.84Z"/><path class="cls-5" d="M123.27,148.49A10.44,10.44,0,0,0,128.5,129L91.84,107.84c-5-2.89-10.23-1.18-13.11,3.82S76.4,123,81.39,125.92l36.67,21.17A10.4,10.4,0,0,0,123.27,148.49Z"/><path class="cls-6" d="M159.75,148.49a10.37,10.37,0,0,0,5.21-1.4l37.83-21.17-26.72-9.36L154.52,129a10.44,10.44,0,0,0,5.23,19.48Z"/><path class="cls-7" d="M196.4,127.32c3.61,0,8.28-1.87,10.21-5.22a10.44,10.44,0,0,0-3.82-14.26L165,86.66a10.44,10.44,0,0,0-10.44,18.09l36.67,21.17A10.37,10.37,0,0,0,196.4,127.32Z"/><path class="cls-8" d="M293.5,117q0,13.89-8.24,22.12Q275.9,149,260.91,149A33.36,33.36,0,0,1,236.52,139q-10.05-10-10.05-24.67t10.05-24.67a33.33,33.33,0,0,1,24.39-10,34.23,34.23,0,0,1,13.61,2.78,27.21,27.21,0,0,1,10.37,7.41l-5.84,5.83q-6.57-7.87-18.14-7.87a25.2,25.2,0,0,0-18.1,7.36q-7.63,7.37-7.63,19.12t7.63,19.11a26.4,26.4,0,0,0,36.62,0q4.8-4.82,5.55-13.43H260.91v-8H293A28.4,28.4,0,0,1,293.5,117Z"/><path class="cls-8" d="M303.86,147.47V81.19h20.28q15.27,0,24.44,9.21t9.16,23.93q0,14.72-9.16,23.93t-24.44,9.21Zm8.52-8.15h11.76q11.48,0,18.19-6.57T349,114.33q0-11.76-6.71-18.38t-18.19-6.62H312.38Z"/><path class="cls-8" d="M431.61,117q0,13.89-8.24,22.12Q414,149,399,149a34.13,34.13,0,0,1-34.44-34.62q0-14.73,10-24.67a33.37,33.37,0,0,1,24.4-10,34.23,34.23,0,0,1,13.61,2.78A27.17,27.17,0,0,1,423,89.89l-5.83,5.83Q410.6,87.85,399,87.85a25.18,25.18,0,0,0-18.1,7.36q-7.64,7.37-7.64,19.12t7.64,19.11a26.39,26.39,0,0,0,36.61,0q4.81-4.82,5.56-13.43H399v-8h32.12A28.36,28.36,0,0,1,431.61,117Z"/><path class="cls-9" d="M460.54,148.49h-8.43V82.21h22.36a20.66,20.66,0,0,1,14.44,5.6,19.41,19.41,0,0,1,0,28.24,20.66,20.66,0,0,1-14.44,5.6H460.54Zm0-35h14.12a10.83,10.83,0,0,0,8.52-3.61,11.47,11.47,0,0,0,0-15.92,10.83,10.83,0,0,0-8.52-3.61H460.54Z"/><path class="cls-9" d="M511.5,91.75a6,6,0,0,1-8.43,0,6.08,6.08,0,0,1,0-8.52,5.93,5.93,0,0,1,8.43,0,6.08,6.08,0,0,1,0,8.52Zm0,56.74h-8.43V103.13h8.43Z"/><path class="cls-9" d="M539.17,150q-7.51,0-12.41-3.7a21.88,21.88,0,0,1-7.2-9.26l7.52-3.14q3.57,8.5,12.18,8.51a11,11,0,0,0,6.47-1.76,5.39,5.39,0,0,0,2.52-4.62q0-4.45-6.14-6L533,127.76a21.45,21.45,0,0,1-8.15-4.22,10.17,10.17,0,0,1-3.85-8.37,11.48,11.48,0,0,1,5.27-9.77,21,21,0,0,1,12.51-3.75,20.69,20.69,0,0,1,10.63,2.73,15.41,15.41,0,0,1,6.69,7.82l-7.33,3.06q-2.47-6-10.27-6a11.88,11.88,0,0,0-6.32,1.58,4.81,4.81,0,0,0-2.57,4.25c0,2.6,2,4.35,6,5.28l8.89,2.13q6.32,1.48,9.35,5.09a12.38,12.38,0,0,1,3,8.15,12.66,12.66,0,0,1-5,10.18Q547,150,539.17,150Z"/><path class="cls-9" d="M578.85,150a17.58,17.58,0,0,1-12-4.16,13.86,13.86,0,0,1-4.82-11,13.67,13.67,0,0,1,5.69-11.62,22.92,22.92,0,0,1,14-4.21q7.43,0,12.19,2.78v-1.3a10.16,10.16,0,0,0-3.39-8,12.11,12.11,0,0,0-8.34-3,12.77,12.77,0,0,0-6.65,1.76,9.07,9.07,0,0,0-4.08,4.81l-7.7-3.33a17.67,17.67,0,0,1,6.14-7.55q4.59-3.47,12.1-3.47a20.66,20.66,0,0,1,14.3,5.09q5.68,5.1,5.68,14.35v27.4H594V142.2h-.37Q588.57,150,578.85,150Zm1.38-7.77a13.67,13.67,0,0,0,9.49-3.94A12.25,12.25,0,0,0,594,129q-3.59-3-10.73-3c-4.09,0-7.18.89-9.25,2.68a8.09,8.09,0,0,0-3.12,6.3,6.07,6.07,0,0,0,2.84,5.27A11.25,11.25,0,0,0,580.23,142.2Z"/></g></svg>