<svg xmlns="http://www.w3.org/2000/svg" viewBox="0 0 623.62 255.12"><defs><style>.cls-1{fill:#fff;}.cls-2{fill:#109d58;}.cls-3{fill:#4285f3;}.cls-4{fill:#767676;}.cls-5{fill:#e94336;}.cls-6{fill:#fabb05;}</style></defs><g id="BG"><rect class="cls-1" width="623.62" height="255.12"/></g><g id="Logo"><path class="cls-2" d="M123.36,127.63c-2.8-1.62-5.59-3.26-8.4-4.85-4.75-2.69-9.51-5.34-14.25-8-5.28-3-7.43-8.56-5.38-13.8a11.44,11.44,0,0,1,15.56-6.23c3.07,1.46,6,3.25,8.94,4.92,10.61,6,21.2,12,31.82,17.94a11.49,11.49,0,0,1,5.59,6.27,11.23,11.23,0,0,1-5.55,13.68l-1.22.58-.62.26h0a6,6,0,0,0-.73.07,11.51,11.51,0,0,1-8.53-1.22c-2.41-1.37-4.84-2.74-7.27-4.09C130,131.28,126.69,129.46,123.36,127.63Z"/><path class="cls-3" d="M48.76,127.56q6.3,3.6,12.6,7.18c3.35,1.9,6.72,3.78,10.07,5.67a11.06,11.06,0,0,1,5.28,13.74,11.31,11.31,0,0,1-12.63,7.1A13.41,13.41,0,0,1,60,159.78q-20-11.16-39.89-22.43a10.75,10.75,0,0,1-5.88-10.19c.12-4.4,2.43-7.53,6.24-9.62.4-.21.81-.39,1.22-.58l.64-.27,0,0c.28,0,.57,0,.85-.07a12,12,0,0,1,8.73,1.48c1.82,1.1,3.7,2.1,5.56,3.14Z"/><path class="cls-4" d="M397.67,120.4c-.59,1.73-1.18,3.46-1.75,5.19q-3,9.14-5.95,18.28c-.91,2.79-1.85,5.57-2.74,8.37-.21.64-.49.93-1.2.91-1.76-.06-3.53,0-5.3,0a1,1,0,0,1-1.09-.84c-1.54-5.63-3.13-11.25-4.7-16.86s-3.17-11.23-4.73-16.86c-1.23-4.44-2.42-8.89-3.63-13.34-.2-.71-.38-1.42-.63-2.11s0-1.14.73-1.15c1.84,0,3.69-.06,5.54,0,.33,0,.81.52.92.88.75,2.55,1.42,5.12,2.1,7.68q2.11,7.86,4.22,15.71,1.85,6.85,3.68,13.71a2,2,0,0,0,.61,1.07c.26-.63.55-1.25.77-1.9,3.24-9.81,6.46-19.62,9.74-29.42a1.66,1.66,0,0,1,1.23-.82c1.43-.1,2.88,0,4.31-.07a1.44,1.44,0,0,1,1.68,1.18q1.54,4.77,3.12,9.54,3.52,10.63,7.08,21.27a4.54,4.54,0,0,0,.33.56c.51-1.87,1-3.49,1.38-5.13q1.91-7.47,3.79-14.94l3.66-14.48c.34-1.35.58-2.72,1-4a1.7,1.7,0,0,1,1.25-.82c1.68-.1,3.36,0,5-.06,1.12,0,1.13.57.93,1.33-.59,2.25-1.2,4.49-1.81,6.74q-1.66,6.15-3.31,12.29c-1.26,4.69-2.49,9.39-3.74,14.08-1.39,5.24-2.81,10.48-4.17,15.73a1.14,1.14,0,0,1-1.35,1c-1.68,0-3.37-.06-5,0a1.18,1.18,0,0,1-1.34-.94q-3.13-9.72-6.28-19.45c-1.34-4.1-2.72-8.19-4.08-12.29Z"/><path class="cls-4" d="M339.51,132.16H322.92c-1.65,0-1.65,0-1.65-1.71,0-1.31,0-2.62,0-3.93,0-.57.11-1,.8-.94l23.76,0a2.85,2.85,0,0,1,.55.24,52.07,52.07,0,0,1,.17,6,23.09,23.09,0,0,1-4.05,12.17,23.54,23.54,0,0,1-14.64,9.58c-7.27,1.5-14.21.79-20.55-3.22s-10.48-9.57-11.89-17c-1.19-6.27-.76-12.39,2.22-18.14a25.31,25.31,0,0,1,14.54-12.84A27.66,27.66,0,0,1,334,103.8c2.13,1,3.9,2.8,5.82,4.24.56.42.48.85,0,1.32-1.2,1.17-2.42,2.33-3.56,3.56-.64.7-1.11.61-1.7,0a16.77,16.77,0,0,0-7.62-4.52,19.25,19.25,0,0,0-22.86,9.77c-3.57,7-2.79,17.13,2.9,23.21a18.87,18.87,0,0,0,15.15,6.21,18.63,18.63,0,0,0,11.08-3.68,15.56,15.56,0,0,0,6.08-10.42C339.33,133.11,339.4,132.75,339.51,132.16Z"/><path class="cls-4" d="M233.67,132.16h-2c-5,0-9.93,0-14.9,0-1,0-1.5-.25-1.43-1.38.09-1.34.05-2.7,0-4.05,0-.81.19-1.19,1.1-1.18q11.38,0,22.78,0c.83,0,1.12.29,1.23,1.11,1.39,10.39-3,20.37-13.19,25.21a26.71,26.71,0,0,1-15.32,2.2c-10.21-1.38-17.15-7-21.19-16.34a26.15,26.15,0,0,1-1.68-12.64c.71-9.31,5.39-16.14,13.26-20.87a24.68,24.68,0,0,1,13-3.3c6.44,0,12.33,1.61,17.27,5.88,2.55,2.2,2,1.72.17,3.63-.79.83-1.66,1.6-2.43,2.45-.6.67-1.07.69-1.7,0a16.7,16.7,0,0,0-7.85-4.61c-9.86-2.75-20.55,2.23-23.71,12.56-2.56,8.38-1,16.08,5.75,22.17a18.22,18.22,0,0,0,13.36,4.53,18.54,18.54,0,0,0,11-3.61,15.44,15.44,0,0,0,6.15-10.37C233.47,133.19,233.56,132.79,233.67,132.16Z"/><path class="cls-4" d="M248.19,127.66V103.8c0-1.73.1-1.84,1.79-1.84,4.68,0,9.36-.06,14,0,6.05.1,11.78,1.37,16.67,5.2a22.66,22.66,0,0,1,8.65,14.25,31.14,31.14,0,0,1-.79,15.51,22.5,22.5,0,0,1-12.62,13.95,25.89,25.89,0,0,1-11.09,2.25q-7.57-.07-15.15,0c-1.17,0-1.53-.31-1.53-1.5C248.21,143.65,248.19,135.66,248.19,127.66Zm7.12,18.74a62.54,62.54,0,0,0,14.45-.64,16.22,16.22,0,0,0,12.63-13.42,24.67,24.67,0,0,0-.45-11.17A15.87,15.87,0,0,0,274,111.06a18.06,18.06,0,0,0-8.81-2.21h-9.89Z"/><path class="cls-5" d="M48.76,127.56l-11.36-6.3c-1.86-1-3.74-2-5.56-3.14a12,12,0,0,0-8.73-1.48c-.28,0-.57,0-.85.07a6.41,6.41,0,0,1,.83-.65L59.62,95.43c5.43-3.06,11.65-2.07,15.27,2.39a10.89,10.89,0,0,1-2.84,16.49c-5.53,3.28-11.19,6.35-16.79,9.52C53.08,125.06,50.92,126.32,48.76,127.56Z"/><path class="cls-6" d="M123.36,127.63c3.33,1.83,6.66,3.65,10,5.49,2.43,1.35,4.86,2.72,7.27,4.09a11.51,11.51,0,0,0,8.53,1.22,6,6,0,0,1,.73-.07,8.59,8.59,0,0,1-.85.64q-18.32,10.32-36.64,20.65c-4.27,2.41-8.52,2.57-12.67-.1a10.93,10.93,0,0,1,.32-18.74C107.74,136.3,115.58,132,123.36,127.63Z"/><path class="cls-4" d="M556.09,118.22h7.22Q567,130.66,570.63,143l.37.06c.4-1.1.83-2.2,1.19-3.31q3.34-10.23,6.64-20.49a1.4,1.4,0,0,1,1.65-1.17c1.64.08,3.28.05,4.92,0a1.09,1.09,0,0,1,1.31.9c1.81,5.67,3.69,11.32,5.55,17,.79,2.43,1.59,4.85,2.65,7.27q.87-2.85,1.73-5.7,2.18-7.4,4.34-14.8c.36-1.25.66-2.52,1.07-3.76.12-.34.53-.83.81-.84,2.12-.07,4.25,0,6.59,0L608,122.59c-3.19,9.86-6.4,19.71-9.54,29.58a1.18,1.18,0,0,1-1.4,1c-1.6,0-3.2-.06-4.8,0a1.34,1.34,0,0,1-1.59-1.08c-1-3.32-2.12-6.61-3.18-9.91-1.49-4.62-3-9.24-4.48-13.85-.06-.2-.29-.35-.57-.65-.82,2.58-1.6,5-2.38,7.44q-2.75,8.51-5.46,17a1.28,1.28,0,0,1-1.5,1c-1.6-.08-3.2-.05-4.8,0a1.21,1.21,0,0,1-1.42-1q-3.48-11-7-22c-1.2-3.73-2.44-7.44-3.65-11.17C556.17,118.78,556.16,118.58,556.09,118.22Z"/><path class="cls-4" d="M546.8,153.13v-4.4L545.61,150c-3.81,4.26-8.6,5.16-13.89,3.75-4.78-1.27-8.13-4.21-9.18-9.21a10.85,10.85,0,0,1,6.83-12.8c5-2.09,10.22-1.86,15.4-.47.31.09.59.28.89.4s.6.23,1.05.39a6.84,6.84,0,0,0-1.53-5.47c-3.66-4.66-11.09-4.34-14.65,0-1.07,1.3-1.08,1.29-2.52.37-1.28-.81-2.56-1.62-3.86-2.39-.71-.43-.73-.82-.22-1.46a15.46,15.46,0,0,1,10.36-5.93,19.69,19.69,0,0,1,12.17,1.72,11.71,11.71,0,0,1,6.36,8,25.11,25.11,0,0,1,.61,5.33c.07,6.52,0,13,.05,19.55,0,1.08-.27,1.43-1.37,1.37C550.4,153.06,548.68,153.13,546.8,153.13Zm-10.38-4.85a11.27,11.27,0,0,0,10.32-8.84,1.44,1.44,0,0,0-.75-1.71c-2.44-1.51-5.14-1.73-7.9-1.73a10.42,10.42,0,0,0-5.79,1.67c-3.73,2.43-3.72,7.07.14,9.28A20.9,20.9,0,0,0,536.42,148.28Z"/><path class="cls-4" d="M460.23,153.06h-6.56v-4.37c-.42.46-.58.62-.72.79-3.83,4.66-8.77,5.78-14.38,4.28-4.68-1.25-8-4.1-9.12-9a10.83,10.83,0,0,1,6.83-13,22.42,22.42,0,0,1,16.53,0l.57.18s.08,0,.12,0c.63-3.26-1.76-7-5.32-8.12a9.72,9.72,0,0,0-11,3.11c-.62.78-1.09.9-1.91.33-1.38-1-2.82-1.82-4.25-2.7-.64-.39-.71-.76-.23-1.38a15.76,15.76,0,0,1,10.34-6,21.34,21.34,0,0,1,9.48.58c4.62,1.36,7.87,4.33,9.11,9.1a22.14,22.14,0,0,1,.61,5.2c.07,6.65,0,13.29,0,19.94C460.31,152.32,460.27,152.64,460.23,153.06Zm-17.08-4.85c1.39-.29,2.47-.46,3.53-.75,3.17-.86,6.55-4.88,6.92-8.11a1.51,1.51,0,0,0-.85-1.69c-2.55-1.5-5.33-1.71-8.18-1.65a10.1,10.1,0,0,0-5.43,1.68c-3.8,2.5-3.69,7.17.31,9.34A19.25,19.25,0,0,0,443.15,148.21Z"/><path class="cls-4" d="M504.6,116.86c4.72.24,9.18,1.72,12.27,6,1.67,2.31,1.64,2.38-.93,3.43-1,.41-2.05.81-3.05,1.27a1,1,0,0,1-1.45-.42c-2.26-3.58-5.75-4.23-9.55-3.72a7.1,7.1,0,0,0-3.23,1.66c-1.77,1.45-1.48,3.76.65,4.82a29.1,29.1,0,0,0,5.05,1.79c3.48,1,7.07,1.64,10.2,3.7,5.44,3.58,5.44,12-.06,15.92-6.38,4.57-16.91,4.18-22.43-2.5a23.68,23.68,0,0,1-2.4-4,1.22,1.22,0,0,1,.42-1.1c1.51-.72,3.09-1.29,4.62-2,.82-.38,1.14.1,1.4.68a9.52,9.52,0,0,0,3.88,4.32,9,9,0,0,0,9.66-.16c2.48-1.47,2.45-4.25.11-5.93-2-1.43-4.34-1.83-6.63-2.42a30.38,30.38,0,0,1-8.58-3.16c-5.83-3.6-5.28-12.26.25-15.65A19.52,19.52,0,0,1,504.6,116.86Z"/><path class="cls-4" d="M467.42,153.13V118.25H474v4.32l.3.1c.25-.34.47-.69.74-1,2.64-3,5.86-4.81,10-4.48a25.48,25.48,0,0,1,3.48.56,1.09,1.09,0,0,1,.53.91c-.47,1.78-1,3.54-1.61,5.26a1.26,1.26,0,0,1-1.09.52c-4.94-1.09-9.21.88-11.16,5.52a14.51,14.51,0,0,0-.91,5.25c-.11,5.53-.06,11.07,0,16.6,0,1-.19,1.4-1.27,1.34C471.18,153.06,469.37,153.13,467.42,153.13Z"/><path class="cls-5" d="M22.28,116.69l-.64.27Z"/><path class="cls-6" d="M149.85,138.37l.62-.26Z"/></g></svg>