<svg xmlns="http://www.w3.org/2000/svg" viewBox="0 0 623.62 255.12"><defs><style>.cls-1{fill:#fff;}.cls-2{fill:#109d58;}.cls-3{fill:#4285f3;}.cls-4{fill:#e94336;}.cls-5{fill:#fabb05;}.cls-6{fill:#767676;}</style></defs><g id="BG"><rect class="cls-1" width="623.62" height="255.12"/></g><g id="Logo"><path class="cls-2" d="M122,127.6c-1-.61-2-1.24-3-1.81-6.44-3.64-12.9-7.25-19.34-10.9-5.43-3.09-7.44-9-5.06-14.3a11.6,11.6,0,0,1,16.52-4.83c10.18,5.81,20.42,11.54,30.63,17.31,2.82,1.59,5.66,3.14,8.45,4.77,6.55,3.8,7.91,12.19,2.72,17.32-1.28,1.27-3.06,2-4.6,3a1.92,1.92,0,0,0-.48,0,12,12,0,0,1-9.54-1.55c-2.28-1.31-4.57-2.59-6.87-3.86C128.25,131,125.1,129.33,122,127.6Z"/><path class="cls-3" d="M48.31,127.53l12.75,7.26c3.24,1.84,6.5,3.63,9.73,5.49,6.54,3.78,7.81,11.8,2.76,17.26a11.11,11.11,0,0,1-13.06,2.33c-5.37-2.8-10.62-5.86-15.91-8.83q-12.12-6.79-24.22-13.63c-4-2.22-6.18-5.52-6.19-10.11A11.24,11.24,0,0,1,21.62,117c.15-.06.28-.15.42-.22a7.74,7.74,0,0,0,1.08-.09A11.26,11.26,0,0,1,31.19,118c1.89,1.07,3.8,2.13,5.7,3.19Z"/><path class="cls-4" d="M48.31,127.53l-11.42-6.35c-1.9-1.06-3.81-2.12-5.7-3.19a11.26,11.26,0,0,0-8.07-1.26,7.74,7.74,0,0,1-1.08.09c2.34-1.36,4.67-2.74,7-4.07q15.06-8.5,30.12-17c6.13-3.45,13.37-1.42,16.33,4.55a10.6,10.6,0,0,1-3.82,13.86c-4.84,3-9.89,5.68-14.84,8.5Z"/><path class="cls-5" d="M122,127.6c3.15,1.73,6.3,3.44,9.44,5.19,2.3,1.27,4.59,2.55,6.87,3.86a12,12,0,0,0,9.54,1.55,1.92,1.92,0,0,1,.48,0c-3.86,2.2-7.71,4.42-11.58,6.61q-12.78,7.22-25.59,14.4c-5.15,2.89-10.47,2.32-14.31-1.49a10.87,10.87,0,0,1,2.32-17.24C106.69,136.1,114.34,131.88,122,127.6Z"/><path class="cls-6" d="M335.85,108.88l-4.61,4.62a16.47,16.47,0,0,0-9.13-5.26c-13-2.85-23.35,6.2-24,17.73-.33,5.87,1,11.15,5.05,15.6,7.38,8.15,21.3,8.29,28.51.23a16.68,16.68,0,0,0,4-9.78h-1.37c-5.23,0-10.46,0-15.68,0-.92,0-1.21-.25-1.17-1.16.07-1.57,0-3.15,0-4.8h24.32a25,25,0,0,1-.2,9.52c-1.89,10.2-11.4,17.76-22.05,18.19-5.7.23-11.07-.64-15.9-3.79-7.21-4.71-11.42-11.28-12.07-20-.57-7.59,1.39-14.35,6.61-20,6.31-6.83,14.2-9.33,23.31-8.16a23.65,23.65,0,0,1,12.28,5.09C334.51,107.55,335.18,108.25,335.85,108.88Z"/><path class="cls-6" d="M231.53,108.77,227,113.33a39.53,39.53,0,0,0-5-3.46c-11.27-5.62-25.45,0-28,13.51-1.67,8.73,1.23,17.05,9.27,21.84,7.62,4.53,18.91,2.81,24.22-3.71a16.86,16.86,0,0,0,3.68-9.49h-18v-5.93h24.29c.78,7.71-.46,14.74-6.13,20.5a24,24,0,0,1-16.6,7.2c-6.07.3-11.69-.95-16.64-4.52A25.3,25.3,0,0,1,187,128.07c-.16-11.53,6.46-21.5,17.44-25.1,8.72-2.85,17.11-1.74,24.67,3.82.45.33.83.76,1.27,1.12S231.14,108.49,231.53,108.77Z"/><path class="cls-6" d="M245.53,152.77v-50a5.29,5.29,0,0,1,.73-.1c5.55,0,11.11-.12,16.65.09,7.93.3,14.47,3.5,19.11,10.11a23.6,23.6,0,0,1,4.09,11.78c.48,5.58-.11,11-2.9,16a22.26,22.26,0,0,1-18,11.79c-4.78.47-9.63.25-14.44.33C249,152.79,247.33,152.77,245.53,152.77Zm6.49-6.11c5-.08,10,.44,14.79-.77a15.69,15.69,0,0,0,11.54-10.13,23.49,23.49,0,0,0,1.06-11.84c-1-6.54-4.32-11.31-10.66-13.72-5.43-2.07-11.09-1.14-16.73-1.4Z"/><path class="cls-6" d="M397.76,143.22q2-5.64,4-11.29,4.92-14,9.82-28a1.55,1.55,0,0,1,1.81-1.25c1.85.09,3.71,0,5.75,0-.33,1-.59,1.8-.89,2.61q-8.39,23.08-16.74,46.16a1.69,1.69,0,0,1-2,1.35c-1.73-.11-3.48,0-5.27,0-5.87-16.65-11.71-33.26-17.64-50.08,2.35,0,4.56,0,6.75,0,.27,0,.62.64.76,1.05q5.67,16.69,11.3,33.41,1,3,2,6Z"/><path class="cls-6" d="M521.34,141.87,527,144.6a15.82,15.82,0,0,1-6.26,6.74c-7.55,4.49-19.07,3.49-24.44-6.21-4.06-7.34-3.17-19.11,5.3-25,7.37-5.16,22.62-4,25.42,10.27.4,2,.5,4.14.75,6.37H500.82c-.6,2.92,1.26,8.11,6.29,10.31C511.1,148.79,517.17,148.75,521.34,141.87Zm-.75-10.41c-.12-4.78-4.16-8.15-9.72-8.22-4.75-.07-9.42,3.89-9.61,8.22Z"/><path class="cls-6" d="M445.81,141.85l4.87,2.37c.25.12.47.28.79.47a16.63,16.63,0,0,1-10.26,8.4c-7.93,2.24-16.19-.17-20.5-8.08-4.22-7.74-3-20.61,7-25.85,8-4.18,21.48-1.92,23.91,11.61.34,1.92.43,3.89.65,6h-27c-.67,3.65,2,8.1,6,10.13a10.51,10.51,0,0,0,8.26.54C442.39,146.48,444.24,144.36,445.81,141.85Zm-.66-10.38c-.26-4.71-4.07-8.21-9.79-8.23a9.64,9.64,0,0,0-9.67,8.23Z"/><path class="cls-6" d="M585.83,127.56l-5.5-3.4a12.34,12.34,0,0,1,5.85-5.14,19,19,0,0,1,16,0c4.28,2,6.91,5.5,7.1,10.12.32,7.79.09,15.6.09,23.5h-6v-4.44l-.27-.13c-.31.37-.63.73-.92,1.11-5.42,7.1-16.81,5.56-21.16-.86a11,11,0,0,1,5.91-16.71,21.91,21.91,0,0,1,15.42.51c.3.12.59.22.91.33a7.78,7.78,0,0,0-4.59-8.35C594.4,122,590.5,123.05,585.83,127.56Zm9.51,8.22a6,6,0,0,0-1.7,0,27,27,0,0,0-5.18,1.84,5,5,0,0,0-2.58,5.45c.37,2.41,2.07,3.78,4.24,4.54,5.73,2,12.77-2.7,13.14-8.78a1.6,1.6,0,0,0-.66-1.19A12.29,12.29,0,0,0,595.34,135.78Z"/><path class="cls-6" d="M488.22,152.73H482V151.4c0-6.19,0-12.38,0-18.58a18.15,18.15,0,0,0-.28-3.38c-.84-4.19-3.8-6.32-8.41-6.14a8.88,8.88,0,0,0-8.25,6.87,18.43,18.43,0,0,0-.53,4.31c-.06,5.59,0,11.18,0,16.76v1.43H458V118.59h6.14v4.72c.75-.85,1.27-1.5,1.85-2.08C470.6,116.58,479,116,484,120a11.74,11.74,0,0,1,4.29,9.3c.16,7.69.07,15.38.07,23.07A1.45,1.45,0,0,1,488.22,152.73Z"/><path class="cls-6" d="M558.86,118.58c0,1.74,0,3.4,0,5a2.28,2.28,0,0,1-.63,1.23q-9.06,10.63-18.16,21.23c-.17.2-.33.42-.62.8h19.63v5.81H531.42c0-1.74-.07-3.51,0-5.26,0-.48.57-.95.93-1.38l17.77-20.76c.2-.24.38-.51.69-.91H532.12v-5.81Z"/><path class="cls-6" d="M572.91,152.73h-6.22V118.59h6.22Z"/><path class="cls-6" d="M569.75,111.22a4.56,4.56,0,1,1,4.62-4.5A4.62,4.62,0,0,1,569.75,111.22Z"/></g></svg>