<svg xmlns="http://www.w3.org/2000/svg" viewBox="0 0 623.62 255.12"><defs><style>.cls-1{fill:#fff;}.cls-2{fill:#e03920;}.cls-3{fill:#5a79ba;}.cls-4{fill:#f5bf00;}.cls-5{fill:#209640;}.cls-6,.cls-7{fill:#575756;}.cls-6{stroke:#575756;stroke-miterlimit:10;stroke-width:3px;}</style></defs><g id="BG"><rect class="cls-1" width="623.62" height="255.12"/></g><g id="Logo"><path class="cls-2" d="M47.9,130l23.62-13.64A11.62,11.62,0,1,0,59.9,96.2L19.08,119.76Z"/><path class="cls-3" d="M65.7,165a11.62,11.62,0,0,0,5.82-21.69L30.7,119.76c-5.56-3.21-11.38-1.3-14.59,4.26s-2.59,12.67,3,15.88L59.9,163.46A11.54,11.54,0,0,0,65.7,165Z"/><path class="cls-4" d="M106.3,165a11.54,11.54,0,0,0,5.8-1.56l42.11-23.56-29.74-10.42-24,13.85A11.62,11.62,0,0,0,106.3,165Z"/><path class="cls-5" d="M147.1,141.46c4,0,9.21-2.09,11.36-5.82a11.62,11.62,0,0,0-4.25-15.88L112.1,96.2a11.62,11.62,0,0,0-11.62,20.13L141.3,139.9A11.64,11.64,0,0,0,147.1,141.46Z"/><path class="cls-6" d="M255.18,130q0,15.45-9.17,24.63-10.41,10.92-27.1,10.92a37.11,37.11,0,0,1-27.15-11.08Q180.57,143.38,180.58,127t11.18-27.46a37.11,37.11,0,0,1,27.15-11.08,38.09,38.09,0,0,1,15.15,3.09,30.41,30.41,0,0,1,11.54,8.25l-6.5,6.49q-7.31-8.76-20.19-8.76a28.06,28.06,0,0,0-20.15,8.19q-8.49,8.19-8.5,21.28t8.5,21.28a28.06,28.06,0,0,0,20.15,8.19q12.36,0,20.61-8.24,5.35-5.35,6.18-14.94H218.91v-8.87h35.75A31.14,31.14,0,0,1,255.18,130Z"/><path class="cls-6" d="M266.72,163.88V90.1h22.57q17,0,27.2,10.25T326.69,127q0,16.38-10.2,26.64t-27.2,10.25Zm9.48-9.07h13.09q12.76,0,20.25-7.32T317,127q0-13.08-7.47-20.46t-20.25-7.36H276.2Z"/><path class="cls-6" d="M408.92,130q0,15.45-9.17,24.63-10.41,10.92-27.1,10.92a37.11,37.11,0,0,1-27.15-11.08Q334.31,143.38,334.32,127T345.5,99.53a37.11,37.11,0,0,1,27.15-11.08,38.09,38.09,0,0,1,15.15,3.09,30.33,30.33,0,0,1,11.54,8.25l-6.49,6.49q-7.32-8.76-20.2-8.76a28,28,0,0,0-20.14,8.19Q344,113.9,344,127t8.51,21.28a28,28,0,0,0,20.14,8.19q12.36,0,20.61-8.24,5.36-5.35,6.18-14.94H372.65v-8.87h35.76A32.05,32.05,0,0,1,408.92,130Z"/><path class="cls-7" d="M451.33,165,425.62,91.24H436l20,59.87h.41l20.81-59.87h10.4L461.12,165Z"/><path class="cls-7" d="M510.39,166.67q-9.69,0-16.73-7.73t-7-19.17q0-11.43,7-19.16t16.73-7.73a21.1,21.1,0,0,1,10.26,2.47,17.43,17.43,0,0,1,6.78,6.19h.41l-.41-7V91.24h9.39V165h-9v-7h-.41a17.43,17.43,0,0,1-6.78,6.19A21.21,21.21,0,0,1,510.39,166.67Zm1.53-8.66a14.89,14.89,0,0,0,11.28-4.94q4.63-4.95,4.64-13.3t-4.64-13.29a15.23,15.23,0,0,0-22.5,0q-4.69,5-4.69,13.24T500.7,153A14.87,14.87,0,0,0,511.92,158Z"/><path class="cls-7" d="M543.75,165l27.54-73.78h10.62L609.45,165H599l-7-20H561.3l-7.14,20Zm20.71-28.85h24.28L576.8,102.88h-.4Z"/></g></svg>