<svg xmlns="http://www.w3.org/2000/svg" viewBox="0 0 623.62 255.12"><defs><style>.cls-1{fill:#fff;}.cls-2{fill:#e94335;}.cls-3{fill:#4284f3;}.cls-4{fill:#fbbb04;}.cls-5{fill:#0f9d58;}.cls-6{fill:#676c72;}.cls-7{fill:#5f6367;}</style></defs><g id="BG"><rect class="cls-1" width="623.62" height="255.12"/></g><g id="Logo"><g id="Livello_1"><path class="cls-2" d="M48.25,127.69l23.27-13.42A11.44,11.44,0,1,0,60.07,94.46l-40.18,23.2Z"/><path class="cls-3" d="M65.78,162.2a11.45,11.45,0,0,0,5.74-21.36L31.34,117.66a11.44,11.44,0,1,0-11.45,19.81l40.18,23.18A11.35,11.35,0,0,0,65.78,162.2Z"/><path class="cls-4" d="M105.74,162.2a11.41,11.41,0,0,0,5.71-1.55l40.18-23.18-28-10.25L100,140.84a11.45,11.45,0,0,0,5.73,21.36Z"/><path class="cls-5" d="M145.9,139a11.44,11.44,0,0,0,5.73-21.34l-40.18-23.2A11.44,11.44,0,1,0,100,114.27l40.18,23.2A11.33,11.33,0,0,0,145.9,139Z"/><path class="cls-6" d="M202.77,150.53a25.65,25.65,0,0,1-9.52-9.52,27.27,27.27,0,0,1,0-26.8,25.92,25.92,0,0,1,22.64-13,28.07,28.07,0,0,1,10.48,2,21,21,0,0,1,8.08,5.58l-4.3,4.3a15.49,15.49,0,0,0-6.15-4.54,20.81,20.81,0,0,0-18,1,19.61,19.61,0,0,0-7.4,7.29,22.4,22.4,0,0,0,0,21.65,19.56,19.56,0,0,0,7.44,7.26,21.92,21.92,0,0,0,18.44,1,18.86,18.86,0,0,0,5.89-4.2,15.51,15.51,0,0,0,3-4.76,21.52,21.52,0,0,0,1.41-6.18H216V126h24.28a22.84,22.84,0,0,1,.36,3.68,28.55,28.55,0,0,1-1.49,9.07,20.06,20.06,0,0,1-4.73,7.73q-7,7.53-18.56,7.55A25.58,25.58,0,0,1,202.77,150.53Z"/><path class="cls-6" d="M248.13,102.36h15.25a27.48,27.48,0,0,1,13.55,3.21,22.08,22.08,0,0,1,8.87,8.92,29.31,29.31,0,0,1,0,26.24,21.94,21.94,0,0,1-8.87,8.94,27.81,27.81,0,0,1-13.55,3.21H248.13Zm15.25,44.79h0q8.92,0,14.21-5.14c3.5-3.43,5.25-8.24,5.25-14.39s-1.75-11-5.25-14.39-8.26-5.16-14.21-5.16h-9.32v39.08Z"/><path class="cls-6" d="M306.9,150.53a25.51,25.51,0,0,1-9.52-9.52,27.13,27.13,0,0,1,0-26.8,25.92,25.92,0,0,1,22.65-13,28.2,28.2,0,0,1,10.47,2,21.35,21.35,0,0,1,8.08,5.58l-4.32,4.3a15.29,15.29,0,0,0-6.13-4.54,20.81,20.81,0,0,0-18,1,19.66,19.66,0,0,0-7.42,7.29,22.47,22.47,0,0,0,0,21.65,19.56,19.56,0,0,0,7.44,7.26,20.24,20.24,0,0,0,10,2.56,20,20,0,0,0,8.5-1.57,19,19,0,0,0,5.89-4.2,15.33,15.33,0,0,0,3-4.76,20.57,20.57,0,0,0,1.39-6.18H320.16V126h24.26a19.87,19.87,0,0,1,.36,3.68,28,28,0,0,1-1.49,9.07,20,20,0,0,1-4.71,7.73Q331.58,154,320,154A25.57,25.57,0,0,1,306.9,150.53Z"/><path class="cls-7" d="M393,154a26.17,26.17,0,0,1-13.28-3.41,25.4,25.4,0,0,1-9.43-9.43,27.44,27.44,0,0,1,0-26.57,25.52,25.52,0,0,1,9.43-9.45A26.17,26.17,0,0,1,393,101.72a25.2,25.2,0,0,1,10.34,2.08,24.66,24.66,0,0,1,8.17,6.09l-5.58,5.38a18.5,18.5,0,0,0-5.73-4.61,17,17,0,0,0-7.2-1.46,18.22,18.22,0,0,0-9.16,2.3,17,17,0,0,0-6.64,6.49,19.73,19.73,0,0,0-2.44,9.87,19.3,19.3,0,0,0,2.44,9.79,16.73,16.73,0,0,0,6.64,6.55,18.24,18.24,0,0,0,9.16,2.33q8.37,0,14.26-7l5.67,5.45a25.47,25.47,0,0,1-8.75,6.64A25.87,25.87,0,0,1,393,154Z"/><path class="cls-7" d="M430.16,154a14.68,14.68,0,0,1-6.84-1.53,10.61,10.61,0,0,1-4.69-4.27A11.72,11.72,0,0,1,417,142a10.42,10.42,0,0,1,4.18-8.73c2.72-2.17,6.22-3.21,10.49-3.21a26.89,26.89,0,0,1,5.65.56,20.67,20.67,0,0,1,4,1.32V130.1a6.85,6.85,0,0,0-2.43-5.38,9.58,9.58,0,0,0-6.29-2,11.56,11.56,0,0,0-5.11,1.2,10,10,0,0,0-3.92,3.28L418.14,123a16.4,16.4,0,0,1,6.15-5.12,19.75,19.75,0,0,1,8.39-1.81q7.77,0,12,3.78c2.79,2.59,4.18,6.16,4.18,10.76v22.23h-7.55v-4.27h-.33a12.28,12.28,0,0,1-4.34,3.85A12.94,12.94,0,0,1,430.16,154Zm1.33-6.36a9.41,9.41,0,0,0,5.05-1.33,10.08,10.08,0,0,0,3.49-3.56,9.73,9.73,0,0,0,1.24-4.83,14.21,14.21,0,0,0-3.69-1.46,19.15,19.15,0,0,0-4.48-.55c-2.85,0-5,.55-6.35,1.68a5.72,5.72,0,0,0-2,4.47,5.06,5.06,0,0,0,1.89,4A7.41,7.41,0,0,0,431.49,147.63Z"/><path class="cls-7" d="M471.14,153.43a13,13,0,0,1-4.5-.77,9.68,9.68,0,0,1-3.41-2,11,11,0,0,1-3-8.17V124H454v-6.77h6.22V107.17h7.68v10.07h8.68V124H467.9v16.78c0,1.88.36,3.28,1.13,4.05a4.27,4.27,0,0,0,3.63,1.4,6.44,6.44,0,0,0,2.11-.36,6.76,6.76,0,0,0,1.94-1v7.48A13.61,13.61,0,0,1,471.14,153.43Z"/><path class="cls-7" d="M494.4,154a14.57,14.57,0,0,1-6.84-1.53,10.56,10.56,0,0,1-4.69-4.27,11.55,11.55,0,0,1-1.68-6.22,10.39,10.39,0,0,1,4.2-8.73c2.73-2.17,6.22-3.21,10.47-3.21a27,27,0,0,1,5.67.56,20.67,20.67,0,0,1,4,1.32V130.1a6.86,6.86,0,0,0-2.45-5.38,9.54,9.54,0,0,0-6.29-2,11.41,11.41,0,0,0-5.09,1.2,9.75,9.75,0,0,0-3.92,3.28L482.38,123a16.21,16.21,0,0,1,6.16-5.12,19.62,19.62,0,0,1,8.39-1.81q7.72,0,11.95,3.78c2.79,2.59,4.18,6.16,4.18,10.76v22.23h-7.55v-4.27h-.35a11.86,11.86,0,0,1-4.34,3.85A12.92,12.92,0,0,1,494.4,154Zm1.33-6.36a9.34,9.34,0,0,0,5-1.33,9.92,9.92,0,0,0,3.49-3.56,9.54,9.54,0,0,0,1.26-4.83,14.21,14.21,0,0,0-3.69-1.46,19.33,19.33,0,0,0-4.47-.55c-2.88,0-5.05.55-6.38,1.68a5.69,5.69,0,0,0-2,4.47,5,5,0,0,0,1.88,4A7.37,7.37,0,0,0,495.73,147.63Zm25.72-30.39h7.33v4.67h.36a12.16,12.16,0,0,1,4.62-4.18,13.42,13.42,0,0,1,6.42-1.62c4.34,0,7.62,1.26,9.92,3.78s3.36,6,3.36,10.41v22.58h-7.68V131.36c0-2.81-.71-4.82-2-6.15a8.86,8.86,0,0,0-10.34-.58,10.12,10.12,0,0,0-3.15,3.85,11.61,11.61,0,0,0-1.12,5.12v19.28h-7.69Zm45.07-5.18a5.21,5.21,0,0,1-5.15-5.18,5.09,5.09,0,0,1,5.15-5.16,5.22,5.22,0,0,1,3.72,1.46,5.16,5.16,0,0,1,1.47,3.7,5,5,0,0,1-1.47,3.65A5,5,0,0,1,566.52,112.06Zm-3.82,5.18h7.68v35.64H562.7Z"/><path class="cls-7" d="M590.79,154a14.75,14.75,0,0,1-6.87-1.53,10.62,10.62,0,0,1-4.67-4.27,11.55,11.55,0,0,1-1.68-6.22,10.4,10.4,0,0,1,4.21-8.73c2.72-2.17,6.22-3.21,10.47-3.21a27.16,27.16,0,0,1,5.67.56,20.67,20.67,0,0,1,4,1.32V130.1a6.84,6.84,0,0,0-2.46-5.38,9.5,9.5,0,0,0-6.28-2,11.45,11.45,0,0,0-5.1,1.2,9.72,9.72,0,0,0-3.91,3.28L578.77,123a16.17,16.17,0,0,1,6.15-5.12,19.62,19.62,0,0,1,8.39-1.81q7.74,0,11.93,3.78c2.81,2.59,4.21,6.16,4.21,10.76v22.23H601.9v-4.27h-.35a11.94,11.94,0,0,1-4.34,3.85A13,13,0,0,1,590.79,154Zm1.33-6.36a9.29,9.29,0,0,0,5-1.33,10.11,10.11,0,0,0,3.5-3.56,9.54,9.54,0,0,0,1.26-4.83,14.14,14.14,0,0,0-3.7-1.46,19.23,19.23,0,0,0-4.49-.55c-2.86,0-5,.55-6.35,1.68a5.7,5.7,0,0,0-2,4.47,5,5,0,0,0,1.88,4A7.4,7.4,0,0,0,592.12,147.63Z"/></g></g></svg>