<svg xmlns="http://www.w3.org/2000/svg" viewBox="0 0 623.62 255.12"><defs><style>.cls-1{fill:#fff;}.cls-2{fill:#e03920;}.cls-3{fill:#5a79ba;}.cls-4{fill:#f5bf00;}.cls-5{fill:#209640;}.cls-6,.cls-7{fill:#575756;}.cls-6{stroke:#575756;stroke-miterlimit:10;stroke-width:3px;}</style></defs><g id="BG"><rect class="cls-1" width="623.62" height="255.12"/></g><g id="Logo"><path class="cls-2" d="M48.64,124.18l24.14-13.94A11.88,11.88,0,1,0,60.9,89.67L19.19,113.75Z"/><path class="cls-3" d="M66.83,160a11.88,11.88,0,0,0,6-22.17L31.07,113.75c-5.69-3.28-11.63-1.33-14.91,4.35s-2.65,12.94,3,16.22L60.9,158.4A11.82,11.82,0,0,0,66.83,160Z"/><path class="cls-4" d="M108.32,160a11.82,11.82,0,0,0,5.93-1.6l43-24.08-30.4-10.64-24.51,14.15A11.88,11.88,0,0,0,108.32,160Z"/><path class="cls-5" d="M150,135.91c4.1,0,9.41-2.12,11.61-5.94a11.87,11.87,0,0,0-4.34-16.22l-43-24.08a11.88,11.88,0,1,0-11.88,20.57l41.71,24.08A11.81,11.81,0,0,0,150,135.91Z"/><path class="cls-6" d="M260.46,124.19q0,15.8-9.38,25.16-10.64,11.18-27.69,11.17a38,38,0,0,1-27.75-11.32q-11.41-11.32-11.42-28.07t11.42-28.06a38,38,0,0,1,27.75-11.32,38.8,38.8,0,0,1,15.48,3.16,30.9,30.9,0,0,1,11.79,8.42L244,100q-7.49-9-20.64-9a28.7,28.7,0,0,0-20.59,8.37q-8.69,8.37-8.68,21.74t8.68,21.75a28.7,28.7,0,0,0,20.59,8.37q12.63,0,21.06-8.43c3.65-3.64,5.76-8.74,6.32-15.26H223.39V118.5h36.54A32.49,32.49,0,0,1,260.46,124.19Z"/><path class="cls-6" d="M272.25,158.83V83.43h23.06q17.37,0,27.8,10.48t10.43,27.22q0,16.74-10.43,27.22t-27.8,10.48Zm9.69-9.27h13.37q13.06,0,20.69-7.47t7.64-21q0-13.36-7.64-20.9T295.31,92.7H281.94Z"/><path class="cls-6" d="M417.57,124.19q0,15.8-9.38,25.16-10.63,11.18-27.69,11.17a38,38,0,0,1-27.75-11.32q-11.43-11.32-11.42-28.07t11.42-28.06A38,38,0,0,1,380.5,81.75,38.83,38.83,0,0,1,396,84.91a30.9,30.9,0,0,1,11.79,8.42L401.14,100q-7.49-9-20.64-9a28.7,28.7,0,0,0-20.59,8.37q-8.69,8.37-8.68,21.74t8.68,21.75a28.7,28.7,0,0,0,20.59,8.37q12.63,0,21.06-8.43c3.65-3.64,5.76-8.74,6.32-15.26H380.5V118.5H417A32.49,32.49,0,0,1,417.57,124.19Z"/><path class="cls-7" d="M440.88,160V84.6h27a21.79,21.79,0,0,1,15.17,5.84,19,19,0,0,1,6.41,14.69,16.6,16.6,0,0,1-2.76,9.48,17.38,17.38,0,0,1-7.35,6.21v.43a18.92,18.92,0,0,1,9.07,6.52A17.21,17.21,0,0,1,492,138.52a19.89,19.89,0,0,1-6.72,15.37,22.87,22.87,0,0,1-15.9,6.11Zm9.59-43.07h17.41a11.17,11.17,0,0,0,8.71-3.63,11.34,11.34,0,0,0,.1-15.85,10.67,10.67,0,0,0-8.39-3.58H450.47Zm0,33.8h19.29a11.41,11.41,0,0,0,9-3.9,12.62,12.62,0,0,0,3.44-8.53,12.26,12.26,0,0,0-3.55-8.47,12,12,0,0,0-9.28-3.85H450.47Z"/><path class="cls-7" d="M517.3,161.68a20.06,20.06,0,0,1-13.61-4.74,15.75,15.75,0,0,1-5.47-12.53,15.53,15.53,0,0,1,6.46-13.21q6.46-4.8,15.95-4.79,8.45,0,13.87,3.15v-1.47a11.59,11.59,0,0,0-3.86-9.11,13.78,13.78,0,0,0-9.49-3.42,14.57,14.57,0,0,0-7.55,2A10.25,10.25,0,0,0,509,123l-8.76-3.8a20.13,20.13,0,0,1,7-8.58q5.22-3.94,13.77-4,9.79,0,16.26,5.8t6.46,16.32V160H534.5v-7.16h-.42Q528.35,161.67,517.3,161.68Zm1.56-8.84a15.52,15.52,0,0,0,10.79-4.48,14,14,0,0,0,4.85-10.58q-4.07-3.37-12.2-3.37-7,0-10.53,3.05a9.21,9.21,0,0,0-3.54,7.16,6.89,6.89,0,0,0,3.23,6A12.74,12.74,0,0,0,518.86,152.84Z"/><path class="cls-7" d="M564.1,160h-9.59V108.4h9.18v8.42h.41a13.24,13.24,0,0,1,6-6.95,17.06,17.06,0,0,1,8.81-2.73,18.15,18.15,0,0,1,7.19,1.26l-3.65,9a14.38,14.38,0,0,0-5.11-.73,12.44,12.44,0,0,0-9.22,4.16,15,15,0,0,0-4,10.9Z"/><path class="cls-7" d="M602.78,95.45a6.75,6.75,0,0,1-9.59,0,6.92,6.92,0,0,1,0-9.69,6.75,6.75,0,0,1,9.59,0,6.92,6.92,0,0,1,0,9.69Zm0,64.55h-9.59V108.4h9.59Z"/></g></svg>