<svg xmlns="http://www.w3.org/2000/svg" viewBox="0 0 623.62 255.12"><defs><style>.cls-1{fill:#fff;}.cls-2{fill:#e03920;}.cls-3{fill:#5a79ba;}.cls-4{fill:#f5bf00;}.cls-5{fill:#209640;}.cls-6,.cls-7{fill:#575756;}.cls-6{stroke:#575756;stroke-miterlimit:10;stroke-width:3px;}</style></defs><g id="BG"><rect class="cls-1" width="623.62" height="255.12"/></g><g id="Logo"><path class="cls-2" d="M33.75,122.82l14.17-8.17a7,7,0,0,0-7-12.08L16.47,116.71Z"/><path class="cls-3" d="M44.43,143.85a7,7,0,0,0,3.49-13L23.44,116.71c-3.33-1.93-6.82-.79-8.75,2.55s-1.55,7.59,1.78,9.52L41,142.91A7,7,0,0,0,44.43,143.85Z"/><path class="cls-4" d="M68.78,143.85a7,7,0,0,0,3.48-.94l25.25-14.13-17.84-6.25-14.38,8.31a7,7,0,0,0,3.49,13Z"/><path class="cls-5" d="M93.24,129.71c2.41,0,5.53-1.25,6.82-3.48a7,7,0,0,0-2.55-9.52L72.26,102.57a7,7,0,0,0-7,12.08l24.48,14.13A6.93,6.93,0,0,0,93.24,129.71Z"/><path class="cls-6" d="M158.06,122.83q0,9.27-5.5,14.77-6.24,6.56-16.25,6.55a22.79,22.79,0,0,1-23-23.11,22.79,22.79,0,0,1,23-23.11,22.72,22.72,0,0,1,9.08,1.85,18.19,18.19,0,0,1,6.92,4.94l-3.89,3.9q-4.38-5.25-12.11-5.26A17.12,17.12,0,0,0,119.13,121a17.4,17.4,0,0,0,29.54,12.73q3.21-3.21,3.71-9H136.31v-5.32h21.44A18.71,18.71,0,0,1,158.06,122.83Z"/><path class="cls-6" d="M165,143.16V98.92h13.54q10.18,0,16.31,6.14T201,121q0,9.83-6.12,16t-16.31,6.15Zm5.69-5.44h7.85q7.65,0,12.14-4.38t4.48-12.3q0-7.85-4.48-12.27t-12.14-4.42h-7.85Z"/><path class="cls-6" d="M250.26,122.83q0,9.27-5.5,14.77-6.24,6.56-16.25,6.55a22.79,22.79,0,0,1-23-23.11,22.79,22.79,0,0,1,23-23.11,22.72,22.72,0,0,1,9.08,1.85,18.3,18.3,0,0,1,6.93,4.94l-3.9,3.9q-4.38-5.25-12.11-5.26A17.12,17.12,0,0,0,211.33,121a17.4,17.4,0,0,0,29.54,12.73q3.21-3.21,3.71-9H228.51v-5.32H250A18.71,18.71,0,0,1,250.26,122.83Z"/><path class="cls-7" d="M284.56,144.83a21.89,21.89,0,0,1-16.21-6.61,24.06,24.06,0,0,1,0-33,21.93,21.93,0,0,1,16.21-6.61,20.16,20.16,0,0,1,16.09,7.23l-3.91,3.83a14.72,14.72,0,0,0-12.18-5.62,16.51,16.51,0,0,0-12.08,4.88q-4.92,4.89-4.92,12.79t4.92,12.79a16.48,16.48,0,0,0,12.08,4.89A17.22,17.22,0,0,0,298,133l3.92,3.95a21.27,21.27,0,0,1-7.53,5.78A22.85,22.85,0,0,1,284.56,144.83Z"/><path class="cls-7" d="M315.82,144.83a11.72,11.72,0,0,1-8-2.78,9.24,9.24,0,0,1-3.21-7.35,9.12,9.12,0,0,1,3.79-7.76,15.31,15.31,0,0,1,9.36-2.81,16,16,0,0,1,8.14,1.86v-.87a6.82,6.82,0,0,0-2.26-5.34,8.1,8.1,0,0,0-5.57-2,8.61,8.61,0,0,0-4.44,1.17,6.06,6.06,0,0,0-2.72,3.22l-5.14-2.23a11.78,11.78,0,0,1,4.1-5,13.07,13.07,0,0,1,8.08-2.31,13.75,13.75,0,0,1,9.54,3.4q3.8,3.39,3.79,9.57v18.3h-5.38v-4.21h-.25A11,11,0,0,1,315.82,144.83Zm.92-5.19a9.09,9.09,0,0,0,6.33-2.62,8.18,8.18,0,0,0,2.85-6.21q-2.39-2-7.16-2-4.1,0-6.18,1.79a5.44,5.44,0,0,0-2.08,4.2,4.06,4.06,0,0,0,1.9,3.53A7.52,7.52,0,0,0,316.74,139.64Z"/><path class="cls-7" d="M337.67,143.85V113.57h5.38v4.2h.24a11.65,11.65,0,0,1,9.24-5.19q7,0,9.48,5.81a11.68,11.68,0,0,1,10.47-5.81c3.54,0,6.22,1.14,8,3.43s2.69,5.38,2.69,9.3v18.54h-5.63V126.17q0-4.58-1.65-6.49a6.27,6.27,0,0,0-5-1.91,6.64,6.64,0,0,0-5.48,2.84,10.4,10.4,0,0,0-2.17,6.49v16.75h-5.63V126.17q0-4.58-1.65-6.49a6.3,6.3,0,0,0-5-1.91,6.62,6.62,0,0,0-5.47,2.84,10.41,10.41,0,0,0-2.18,6.49v16.75Z"/><path class="cls-7" d="M405.39,144.83a12.66,12.66,0,0,1-6.15-1.48,10.45,10.45,0,0,1-4.07-3.71h-.24l.24,4.21v13.34h-5.62V113.57h5.38v4.2h.24a10.45,10.45,0,0,1,4.07-3.71,12.66,12.66,0,0,1,6.15-1.48,13.12,13.12,0,0,1,10,4.63,17.73,17.73,0,0,1,0,23A13.12,13.12,0,0,1,405.39,144.83Zm-.92-5.19a8.89,8.89,0,0,0,6.73-3,12.6,12.6,0,0,0,0-15.89,9.13,9.13,0,0,0-13.49,0,12.83,12.83,0,0,0,0,16A9,9,0,0,0,404.47,139.64Z"/><path class="cls-7" d="M427.41,117.18a15.63,15.63,0,0,1,22.15,0,17.47,17.47,0,0,1,0,23,15.63,15.63,0,0,1-22.15,0,17.47,17.47,0,0,1,0-23Zm4.19,19.47a9.42,9.42,0,0,0,13.77,0,12.3,12.3,0,0,0,0-15.89,9.42,9.42,0,0,0-13.77,0,12.33,12.33,0,0,0,0,15.89Z"/><path class="cls-7" d="M474.58,144.83a12.66,12.66,0,0,1-6.15-1.48,10.35,10.35,0,0,1-4.06-3.71h-.25v4.21h-5.38V99.6h5.63v14l-.25,4.2h.25a10.35,10.35,0,0,1,4.06-3.71,12.66,12.66,0,0,1,6.15-1.48,13.14,13.14,0,0,1,10,4.63,17.77,17.77,0,0,1,0,23A13.14,13.14,0,0,1,474.58,144.83Zm-.91-5.19a8.91,8.91,0,0,0,6.73-3,12.64,12.64,0,0,0,0-15.89,9.13,9.13,0,0,0-13.49,0,12.79,12.79,0,0,0,0,16A8.92,8.92,0,0,0,473.67,139.64Z"/><path class="cls-7" d="M503.46,144.83a11.72,11.72,0,0,1-8-2.78,9.91,9.91,0,0,1,.58-15.11,15.27,15.27,0,0,1,9.36-2.81,15.93,15.93,0,0,1,8.13,1.86v-.87a6.79,6.79,0,0,0-2.26-5.34,8.08,8.08,0,0,0-5.57-2,8.55,8.55,0,0,0-4.43,1.17,6,6,0,0,0-2.73,3.22l-5.13-2.23a11.75,11.75,0,0,1,4.09-5,13.09,13.09,0,0,1,8.08-2.31,13.73,13.73,0,0,1,9.54,3.4q3.79,3.39,3.8,9.57v18.3h-5.39v-4.21h-.24A11,11,0,0,1,503.46,144.83Zm.92-5.19a9.13,9.13,0,0,0,6.33-2.62,8.16,8.16,0,0,0,2.84-6.21q-2.38-2-7.15-2-4.11,0-6.18,1.79a5.4,5.4,0,0,0-2.08,4.2,4.07,4.07,0,0,0,1.89,3.53A7.58,7.58,0,0,0,504.38,139.64Z"/><path class="cls-7" d="M536.13,144.83a13.34,13.34,0,0,1-8.29-2.47,14.59,14.59,0,0,1-4.8-6.18l5-2.1q2.38,5.68,8.14,5.69a7.31,7.31,0,0,0,4.31-1.18,3.61,3.61,0,0,0,1.69-3.09q0-3-4.1-4L532,130a14.24,14.24,0,0,1-5.44-2.81A6.78,6.78,0,0,1,524,121.6a7.67,7.67,0,0,1,3.51-6.52,14,14,0,0,1,8.35-2.5,13.84,13.84,0,0,1,7.1,1.82,10.3,10.3,0,0,1,4.47,5.22l-4.9,2q-1.65-4-6.85-4a7.93,7.93,0,0,0-4.22,1,3.22,3.22,0,0,0-1.71,2.85q0,2.59,4,3.52l5.94,1.42a11.19,11.19,0,0,1,6.24,3.4,8.29,8.29,0,0,1,2,5.44,8.45,8.45,0,0,1-3.31,6.8A12.93,12.93,0,0,1,536.13,144.83Z"/><path class="cls-7" d="M564,144.83a13.38,13.38,0,0,1-8.29-2.47,14.59,14.59,0,0,1-4.8-6.18l5-2.1q2.39,5.68,8.14,5.69a7.31,7.31,0,0,0,4.31-1.18A3.6,3.6,0,0,0,570,135.5q0-3-4.1-4l-6-1.49a14.28,14.28,0,0,1-5.45-2.81,6.81,6.81,0,0,1-2.57-5.59,7.66,7.66,0,0,1,3.52-6.52,15,15,0,0,1,15.45-.68,10.29,10.29,0,0,1,4.46,5.22l-4.89,2c-1.1-2.68-3.39-4-6.85-4a8,8,0,0,0-4.23,1,3.22,3.22,0,0,0-1.71,2.85q0,2.59,4,3.52l5.93,1.42a11.12,11.12,0,0,1,6.24,3.4,8.23,8.23,0,0,1,2,5.44,8.47,8.47,0,0,1-3.3,6.8A13,13,0,0,1,564,144.83Z"/><path class="cls-7" d="M583.6,117.18a15.63,15.63,0,0,1,22.15,0,17.47,17.47,0,0,1,0,23,15.63,15.63,0,0,1-22.15,0,17.47,17.47,0,0,1,0-23Zm4.19,19.47a9.42,9.42,0,0,0,13.77,0,12.33,12.33,0,0,0,0-15.89,9.42,9.42,0,0,0-13.77,0,12.33,12.33,0,0,0,0,15.89Z"/></g></svg>