<svg xmlns="http://www.w3.org/2000/svg" viewBox="0 0 623.62 255.12"><defs><style>.cls-1{fill:#fff;}.cls-2{fill:#676c72;}.cls-3{fill:#ea4335;}.cls-4{fill:#4285f4;}.cls-5{fill:#fbbc04;}.cls-6{fill:#0f9d58;}.cls-7{isolation:isolate;}</style></defs><g id="BG"><rect class="cls-1" width="623.62" height="255.12"/></g><g id="Logo"><g id="Layer_2" data-name="Layer 2"><path id="blu" class="cls-2" d="M451.85,110l1.35-.39c.44-.13.89-.27,1.34-.38.23-.06.45-.13.69-.17l.69-.14.09,0h.64l.7,0,1.39.09.69,0h.69c.23,0,.46,0,.68,0l.34,0,.33,0,.32-.08.32-.1a2.52,2.52,0,0,0,.29-.12l.28-.16.06,0h.07l.43,0,.44-.07.87-.17c.58-.13,1.16-.28,1.73-.45l.42-.14.43-.14c.28-.09.55-.2.83-.31l.4-.17c.13-.06.27-.12.39-.19a2.22,2.22,0,0,0,.37-.21c.13-.07.22-.15.33-.22l.09-.06.07,0,2-.38.48-.1.46-.12.23-.07.23-.08.45-.16.13-.05.15.05.41.12.42.11.87.2.88.18c.3.07.59.12.89.2s.59.13.89.22l.45.12c.14,0,.29.08.44.14l.44.16.44.17.85.41-.21,0a4.07,4.07,0,0,0,.75-.1,7.44,7.44,0,0,0,.78-.2c.26-.08.51-.18.77-.28l.76-.31c1-.45,2-1,3-1.51s1.94-1.12,2.89-1.72l1.41-.91.69-.48c.22-.16.46-.33.64-.48l.07-.07.07,0c.44-.12.86-.27,1.3-.38l.67-.14.66-.1.62-.12.08,0h0s0,0,0,0h0a1.31,1.31,0,0,0,.15,0l.07,0,.09-.06c.23-.17.41-.63.79-1a2,2,0,0,1,.66-.44,2.06,2.06,0,0,1,.35-.12l.09,0H498l.16,0a3.68,3.68,0,0,1,1.45.23,18.13,18.13,0,0,1,2.46,1.08c.39.19.78.39,1.17.54l.14,0,.14,0h0c-.05,0,0,0,0,0h.11a.39.39,0,0,0,.15,0h.12l.16,0,.32,0a6.92,6.92,0,0,1,1.37-.06,3.85,3.85,0,0,1,.68.1,5.09,5.09,0,0,1,.67.18l.16.06.16.07.31.14c.21.09.4.21.6.32l.28.19.28.19.27.2.26.21c.17.15.35.28.51.44l.48.46c.32.31.6.65.9,1l-.09-.06a.29.29,0,0,0,.18,0s.07,0,.13-.11a1.67,1.67,0,0,1,.2-.24.59.59,0,0,1,.35-.12h.17l.18.06a1.32,1.32,0,0,1,.26.18l.41.38.19.14a.64.64,0,0,0,.2.08h.15l.07,0,.27,0a2.14,2.14,0,0,1,.27-.06,1.63,1.63,0,0,1,.31,0l.16,0,.15,0a2.36,2.36,0,0,1,.28.12h0l0,0c.16.18.22.47.3.5l0,0h0s0,0,0,0h.06a.48.48,0,0,0,.12,0h.32a1.81,1.81,0,0,1,.68.12l.08,0h.08l.14.08a1.14,1.14,0,0,1,.28.25c.08.09.14.18.2.26s.05.08.08.09l0,0,0,0h0l.08,0a.56.56,0,0,0,.13,0h.33a1.85,1.85,0,0,1,.66.18l.16.08.14.09.14.09s0,0,0,0l0,0,.06,0a1.51,1.51,0,0,1,.24.26,2.22,2.22,0,0,1,.19.27,6.42,6.42,0,0,1,.34.56c.21.36.42.73.66,1.06a4.73,4.73,0,0,0,.85.88,7,7,0,0,0,1.07.63l2.25,1.19c.76.39,1.51.77,2.28,1.12.38.17.77.35,1.16.49l.28.09.28.06.16,0h.14a2.8,2.8,0,0,0,.29,0,8.81,8.81,0,0,0,1.22-.19l.62-.14.34-.06h.3l.14,0h0l.12.08.08.06.13.12.24.18a.93.93,0,0,0,.22.09h.08l.15,0,.12,0,.16,0L534,113l.35-.09.37-.06c.13,0,.25,0,.38,0l.39,0s0,0,0,0h.15l.17,0a3.16,3.16,0,0,1,.37.12c.48.19.86.46,1.24.62l.28.1.28,0,.34,0,.36.06a11.3,11.3,0,0,0,1.31.23l.32,0c.11,0,.22,0,.33,0l.32,0h.14l.17,0,.28-.07.3-.1c.21-.08.41-.15.61-.24.82-.36,1.63-.78,2.43-1.2.4-.22.8-.44,1.22-.65l.17-.08.11,0,.06,0h.07l.17,0,.21,0c.27,0,.49,0,.68-.06a1.43,1.43,0,0,0,.49-.14l0,0h0l0,0,.07-.06,0,0a.87.87,0,0,0,.08-.1l.11-.12c.28-.33.55-.7.83-1.06l.84-1.09c.14-.19.29-.37.44-.55a5,5,0,0,1,.51-.55.19.19,0,0,1,.08-.07l.11-.09.06,0,0,0,.07,0,.3-.17a3.58,3.58,0,0,1,.68-.33,1.86,1.86,0,0,1,.87-.15,2,2,0,0,1,.24,0l.12,0,.06,0h0l.06,0a1.46,1.46,0,0,1,.36.21l.12.08.08.08.08.08.06.07,0,.06,0,0,.06,0s0,0,.05,0l0,0h.06l.09,0h.17c.1,0,.15,0,.11,0a.23.23,0,0,0-.07.06l.08-.13a.3.3,0,0,1,.07-.1l0,0,0,0s0,0,0,0l.05-.07,0,0v0l0,0,.06-.1a1.07,1.07,0,0,1,.14-.16,1,1,0,0,1,.23-.13l.2,0h.3l.1,0,.1,0h.11l.09,0,.12,0a1.78,1.78,0,0,1,.41.22l.11.08,0,0h-.22l0,0s0,0,0,0h0s0,0,0,0,0,0,0-.07a.87.87,0,0,1,.52-.56l.16,0,.14,0h.29l.12,0,.19.07a2.08,2.08,0,0,1,.4.29,3.5,3.5,0,0,1,.27.28c.16.18.31.37.45.54s.29.35.43.49a.47.47,0,0,0,.1.1.41.41,0,0,0,.1.09l.08.06,0,0s0,0,0,0h0l.09,0,.16,0,.33.1c.22.06.45.14.68.22.45.14.87.3,1.31.45l1.29.46h0l.07,0,.08,0,.15.07a.65.65,0,0,1,.19.09l.2.11a2.4,2.4,0,0,1,.63.6,3.76,3.76,0,0,1,.39.68,1.19,1.19,0,0,0,.24.37.44.44,0,0,0,.29,0h.14l.17,0,.26,0a1.56,1.56,0,0,0,.21-.08.83.83,0,0,0,.21-.15,1.2,1.2,0,0,1,.34-.16l.18,0h.35l.17,0a2.08,2.08,0,0,0,.25,0l.28,0,.36-.06.2,0H570l.12,0a.77.77,0,0,1,.22.09,1.26,1.26,0,0,1,.17.13l.11.13a2.48,2.48,0,0,1,.2.35.5.5,0,0,0,.09.12s0,0,.16.07l.64.25.33.13.33.16a3.92,3.92,0,0,1,.64.34l.31.19.16.1.08,0h0l0,0,0,0a5.36,5.36,0,0,1,.55.46l.27.27.24.26c.32.35.62.72.9,1.08l.42.54a2.73,2.73,0,0,0,.2.25l.11.12.11.12c.62.64,1.27,1.29,1.92,1.9a20.64,20.64,0,0,0,2.05,1.73,4.87,4.87,0,0,0,.52.32,2,2,0,0,0,.23.1h.06l.09,0,.17,0,1.34.28,5.36,1.14,2.68.56c.89.19,1.79.36,2.68.51.44.07.89.14,1.33.18.23,0,.44,0,.66,0h.19l.17,0h.17l.18,0c.5.08.93.19,1.38.3l1.33.35c1.77.49,3.52,1,5.26,1.59s3.48,1.12,5.19,1.79l0,.09c-.86-.3-1.74-.55-2.61-.81l-2.64-.76c-1.75-.49-3.52-1-5.29-1.41-.44-.11-.88-.22-1.32-.31s-.9-.2-1.31-.26l-.16,0h-.49a5.56,5.56,0,0,1-.71,0c-.47,0-.93-.08-1.39-.14-.91-.13-1.82-.28-2.72-.44l-1.35-.25-1.35-.26-5.38-1-1.34-.27-.17,0-.08,0H581a2.74,2.74,0,0,1-.41-.15,4.47,4.47,0,0,1-.65-.39,21,21,0,0,1-2.18-1.77c-.68-.62-1.35-1.25-2-1.92l-.12-.13a1.59,1.59,0,0,1-.13-.13c-.07-.1-.16-.2-.23-.29l-.43-.54c-.28-.35-.56-.7-.85-1l-.23-.24-.22-.2a3.7,3.7,0,0,0-.5-.43l0,0h0l-.07,0-.14-.08-.27-.17a5.12,5.12,0,0,0-.57-.3l-.29-.13-.31-.12-.63-.24a1.33,1.33,0,0,1-.45-.24,1.5,1.5,0,0,1-.34-.41c-.07-.12-.12-.22-.14-.24h0l0,0,.06,0h-.21l-.32.06-.4,0a2.06,2.06,0,0,1-.43,0l-.31,0h0s0,0,0,0h0a1.84,1.84,0,0,1-.35.24,2.3,2.3,0,0,1-.43.16l-.41.07-.18,0h-.43l-.25,0a1.3,1.3,0,0,1-.52-.24,1,1,0,0,1-.2-.2,1.3,1.3,0,0,1-.15-.2,1.74,1.74,0,0,1-.1-.19l-.09-.16a2.64,2.64,0,0,0-.29-.51,1.41,1.41,0,0,0-.35-.34l-.1-.06a.67.67,0,0,0-.12-.06l-.16-.06-.08,0s0,0,0,0h0l0,0-1.29-.46c-.43-.14-.87-.31-1.28-.44-.21-.07-.41-.15-.63-.21l-.33-.1-.16,0-.08,0h0s0,0,0,0l-.08,0-.14-.06-.12-.07a.94.94,0,0,1-.19-.14,1,1,0,0,1-.15-.14l-.14-.14c-.18-.19-.33-.37-.47-.55s-.28-.36-.42-.51l-.2-.22a1.17,1.17,0,0,0-.15-.12,0,0,0,0,0,0,0H558a.16.16,0,0,0,.08-.07s0,0,0,0a1.45,1.45,0,0,1-.11.24.77.77,0,0,1-.12.17l-.05,0,0,0,0,0,0,0,0,0-.07,0-.1,0a.32.32,0,0,1-.14,0,.61.61,0,0,1-.3,0,1.16,1.16,0,0,1-.19-.09l-.17-.12a.93.93,0,0,0-.19-.11l0,0-.08,0h0l-.07,0h-.11s0,0,0,0a.11.11,0,0,0,.09,0,0,0,0,0,0,0,0l-.08.13-.06.09,0,.07,0,.05v0l0,0-.1.16-.06.07-.07.08a1,1,0,0,1-.2.13,1.5,1.5,0,0,1-.56.09h-.17a1.9,1.9,0,0,1-.25,0l-.11,0-.13-.05a1,1,0,0,1-.25-.13.92.92,0,0,1-.21-.17l-.08-.08-.06-.07,0-.06,0,0,0,0,0,0s-.13-.08-.23-.13h0l-.1,0a1,1,0,0,0-.46.09,4.56,4.56,0,0,0-.56.26l-.3.17-.07,0,0,0h0s0,0,0,0-.28.3-.42.46-.29.34-.43.52l-.84,1.07c-.28.36-.56.73-.87,1.09l-.12.14a2.11,2.11,0,0,1-.15.15l-.07.08-.07.06,0,0-.05,0h0l-.11.06a1.72,1.72,0,0,1-.42.18,2.79,2.79,0,0,1-.4.07c-.25,0-.49,0-.68.05h-.13l-.16,0h0s0,0,0,0h0l-.05,0-.14.07c-.39.18-.8.4-1.21.61-.82.42-1.64.83-2.5,1.19l-.67.25-.35.11-.38.09-.17,0-.09,0h-.48a6.52,6.52,0,0,1-.72,0,9.53,9.53,0,0,1-1.39-.26l-.31-.06-.33-.06-.39-.08-.37-.14c-.46-.22-.82-.48-1.19-.64l-.13-.05a.66.66,0,0,0-.15,0l-.16,0-.09,0h-.06l-.29,0-.31,0c-.1,0-.2,0-.31,0l-.31.08-.32.09-.16.06-.21,0-.19,0h-.07c-.08,0,0,0-.06,0l-.13,0a1.54,1.54,0,0,1-.41-.18l-.3-.24-.12-.11-.06,0,0,0,0,0a0,0,0,0,1,0,0h-.18l-.29,0-.63.12a7.83,7.83,0,0,1-1.3.18h-.52l-.16,0-.34-.08-.32-.11c-.41-.16-.8-.34-1.18-.53-1.54-.75-3-1.6-4.51-2.4-.19-.1-.37-.19-.56-.31l-.29-.17-.27-.19a5.11,5.11,0,0,1-.9-1,10.62,10.62,0,0,1-.69-1.1c-.1-.18-.2-.37-.31-.54l-.18-.25a.87.87,0,0,0-.09-.11l0,0-.06,0a1.85,1.85,0,0,0-1-.48h-.49l-.08,0h0l0,0-.1-.05-.08-.06a.87.87,0,0,1-.13-.15l-.18-.24a1,1,0,0,0-.19-.18l-.14-.08,0,0h0s0,0,0,0h0l-.07,0a1.37,1.37,0,0,0-.57-.1h-.61l-.1,0a.38.38,0,0,1-.15-.16,1.18,1.18,0,0,1-.08-.16,1.08,1.08,0,0,0-.14-.24l0,0c-.08,0-.16-.08-.23-.1l-.12,0h-.11a1,1,0,0,0-.24,0l-.26.06-.28.06h-.15a.48.48,0,0,1-.17,0,.82.82,0,0,1-.32-.12,1.08,1.08,0,0,1-.24-.18c-.15-.12-.28-.26-.41-.37a1.62,1.62,0,0,0-.19-.13l-.08,0h-.11a.19.19,0,0,0-.15.06.74.74,0,0,0-.15.18.58.58,0,0,1-.29.23.67.67,0,0,1-.37,0h-.05l0-.05c-.3-.31-.59-.64-.9-.94l-.48-.45c-.15-.15-.33-.27-.5-.41l-.25-.2-.27-.19-.27-.17a1.53,1.53,0,0,0-.27-.17,6.1,6.1,0,0,0-.57-.29l-.29-.13-.15-.06-.15,0a4.21,4.21,0,0,0-.61-.16,6.18,6.18,0,0,0-.62-.07,5.4,5.4,0,0,0-1.26.1l-.33,0-.18,0-.2,0h-.37l-.19-.05-.16-.06c-.44-.16-.84-.35-1.24-.53a16.82,16.82,0,0,0-2.4-1,3.22,3.22,0,0,0-1.14-.17l-.17,0H498s.06,0,0,0l-.07,0-.26.1a1.19,1.19,0,0,0-.43.3,2.73,2.73,0,0,0-.34.47,2.64,2.64,0,0,1-.47.61l-.18.13a1.51,1.51,0,0,1-.22.11l-.16.06h0l0,0h0l-.09,0-.66.15-.65.11-.61.15c-.42.11-.82.25-1.23.38l.14-.09a8,8,0,0,1-.7.55l-.7.5c-.47.32-.94.64-1.42.94-1,.62-1.94,1.2-2.93,1.76-.5.28-1,.55-1.52.8s-1,.5-1.55.73q-.4.18-.81.33l-.82.29c-.28.08-.57.16-.87.22a5.4,5.4,0,0,1-.92.1h-.1l-.12,0-.76-.38-.41-.16-.41-.15-.41-.13-.43-.13c-.28-.09-.57-.15-.85-.22s-.59-.14-.88-.21l-.88-.19-.89-.22-.45-.12-.45-.15h.28l-.5.17-.24.08-.25.07-.51.12a4.42,4.42,0,0,1-.5.1l-2,.34.16-.08a3.41,3.41,0,0,1-.42.28,2.82,2.82,0,0,1-.42.22c-.15.08-.29.14-.43.2l-.43.17q-.43.16-.87.3l-.44.14-.44.12c-.59.16-1.18.31-1.78.42l-.91.16-.46,0-.46,0,.13,0-.34.18a3,3,0,0,1-.35.13,2.47,2.47,0,0,1-.36.11c-.12,0-.24.06-.36.07l-.36.06-.36,0c-.24,0-.47,0-.71,0s-.48,0-.71,0l-.71,0-1.39-.14-.69-.08-.34,0H456l-.08,0-.68.1c-.23,0-.46.1-.68.15l-1.36.32-1.37.32Z"/></g><g id="Layer_3" data-name="Layer 3"><path class="cls-2" d="M192.17,186.28a24.31,24.31,0,0,1-9-9,25.76,25.76,0,0,1,0-25.3,24.49,24.49,0,0,1,21.38-12.26,26.23,26.23,0,0,1,9.88,1.87,19.78,19.78,0,0,1,7.63,5.26L218,150.92a14.62,14.62,0,0,0-5.8-4.29,19.68,19.68,0,0,0-17,.93,18.41,18.41,0,0,0-7,6.86,21.17,21.17,0,0,0,0,20.44,18.41,18.41,0,0,0,7,6.85,20.6,20.6,0,0,0,17.41.94,18,18,0,0,0,5.56-4,14.6,14.6,0,0,0,2.79-4.49,19.53,19.53,0,0,0,1.33-5.83H204.69V163.1h22.9a19.18,19.18,0,0,1,.34,3.47,26.69,26.69,0,0,1-1.4,8.55,18.8,18.8,0,0,1-4.46,7.29q-6.6,7.13-17.51,7.13a24.4,24.4,0,0,1-12.39-3.26"/><path class="cls-2" d="M235,140.8h14.39a25.92,25.92,0,0,1,12.78,3,20.92,20.92,0,0,1,8.39,8.42,27.64,27.64,0,0,1,0,24.77,20.86,20.86,0,0,1-8.39,8.42,25.92,25.92,0,0,1-12.78,3H235Zm14.39,42.28q8.44,0,13.41-4.86t5-13.58q0-8.73-5-13.59t-13.41-4.86h-8.79v36.89Z"/><path class="cls-2" d="M290.45,186.28a24.24,24.24,0,0,1-9-9,25.69,25.69,0,0,1,0-25.3,24.49,24.49,0,0,1,21.37-12.26,26.29,26.29,0,0,1,9.89,1.87,19.82,19.82,0,0,1,7.62,5.26l-4.06,4.06a14.66,14.66,0,0,0-5.79-4.29,19.25,19.25,0,0,0-7.59-1.5,19,19,0,0,0-9.42,2.43,18.5,18.5,0,0,0-7,6.86,21.17,21.17,0,0,0,0,20.44,18.48,18.48,0,0,0,7,6.85,20.6,20.6,0,0,0,17.41.94,18,18,0,0,0,5.56-4,14.81,14.81,0,0,0,2.8-4.49,20.17,20.17,0,0,0,1.33-5.83H303V163.1h22.91a20.05,20.05,0,0,1,.33,3.47,26.69,26.69,0,0,1-1.4,8.55,18.8,18.8,0,0,1-4.46,7.29q-6.58,7.13-17.51,7.13a24.39,24.39,0,0,1-12.38-3.26"/><path class="cls-3" d="M46.34,164.71,68.28,152a10.79,10.79,0,1,0-10.79-18.7L19.57,155.23Z"/><path class="cls-4" d="M62.88,197.27a10.8,10.8,0,0,0,5.4-20.15L30.37,155.23a10.8,10.8,0,0,0-10.8,18.7l37.92,21.89a10.65,10.65,0,0,0,5.39,1.45"/><path class="cls-5" d="M100.59,197.27a10.67,10.67,0,0,0,5.39-1.45l37.92-21.89-26.43-9.67L95.18,177.12a10.8,10.8,0,0,0,5.41,20.15"/><path class="cls-6" d="M138.49,175.38a10.8,10.8,0,0,0,5.41-20.15L106,133.34A10.8,10.8,0,0,0,95.18,152l37.92,21.89a10.67,10.67,0,0,0,5.39,1.45"/></g><g id="Layer_4" data-name="Layer 4"><g class="cls-7"><path class="cls-2" d="M372.55,188.52h-6.26V139.79h16.6a15.42,15.42,0,0,1,10.72,4.11,14.16,14.16,0,0,1,0,20.76,15.38,15.38,0,0,1-10.72,4.12H372.55Zm0-25.73H383a8.09,8.09,0,0,0,6.33-2.65,8.39,8.39,0,0,0,0-11.71,8.09,8.09,0,0,0-6.33-2.65H372.55Z"/></g><g class="cls-7"><path class="cls-2" d="M416.31,189.6a16.09,16.09,0,0,1-12.29-5,17.88,17.88,0,0,1-4.73-12.73,18.32,18.32,0,0,1,4.6-12.52,14.91,14.91,0,0,1,11.74-5.24q7.41,0,11.87,4.83T432,171.84l-.07,1.16H405.55a11.36,11.36,0,0,0,3.37,8,10.23,10.23,0,0,0,7.25,2.93q6.74,0,9.12-5.72l5.58,2.32A15,15,0,0,1,425.5,187,15.62,15.62,0,0,1,416.31,189.6Zm9-21.77a8.92,8.92,0,0,0-2.62-5.45q-2.42-2.58-7.18-2.58a9,9,0,0,0-6,2.17,11.22,11.22,0,0,0-3.51,5.86Z"/></g><g class="cls-7"><path class="cls-2" d="M450.4,189.6a15,15,0,0,1-9.22-2.72,16,16,0,0,1-5.34-6.8l5.58-2.32q2.65,6.27,9.05,6.26a8.29,8.29,0,0,0,4.8-1.29,3.94,3.94,0,0,0,1.87-3.4c0-2.18-1.52-3.65-4.56-4.43l-6.74-1.63a16.06,16.06,0,0,1-6-3.09,7.46,7.46,0,0,1-2.86-6.16,8.41,8.41,0,0,1,3.91-7.18,15.71,15.71,0,0,1,9.29-2.76,15.5,15.5,0,0,1,7.9,2,11.27,11.27,0,0,1,5,5.75l-5.44,2.24q-1.85-4.43-7.62-4.42a8.92,8.92,0,0,0-4.7,1.16,3.51,3.51,0,0,0-1.9,3.13c0,1.9,1.47,3.2,4.42,3.88l6.6,1.56a12.52,12.52,0,0,1,6.94,3.74,9,9,0,0,1,2.25,6,9.27,9.27,0,0,1-3.68,7.49A14.47,14.47,0,0,1,450.4,189.6Z"/></g><g class="cls-7"><path class="cls-2" d="M484.57,189.6a16.26,16.26,0,0,1-12.32-5.06,19.1,19.1,0,0,1,0-25.39,16.26,16.26,0,0,1,12.32-5.07,15.14,15.14,0,0,1,9.25,2.72,16,16,0,0,1,5.38,6.88l-5.72,2.38a9.32,9.32,0,0,0-9.32-6.26,9.72,9.72,0,0,0-7.32,3.4,13.41,13.41,0,0,0,0,17.29,9.76,9.76,0,0,0,7.32,3.4q7,0,9.66-6.26L499.4,180a16,16,0,0,1-5.48,6.84A15.39,15.39,0,0,1,484.57,189.6Z"/></g><g class="cls-7"><path class="cls-2" d="M515.05,189.6a13.18,13.18,0,0,1-8.88-3.06,10.14,10.14,0,0,1-3.57-8.1,10,10,0,0,1,4.22-8.54,17.13,17.13,0,0,1,10.41-3.09,17.94,17.94,0,0,1,9,2v-1a7.44,7.44,0,0,0-2.52-5.88,9,9,0,0,0-6.19-2.21,9.6,9.6,0,0,0-4.93,1.29,6.61,6.61,0,0,0-3,3.54l-5.72-2.45a12.93,12.93,0,0,1,4.56-5.55,14.64,14.64,0,0,1,9-2.55,15.42,15.42,0,0,1,10.61,3.74q4.23,3.75,4.22,10.55v20.15h-6v-4.63H526A12.27,12.27,0,0,1,515.05,189.6Zm1-5.71a10.24,10.24,0,0,0,7-2.89,9,9,0,0,0,3.16-6.84q-2.65-2.17-8-2.18-4.56,0-6.87,2a5.92,5.92,0,0,0-2.32,4.63,4.47,4.47,0,0,0,2.11,3.88A8.45,8.45,0,0,0,516.08,183.89Z"/></g><g class="cls-7"><path class="cls-2" d="M545.48,188.52h-6.26V155.17h6v5.44h.28a8.54,8.54,0,0,1,3.91-4.49,11.19,11.19,0,0,1,5.75-1.77,11.88,11.88,0,0,1,4.7.82L557.45,161a9.55,9.55,0,0,0-3.33-.48,8.17,8.17,0,0,0-6,2.69,9.67,9.67,0,0,0-2.62,7.05Z"/></g><g class="cls-7"><path class="cls-2" d="M573.11,189.6a13.17,13.17,0,0,1-8.88-3.06,10.85,10.85,0,0,1,.64-16.64,17.15,17.15,0,0,1,10.41-3.09,18,18,0,0,1,9.06,2v-1a7.44,7.44,0,0,0-2.52-5.88,9,9,0,0,0-6.19-2.21,9.64,9.64,0,0,0-4.94,1.29,6.65,6.65,0,0,0-3,3.54l-5.72-2.45a13.08,13.08,0,0,1,4.56-5.55,14.64,14.64,0,0,1,9-2.55,15.46,15.46,0,0,1,10.62,3.74q4.21,3.75,4.21,10.55v20.15h-6v-4.63h-.28A12.26,12.26,0,0,1,573.11,189.6Zm1-5.71a10.24,10.24,0,0,0,7-2.89,9,9,0,0,0,3.17-6.84q-2.65-2.17-8-2.18-4.56,0-6.87,2a5.94,5.94,0,0,0-2.31,4.63,4.45,4.45,0,0,0,2.11,3.88A8.4,8.4,0,0,0,574.13,183.89Z"/></g></g><g id="Layer_5" data-name="Layer 5"><path class="cls-6" d="M588.26,139.76l0-.2a5.56,5.56,0,0,0,0-.59,7.86,7.86,0,0,0-.62-2.12,11.07,11.07,0,0,0-1.92-2.83,19,19,0,0,0-3.41-2.89c-.67-.47-1.4-.92-2.18-1.36s-1.59-.86-2.44-1.26a59.41,59.41,0,0,0-5.5-2.26c-2-.69-4-1.31-6.09-1.88s-4.25-1.07-6.41-1.51-4.34-.81-6.5-1.11-4.27-.57-6.33-.82l-5.93-.7c-.94-.11-1.86-.21-2.75-.29s-1.75-.19-2.57-.27l-4.52-.43-3.49-.32-2.26-.2-.79-.09v-.2l.8-.07c.52,0,1.28-.11,2.26-.17l1.61-.08,1.91-.06c.68,0,1.4,0,2.17,0s1.56,0,2.4,0,1.71,0,2.61.07l2.8.15c1.92.11,3.93.31,6,.56s4.22.62,6.38,1,4.35.88,6.53,1.41,4.34,1.09,6.45,1.73,4.16,1.35,6.12,2.13c1,.38,1.93.79,2.85,1.21s1.81.85,2.66,1.31,1.67.92,2.44,1.4,1.5,1,2.18,1.48a20.73,20.73,0,0,1,3.38,3.14,11,11,0,0,1,1.85,3.05,7.79,7.79,0,0,1,.53,2.23c0,.27,0,.46,0,.6v.2Z"/><path class="cls-6" d="M404.13,139.75l0-.36a1.48,1.48,0,0,1,0-.2c0-.07,0-.15,0-.24s0-.18.06-.29a2.22,2.22,0,0,1,.1-.31,5.63,5.63,0,0,1,.78-1.52,9.93,9.93,0,0,1,1.56-1.69,17.54,17.54,0,0,1,2.28-1.69c.44-.28.9-.54,1.39-.82s1-.53,1.53-.79c1.07-.52,2.23-1,3.47-1.53s2.55-1,3.94-1.43,2.84-.92,4.35-1.36,3.08-.85,4.7-1.26c3.25-.82,6.7-1.56,10.28-2.25,7.16-1.38,14.86-2.52,22.58-3.45,3.86-.48,7.72-.88,11.53-1.26s7.56-.7,11.2-.93,7.16-.4,10.5-.49l4.86-.13,4.55,0c2.91,0,5.58,0,7.95,0s4.43.1,6.13.16,3,.11,3.94.16l1.4.08v.2l-1.39.08-3.94.21-14,.71-4.53.25-4.85.27-10.45.64c-3.62.22-7.36.45-11.17.71s-7.66.6-11.51,1c-7.71.78-15.4,1.77-22.55,3-3.58.61-7,1.29-10.26,2-1.62.36-3.2.74-4.71,1.14s-3,.8-4.35,1.23-2.7.87-3.94,1.33-2.39.93-3.46,1.42c-.54.24-1,.5-1.54.74s-.95.51-1.38.77a17.38,17.38,0,0,0-2.28,1.58,9.53,9.53,0,0,0-1.55,1.59,5.65,5.65,0,0,0-.79,1.43c0,.1-.08.2-.1.29s0,.19-.06.27a2.25,2.25,0,0,0-.05.22l0,.2,0,.35Z"/><path class="cls-5" d="M404.11,139.75l0-.36a1.79,1.79,0,0,1,.08-.44,3.74,3.74,0,0,1,.2-.59,5.35,5.35,0,0,1,1-1.39,10.64,10.64,0,0,1,1.74-1.47,22.32,22.32,0,0,1,2.43-1.42c.91-.46,1.92-.91,3-1.35a75.93,75.93,0,0,1,7.5-2.47c1.39-.39,2.85-.77,4.36-1.14s3.09-.72,4.71-1.06,3.29-.67,5-1,3.45-.61,5.24-.9c7.12-1.17,14.76-2.14,22.42-2.93,3.83-.4,7.66-.75,11.43-1.08s7.5-.61,11.1-.81,7.09-.32,10.39-.38l4.82-.08h4.5c1.44,0,2.83,0,4.14,0s2.56,0,3.74.07l3.28.09,2.78.11c1.69.07,3,.14,3.91.2l1.38.08v.24l-1.38.09-1.66.1L518,122l-6.06.33-7.84.4-19.63,1-11.07.56c-3.77.2-7.6.46-11.42.76-7.64.61-15.27,1.41-22.39,2.4-3.56.49-7,1-10.23,1.63-1.62.29-3.19.6-4.71.92s-3,.65-4.36,1a76.18,76.18,0,0,0-7.5,2.24c-1.09.4-2.1.81-3,1.23a24.24,24.24,0,0,0-2.42,1.31,11.34,11.34,0,0,0-1.73,1.36,4.88,4.88,0,0,0-.95,1.28,2.63,2.63,0,0,0-.21.53,1.84,1.84,0,0,0-.09.4l0,.35Z"/><path class="cls-5" d="M588.26,139.76v-.2c0-.07,0-.15,0-.25s0-.2-.05-.32a6.21,6.21,0,0,0-.73-2,9.46,9.46,0,0,0-.88-1.27,12.84,12.84,0,0,0-1.27-1.31,20.78,20.78,0,0,0-3.6-2.52,38.46,38.46,0,0,0-4.72-2.23c-1.73-.69-3.58-1.33-5.53-1.91s-4-1.1-6.06-1.58-4.2-.9-6.34-1.27-4.29-.68-6.41-.93-4.21-.47-6.23-.68l-5.83-.6c-.93-.1-1.83-.18-2.71-.26l-2.53-.23-7.87-.67-2.21-.2-.78-.07V121l.78-.07c.51,0,1.26-.1,2.22-.16l1.58-.08,1.87-.06,2.13,0h2.35l2.57,0,2.74.12c1.88.09,3.86.25,5.9.47s4.15.52,6.28.89,4.29.74,6.43,1.19,4.29.93,6.38,1.48,4.13,1.15,6.08,1.81,3.82,1.37,5.54,2.15a37.78,37.78,0,0,1,4.72,2.48,21.08,21.08,0,0,1,3.59,2.74,13.39,13.39,0,0,1,1.26,1.42,9.62,9.62,0,0,1,.85,1.36,6.49,6.49,0,0,1,.66,2.16c0,.13,0,.25,0,.35a2.09,2.09,0,0,1,0,.24v.2Z"/><polygon class="cls-4" points="533.35 69.45 576.33 125.16 532.81 69.86 533.35 69.45"/><polygon class="cls-4" points="533.4 73.63 548.4 118.23 532.75 73.85 533.4 73.63"/><polygon class="cls-4" points="524.65 69.95 431.94 123.12 524.31 69.36 524.65 69.95"/><path class="cls-3" d="M522.16,139.72s0-1.35.06-3.71c0-1.18,0-2.62.09-4.26s.08-3.5.14-5.52.12-4.22.19-6.53.16-4.76.25-7.29.19-5.14.31-7.79.25-5.34.38-8,.19-5.39.23-8c0-1.32.06-2.64.11-3.94s.13-2.58.23-3.84c.21-2.52.54-4.94.91-7.23.18-1.14.38-2.26.58-3.33s.4-2.12.61-3.11c.42-2,.86-3.81,1.28-5.42s.83-3,1.19-4.16c.71-2.3,1.26-3.6,1.26-3.6l.71.06s.3,1.38.59,3.78c.15,1.19.3,2.64.42,4.3s.23,3.53.27,5.56c0,1,0,2.07,0,3.17s0,2.22,0,3.38c0,2.32-.16,4.76-.41,7.27-.13,1.26-.28,2.53-.46,3.82s-.4,2.59-.61,3.9c-.44,2.63-.87,5.29-1.23,8s-.71,5.35-1.08,8-.74,5.22-1.1,7.72L526,120c-.36,2.29-.69,4.46-1,6.46s-.61,3.83-.86,5.46-.49,3-.69,4.2c-.38,2.33-.61,3.67-.61,3.67Z"/><polygon class="cls-4" points="522.72 77.42 466.67 118.23 522.31 76.87 522.72 77.42"/><polygon class="cls-4" points="522.8 84.83 500.73 116.31 522.24 84.44 522.8 84.83"/></g></g></svg>