<svg xmlns="http://www.w3.org/2000/svg" viewBox="0 0 623.62 255.12"><defs><style>.cls-1{fill:#fff;}.cls-2{fill:#469d59;}.cls-3{fill:#fabb42;}.cls-4{fill:#4385f3;}.cls-5{fill:#e94335;}.cls-6{fill:#676d72;}</style></defs><g id="BG"><rect class="cls-1" width="623.62" height="255.12"/></g><g id="Logo"><path class="cls-2" d="M411.75,14.18q.54,9.91,1.09,19.84c.34,6.25.7,12.5,1,18.74.32,5.82.6,11.64.91,17.46.34,6.21.7,12.42,1,18.63q.59,10.8,1.14,21.58c0,1,.1,2.09.16,3.14-.81-.54-1.63-1.06-2.43-1.62l-8.48-6c.35-6.9.69-13.8,1.06-20.7.38-7.37.8-14.74,1.19-22.11.34-6.54.64-13.08,1-19.61.38-7.27.8-14.53,1.17-21.79.13-2.52.17-5.05.26-7.57Z"/><path class="cls-3" d="M430.59,202.14a4.42,4.42,0,0,1-1.29.45c-6.81,0-13.62-.08-20.43-.1l-39.14,0q-28-.06-56.08-.14-52.12-.09-104.26-.18c-13.95,0-27.9-.14-41.85-.23a4.07,4.07,0,0,1-1.76-.35c4.39,0,8.78,0,13.17,0,5.29,0,10.58-.14,15.87-.15q51.32,0,102.63-.07c13.73,0,27.47-.13,41.2-.21,8.66,0,17.32-.12,26-.13a1.92,1.92,0,0,0,2.19-1.46c1.42-4,3-7.89,4.5-11.83a6.84,6.84,0,0,0,.44-.85q4.46-11.25,8.88-22.51l1.42-3.55,7.43,2.77,38.71,14.52c.52.2.94.33,1,1.07.17,3.8.42,7.59.65,11.39S430.33,198.27,430.59,202.14Z"/><path class="cls-4" d="M430.59,202.14q-.39-5.8-.76-11.59c-.23-3.8-.48-7.59-.65-11.39,0-.74-.46-.87-1-1.07l-38.71-14.52-7.43-2.77-1.42,3.55q-4.44,11.25-8.88,22.51a6.84,6.84,0,0,1-.44.85c.38-1.62.73-3.26,1.16-4.87q5.72-21.18,11.43-42.37c.25-.94.62-1.26,1.61-1.22,2.42.12,4.84.11,7.26.15l-1,7.74,45.17,20.23c-.78-3.68-1.52-7.13-2.25-10.59q-1.79-8.5-3.56-17c1.3,0,2.93-.41,3.81.21s1,2.29,1.38,3.52q9.19,28.85,18.38,57.69c.1.31.17.62.27,1a6.62,6.62,0,0,1-.7.06l-23.15-.06C431,202.18,430.77,202.15,430.59,202.14Z"/><path class="cls-5" d="M431.13,139.79q1.78,8.49,3.56,17c.73,3.46,1.47,6.91,2.25,10.59l-45.17-20.23,1-7.74,3.75-26.52c.57-4.08,1.14-8.16,1.72-12.34l8,5.42,8.48,6c.8.56,1.62,1.08,2.43,1.62,3,2.12,6,4.22,9,6.4a3,3,0,0,1,1,1.61C428.54,127.64,429.82,133.72,431.13,139.79Z"/><path class="cls-2" d="M221.47,227.38l-8.8-5.16A4.39,4.39,0,0,1,210.3,218a4.44,4.44,0,0,1,6.76-3.61c4,2.28,8,4.63,12.05,6.94l3.48,2a4.52,4.52,0,0,1-.72,8.26,1.05,1.05,0,0,0-.25.18,6.59,6.59,0,0,1-4.41-1.13C225.33,229.51,223.39,228.47,221.47,227.38Z"/><path class="cls-4" d="M192.44,227.31c2.87,1.69,5.77,3.33,8.6,5.08a6.26,6.26,0,0,1,2,1.93,4.23,4.23,0,0,1-.67,5.21,4.32,4.32,0,0,1-5.28.87q-8-4.56-16-9.24a4.17,4.17,0,0,1-2.17-4.1,4.45,4.45,0,0,1,3-4l.42-.17h0a6.38,6.38,0,0,1,4.21,1.05C188.45,225.13,190.46,226.2,192.44,227.31Z"/><path class="cls-5" d="M192.44,227.31c-2-1.11-4-2.18-5.92-3.37a6.38,6.38,0,0,0-4.21-1.05c.41-.28.8-.59,1.22-.83,4.42-2.56,8.82-5.13,13.25-7.65a4.49,4.49,0,1,1,4.38,7.83C198.26,223.94,195.35,225.62,192.44,227.31Z"/><path class="cls-3" d="M221.47,227.38c1.92,1.09,3.86,2.13,5.74,3.28a6.59,6.59,0,0,0,4.41,1.13l-10.29,6c-1.38.81-2.76,1.6-4.14,2.39a4.49,4.49,0,1,1-4.56-7.74C215.56,230.75,218.52,229.07,221.47,227.38Z"/><path class="cls-6" d="M303.44,218l-1.67,1.8c-3.53-2.67-7.27-2.87-10.08-.56a8,8,0,0,0-2,9.58,7.45,7.45,0,0,0,8.61,3.87,6.11,6.11,0,0,0,4.9-5.78h-6.81v-2.34h4c1.45,0,2.9.05,4.34,0,.84,0,1,.28,1.07,1,.27,6.13-4.67,10.51-10.87,9.62a9.93,9.93,0,0,1-8.25-7.36A10.08,10.08,0,0,1,290.63,217a10.43,10.43,0,0,1,11.2-.27C302.4,217.1,302.9,217.57,303.44,218Z"/><path class="cls-6" d="M263.22,226.89h-6.74v-2.32h9.16a8.84,8.84,0,0,1-7.53,10.63,10.07,10.07,0,0,1-4.6-19.56,10.19,10.19,0,0,1,7.71.74,21,21,0,0,1,2.3,1.59l-1.85,1.75c-3.3-2.6-7.13-2.79-10-.47a8,8,0,0,0-1.94,9.6,7.5,7.5,0,0,0,8.74,3.81A6,6,0,0,0,263.22,226.89Z"/><path class="cls-6" d="M268.88,234.86v-19.2c3.35.22,6.73-.54,10,.74a9.19,9.19,0,0,1,5.59,9.62c-.47,5.43-4,8.77-9.49,8.84C273,234.88,271,234.86,268.88,234.86Zm2.49-16.74v14.35c1.3,0,2.56,0,3.81,0a6.46,6.46,0,0,0,6.67-5.87c.67-4.48-1.76-8.07-5.85-8.46C274.5,218,273,218.12,271.37,218.12Z"/><path class="cls-6" d="M380,234.83h-2.27l-.09-1.72a5.66,5.66,0,0,1-4.1,2.17c-3.93.2-7.06-3.39-6.66-7.63s3.56-7,7.26-6.23a16.19,16.19,0,0,1,3.47,1.55v-7.23H380Zm-2.32-6.54a4.51,4.51,0,0,0-2.87-4.54,4.09,4.09,0,0,0-5.24,2.93c-.81,2.81.56,5.66,3,6.23C375.34,233.56,377.64,231.49,377.64,228.29Z"/><path class="cls-6" d="M330.18,218.36l-1.68,1.76a6.78,6.78,0,0,0-6.13-2.46,7.17,7.17,0,0,0-4.75,2.36,8.21,8.21,0,0,0,.08,10.57c3,3.18,7,3,11.38-.39.35.33.72.67,1.08,1,.2.2.38.42.56.62-3,4.08-9.94,4.62-14.07,1.11a10.27,10.27,0,0,1-.58-14.84A9.72,9.72,0,0,1,330.18,218.36Z"/><path class="cls-6" d="M406.19,235.28a7,7,0,1,1,6.76-7A6.67,6.67,0,0,1,406.19,235.28Zm4.26-7c0-2.6-1.66-4.58-4-4.72a4.31,4.31,0,0,0-4.57,4.42c-.11,2.92,1.59,5,4.16,5.05S410.45,231.06,410.45,228.28Z"/><path class="cls-6" d="M351.08,228.28a6.62,6.62,0,0,1-6.8,7c-3.91,0-6.7-2.93-6.7-7a6.76,6.76,0,1,1,13.5,0Zm-11.05,0c0,2.72,1.87,4.74,4.32,4.72a4.77,4.77,0,1,0-4.32-4.72Z"/><path class="cls-6" d="M457.84,228.27a6.63,6.63,0,0,1-6.79,7c-3.93,0-6.71-2.89-6.71-7s2.77-7,6.66-7A6.68,6.68,0,0,1,457.84,228.27Zm-11,0c0,2.72,1.81,4.74,4.28,4.75a4.77,4.77,0,1,0-4.28-4.75Z"/><path class="cls-6" d="M430.6,221.79h2.25l.11,1.42a5.55,5.55,0,0,0,.64-.45,5.24,5.24,0,0,1,5.85-1c2.06.82,2.69,2.61,2.72,4.65,0,2.79,0,5.57,0,8.43h-2.49c0-1.51,0-3,0-4.47,0-1.3,0-2.61,0-3.91a2.6,2.6,0,0,0-1.65-2.59,3.3,3.3,0,0,0-3.65.57A4.19,4.19,0,0,0,433,227.6q0,3,0,6.09v1.11H430.6Z"/><path class="cls-6" d="M353.1,221.79h2.49V228c0,.61,0,1.23,0,1.84,0,1.62.65,2.61,1.86,3a3.23,3.23,0,0,0,3.93-1.23,6,6,0,0,0,.81-2.74c.12-2.31,0-4.63,0-7h2.44v12.95h-2.26l-.07-1.39a15.87,15.87,0,0,1-2.68,1.61,4.69,4.69,0,0,1-6.54-4.32C353,227.76,353.1,224.82,353.1,221.79Z"/><path class="cls-6" d="M400.16,215.74V218h-5.31v16.76h-2.44V218.11h-5.34v-2.37Z"/><path class="cls-6" d="M415,221.79h2.27c0,.56.06,1.08.1,1.8,1.54-1.87,3.31-2.74,5.69-1.89-.25.78-.47,1.49-.71,2.23-.31,0-.59,0-.88,0a3.61,3.61,0,0,0-4.06,3.77c0,2.34,0,4.69,0,7.1H415Z"/><path class="cls-6" d="M335.4,234.82h-2.31V215.74h2.31Z"/><path class="cls-6" d="M424.92,221.8h2.38v13h-2.38Z"/><path class="cls-6" d="M427.84,217.23a1.74,1.74,0,1,1-3.48-.09,1.74,1.74,0,0,1,3.48.09Z"/><path class="cls-5" d="M182.34,222.88l-.42.17Z"/></g></svg>