<svg xmlns="http://www.w3.org/2000/svg" xmlns:xlink="http://www.w3.org/1999/xlink" viewBox="0 0 623.62 255.12"><defs><style>.cls-1{fill:none;}.cls-2{fill:#fff;}.cls-3{fill:#ffe000;}.cls-4{clip-path:url(#clip-path);}</style><clipPath id="clip-path"><rect class="cls-1" x="184.25" width="255.12" height="255.12"/></clipPath></defs><g id="BG"><rect class="cls-2" width="623.62" height="255.12"/></g><g id="Logo"><path class="cls-3" d="M0,255.12H623.62V0H0Z"/><g class="cls-4"><path d="M252.44,152.08h15.65V48.37H252.44Z"/><path d="M280.1,152.08h15.65V14.18H280.1Z"/><path d="M323,48.37H307.37V152.08H323Z"/></g><g class="cls-4"><path d="M402.9,203.51c-3.89-3.58-8.62-5.77-13.35-8a73.62,73.62,0,0,1-9.3-5c-2.44-1.6-2.82-4.29-2.16-7a5.55,5.55,0,0,1,4.69-4.39c3.85-.64,7.16.39,9.49,3.74l1.67,2.45c3.53-2.35,7-4.6,10.37-7a1.83,1.83,0,0,0,.24-1.76,25,25,0,0,0-2.74-3.94c-4.9-5.7-11.36-7.38-18.57-7-8.26.44-14.92,3.75-18.12,11.64-3.27,8.1-2.44,16,3.4,22.9,3.28,3.89,7.74,6,12.22,8.16,3.62,1.72,7.25,3.41,10.7,5.42a6.57,6.57,0,0,1,3.3,7,6.65,6.65,0,0,1-5.09,5.63c-5.5,1.57-10.62.83-14.83-3.36-1.45-1.44-2.63-3.16-4.1-4.93l-12.09,7.29c2.1,2.68,3.73,5.43,6,7.52,8.49,7.89,18.64,9.35,29.5,6.63,7.7-1.94,13.14-6.71,14.77-14.7s.39-15.47-6-21.33"/><path d="M351.27,166.57H336.68v2.28q0,22.47,0,44.93c0,2,.05,4-.06,6-.29,5.12-2.94,7.46-8.06,7.21a7.92,7.92,0,0,1-6.39-3.92c-.81-1.21-1.56-2.45-2.41-3.8L308,226.81a22.53,22.53,0,0,0,9.41,10.81c6,3.39,12.44,3.88,19,2.36,7.17-1.67,12-6.13,13.79-13.3a43.42,43.42,0,0,0,1.25-10.09c.12-15.91.06-31.83,0-47.74,0-.77-.13-1.53-.19-2.28"/><path d="M225.57,152.08h15.65V82.94H225.57Z"/><path d="M336.2,152.08h15.65V82.94H336.2Z"/></g></g></svg>