<svg xmlns="http://www.w3.org/2000/svg" viewBox="0 0 623.62 255.12"><defs><style>.cls-1{fill:#fff;}.cls-2{fill:#03c0a5;}.cls-3{fill:#4186f2;}.cls-4{fill:#4fc0f5;}.cls-5{fill:#1de6b4;}.cls-6{fill:#252525;}.cls-7{fill:#727272;}</style></defs><g id="BG"><rect class="cls-1" width="623.62" height="255.12"/></g><g id="Logo"><path class="cls-2" d="M351.69,144.16H354c8.5,0,17,0,25.49,0,1.12,0,1.38-.33,1.38-1.41q0-55.14,0-110.29c0-.95-.24-1.22-1.2-1.22-8.87,0-17.75,0-26.63,0-1.12,0-1.49-.24-1.47-1.44.07-4.82.05-9.64,0-14.46,0-.91.22-1.24,1.2-1.23q18.88,0,37.78,0c2.26,0,4.26.47,5.79,2.29a6.09,6.09,0,0,1,1.58,3.91c.06,2.51,0,5,0,7.51q0,62.67,0,125.32c0,3.36-1.7,6.21-4.48,7.27a7.87,7.87,0,0,1-2.77.47q-19,0-37.9,0c-.73,0-1.24,0-1.23-1,0-4.93,0-9.86,0-14.79A8.91,8.91,0,0,1,351.69,144.16Z"/><path class="cls-3" d="M271.84,144.16v4.72c0,3.49.06,7,.08,10.47,0,1.63,0,1.64-1.62,1.64-12.44,0-24.88-.08-37.32,0a7.51,7.51,0,0,1-7.45-7.4V132.24q0-54.92,0-109.82a12.62,12.62,0,0,1,.54-4.12,6.05,6.05,0,0,1,5.39-4.08,10.85,10.85,0,0,1,1.14,0H270.4c1.57,0,1.51,0,1.49,1.6-.05,4.71-.07,9.41,0,14.11,0,1.08-.26,1.42-1.38,1.41-8.83,0-17.67,0-26.51,0-1,0-1.37.14-1.37,1.27q0,55.2,0,110.39c0,1.06.38,1.25,1.32,1.25,8.8,0,17.6,0,26.4,0Z"/><path class="cls-4" d="M311.82,82.26a15.6,15.6,0,0,0-1.44,1.93q-3.15,5.64-6.23,11.33c-1.9,3.52-3.75,7.08-5.66,10.61-2.57,4.75-5.17,9.49-7.74,14.24q-2.4,4.44-4.75,8.91a2.49,2.49,0,0,1-2.52,1.61c-7.7-.08-15.41,0-23.11,0-.53,0-1.05-.06-1.58-.09a1.75,1.75,0,0,1,0-.61c1-1.93,2-3.87,3-5.78,3.21-5.89,6.44-11.77,9.64-17.66,2-3.67,4-7.35,6-11,2.1-3.87,4.24-7.72,6.32-11.6a29.15,29.15,0,0,0,1.22-3c.3-.27.69-.47.87-.8q4.81-8.88,9.59-17.79c.7-1.29,1.46-2.56,2.06-3.9a1.93,1.93,0,0,1,2.05-1.23c6.67,0,13.35,0,20,0,1.52,0,3,0,4.55.06a12.69,12.69,0,0,1-.57,1.64c-.44.87-1,1.68-1.44,2.54-.66,1.27-1.21,2.6-1.9,3.84-1.29,2.33-2.67,4.61-4,6.93s-2.57,4.51-3.68,6.86C312.16,80.15,311.26,81.06,311.82,82.26Z"/><path class="cls-2" d="M338.21,80.86q0-17.52,0-35V44.14c.5,0,.9-.06,1.31-.06h24.11c1.48,0,1.48,0,1.48,1.53q0,42,0,83.94a3.72,3.72,0,0,1-.49,1.23,30.81,30.81,0,0,0-1.24-3.1c-1.64-3-3.38-6-5-9.07-2.32-4.26-4.59-8.55-6.89-12.82-1.31-2.41-2.64-4.81-4-7.22-1.88-3.48-3.77-7-5.62-10.46C340.63,85.71,339.44,83.27,338.21,80.86Z"/><path class="cls-3" d="M285,81.08a29.15,29.15,0,0,1-1.22,3c-2.08,3.88-4.22,7.73-6.32,11.6-2,3.67-4,7.35-6,11-3.2,5.89-6.43,11.77-9.64,17.66-1,1.91-2,3.85-3,5.78a1.75,1.75,0,0,0,0,.61c-.17-.34-.47-.69-.47-1,0-2.46,0-4.93,0-7.4q0-38.46,0-76.94c0-.84.07-1.33,1.13-1.33,8.23,0,16.46,0,24.69,0a5.25,5.25,0,0,1,.68.08c0,.05,0,.07.1.07,0,.56.11,1.12.11,1.69Q285,63.5,285,81.08Z"/><path class="cls-5" d="M338.21,80.86c1.23,2.41,2.42,4.85,3.69,7.24,1.85,3.5,3.74,7,5.62,10.46,1.31,2.41,2.64,4.81,4,7.22,2.3,4.27,4.57,8.56,6.89,12.82,1.66,3,3.4,6,5,9.07a30.81,30.81,0,0,1,1.24,3.1c-.42,0-.83.1-1.24.1-8,0-15.94,0-23.9,0a1.56,1.56,0,0,1-1.63-.88c-1.11-2.14-2.31-4.25-3.46-6.37q-2.76-5.08-5.51-10.17c-2.45-4.57-4.88-9.15-7.36-13.71-2.38-4.38-4.81-8.73-7.22-13.09-.82-1.48-1.67-2.94-2.5-4.41-.56-1.2.34-2.11.77-3,1.11-2.35,2.41-4.6,3.68-6.86s2.68-4.6,4-6.93c.69-1.24,1.24-2.57,1.9-3.84.45-.86,1-1.67,1.44-2.54a12.69,12.69,0,0,0,.57-1.64,1.42,1.42,0,0,1,1.62.9q2.5,4.69,5,9.37c1.71,3.14,3.46,6.26,5.17,9.4.48.86.88,1.75,1.37,2.6A9.64,9.64,0,0,0,338.21,80.86Z"/><path class="cls-6" d="M286.68,221.27c1.63-.61,2.92-1,4.16-1.59a1.38,1.38,0,0,0,.53-1c0-3,0-6,0-9,0-1.25.36-1.76,1.24-1.74s1.19.59,1.18,1.79c0,2.91,0,5.82,0,8.93,2-.79,3.77-1.54,5.58-2.25,1-.38,1.74.12,1.53,1a1.8,1.8,0,0,1-.9,1c-1.74.85-3.49,1.66-5.28,2.4a1.26,1.26,0,0,0-.88,1.44c.12,5.46.19,10.92.28,16.38a6.91,6.91,0,0,1,0,.91c-.05.62.1,1.44-.88,1.39-.81,0-1.24-.46-1.26-1.39-.09-4.55-.27-9.1-.4-13.65,0-1.2,0-2.41,0-3.6-1.69-.12-2.92,1.56-4.58.46V224l.27,14.91c0,.7.09,1.44-1,1.42-.89,0-1.07-.51-1.09-1.34q-.33-14.79-.72-29.57c0-.7-.15-1.46.91-1.43.87,0,1.35.38,1.33,1.41C286.65,213.28,286.68,217.14,286.68,221.27Z"/><path class="cls-6" d="M310.31,230.12a50,50,0,0,1-2.53,4.53,21.68,21.68,0,0,1-3.51,4.12c-2,1.75-4.52,1.1-5.33-1.46a13.79,13.79,0,0,1-.48-5.24,23.51,23.51,0,0,1,3.48-10.35,19.11,19.11,0,0,1,2.36-2.89c1.58-1.69,3.61-1.57,5.6-1.08a2.27,2.27,0,0,1,1.19,1.35,6,6,0,0,1,.3,2.24,59.3,59.3,0,0,0,1.66,14.41,25.61,25.61,0,0,1,.39,3,1.11,1.11,0,0,1-1.05,1.35,1.62,1.62,0,0,1-1.17-.9,6.89,6.89,0,0,1-.51-2.42c-.07-2.22,0-4.45,0-6.67Zm-1-6.05c0-.94,0-1.73,0-2.53-.05-1.72-1.42-2.55-2.85-1.6a8.68,8.68,0,0,0-2.28,2.32,22.3,22.3,0,0,0-3.45,8.92,12.69,12.69,0,0,0-.19,3.83,3.58,3.58,0,0,0,1.41,2.24c.83.54,1.71-.22,2.21-.92a44.85,44.85,0,0,0,3.17-4.81C308.56,229.17,310,226.81,309.27,224.07Z"/><path class="cls-6" d="M336.5,230.12a45.34,45.34,0,0,1-2.4,4.32,23.09,23.09,0,0,1-3.55,4.25c-2.1,1.87-4.49,1.16-5.51-1.48a11.46,11.46,0,0,1-.26-6.28,24.81,24.81,0,0,1,3.43-9.32,18.38,18.38,0,0,1,2.48-3c1.56-1.58,3.54-1.35,5.44-.89.48.11,1,.83,1.16,1.37a6.22,6.22,0,0,1,.29,2.24,58.51,58.51,0,0,0,1.65,14.32,27.76,27.76,0,0,1,.4,3c.08.75-.29,1.37-1,1.38a1.61,1.61,0,0,1-1.19-.86,7.59,7.59,0,0,1-.54-2.53c-.07-2.19,0-4.39,0-6.59Zm-1.05-6c0-1,0-1.87,0-2.74a1.65,1.65,0,0,0-2.51-1.54,8,8,0,0,0-2.4,2.16,20.51,20.51,0,0,0-3.42,8.09,27,27,0,0,0-.47,4.83,2.38,2.38,0,0,0,1.4,2.41,2,2,0,0,0,2.32-1,38.92,38.92,0,0,0,3.05-4.63C334.69,229.26,336.19,226.89,335.45,224.08Z"/><path class="cls-7" d="M216.83,198.12c.53-2,1-3.75,1.43-5.45.76-2.78,1.52-5.56,2.34-8.31a1.23,1.23,0,0,1,1-.63c.25,0,.67.4.76.7,1.27,4.28,2.49,8.58,3.72,12.87,0,.13.13.25.3.61.54-1.94,1-3.66,1.5-5.38.75-2.74,1.51-5.47,2.2-8.22.23-.89.76-.62,1.4-.56-.44,1.63-.86,3.18-1.29,4.73-1.06,3.79-2.12,7.58-3.21,11.36-.08.27-.47.45-.71.68-.21-.23-.52-.43-.6-.7-1.11-3.74-2.18-7.48-3.26-11.23-.24-.82-.51-1.64-.85-2.79-.37,1.12-.68,1.93-.91,2.76-1,3.69-2,7.38-3.06,11.05-.1.36-.52.62-.79.92-.26-.3-.67-.57-.77-.92-1-3.72-2-7.46-3-11.18-.42-1.53-.89-3-1.33-4.56,1-.45,1.39-.08,1.61.8,1.09,4.25,2.22,8.5,3.34,12.74C216.61,197.56,216.67,197.69,216.83,198.12Z"/><path class="cls-7" d="M343,200.45c-.62,0-1.29.39-1.29-.61,0-3.9,0-7.8,0-11.69,1.39-.54,1.12.56,1.35,1.35a4.83,4.83,0,0,1,3.74-1.77,3.81,3.81,0,0,1,3.53,2,12.65,12.65,0,0,1,2.11-1.57c3.23-1.47,5.9.27,6.1,4,.14,2.5.05,5,0,7.5,0,.28-.42.55-.65.82-.18-.27-.49-.53-.52-.81-.07-.75,0-1.51,0-2.27,0-1.63,0-3.26,0-4.89,0-2.62-.81-3.6-2.85-3.63-2.38,0-3.53,1-3.61,3.53s0,5.23,0,8l-1.37.08c0-1.74,0-3.36,0-5,0-1.14,0-2.27,0-3.41,0-2.18-.65-3-2.41-3.19-2.07-.21-3.49.67-3.85,2.62a23.43,23.43,0,0,0-.23,3.85C343,197.06,343,198.73,343,200.45Z"/><path class="cls-7" d="M245.14,200.38v-4.51c0-2.35,0-4.7,0-7.05,0-.72.21-1,1-.75l.33,1.24c3.2-2.21,5.26-2.12,7.32.35.36-.29.74-.59,1.1-.9a4.45,4.45,0,0,1,5.81,0,3.65,3.65,0,0,1,1,2.3c.11,3.09.05,6.19.05,9.31-.82.33-1.1.06-1.09-.79,0-2.42,0-4.85,0-7.27,0-2.89-1.86-4.14-4.56-3.13-1.63.62-1.92,2.09-2,3.53-.12,2.27,0,4.54-.08,6.82,0,.33-.36.65-.55,1-.2-.33-.57-.65-.57-1-.05-2.46,0-4.92,0-7.39,0-2.13-.72-3-2.42-3.21-2.12-.22-3.44.63-3.88,2.57a9.19,9.19,0,0,0-.19,2c0,2,0,4,0,6C246.46,200.53,246.05,200.68,245.14,200.38Z"/><path class="cls-6" d="M317.59,224.09q0,7.38,0,14.77c0,.66.07,1.39-.86,1.41s-1.1-.65-1.1-1.46q0-14.61-.08-29.21c0-.33-.08-.79.1-1a1.62,1.62,0,0,1,1.13-.56c.24,0,.57.66.57,1,0,5,0,10,0,15Z"/><path class="cls-6" d="M322.88,228.46c0,3.44,0,6.88,0,10.33,0,.78,0,1.53-1,1.56s-1.1-.71-1.12-1.5c-.15-7-.29-14-.48-21,0-.78.12-1.23,1-1.25s1.11.49,1.1,1.3c0,3.52,0,7,0,10.57Z"/><path class="cls-7" d="M374.5,194.76c1.36-1.44,2.56-2.68,3.73-3.94.77-.83,1.44-1.75,2.26-2.52.32-.3.94-.29,1.42-.42l.15.27c-.86,1-1.67,2-2.59,2.88-2.23,2.16-2.26,2.32-.36,4.8.57.75,1.14,1.5,1.7,2.26s1.08,1.44,1.66,2.23a1.24,1.24,0,0,1-1.78-.39c-1.38-1.88-2.8-3.73-4.14-5.5-3,1.24-1.79,3.85-2.1,5.95-.87.35-1.22.09-1.22-.82,0-5.27,0-10.54,0-15.81,0-.45-.16-1.06.64-1.06s.6.64.6,1.07C374.5,187.31,374.5,190.87,374.5,194.76Z"/><path class="cls-7" d="M330.18,200.41c-.75.17-1.26.26-1.26-.66,0-5.53,0-11.07,0-16.6a2.28,2.28,0,0,1,.11-.4l1.09-.07v7.1a5.41,5.41,0,0,1,4.65-2.05,3.83,3.83,0,0,1,4,3.68c0,2.8.06,5.6.08,8.4,0,1-.62.68-1.27.63v-4.8c0-1,0-2,0-3,0-1.32.08-2.81-1.44-3.42a4.35,4.35,0,0,0-4.71.61,4.45,4.45,0,0,0-1.1,2.62,48.69,48.69,0,0,0-.12,5C330.17,198.42,330.18,199.37,330.18,200.41Z"/><path class="cls-7" d="M273.81,199.32c-.25.29-.48.81-.77.84a23.34,23.34,0,0,1-4.92.35c-2.05-.18-3.28-1.68-3.85-3.56-1-3.31-.08-6.67,2.13-8.28a4.73,4.73,0,0,1,7.46,2.53,25.32,25.32,0,0,1,.41,3.24h-8.92a5.1,5.1,0,0,0,.93,3.7,3.89,3.89,0,0,0,3.52,1.48c1.26-.1,2.52-.32,3.78-.49Zm-1-6c0-1.62-.18-3.08-1.52-3.93a3.63,3.63,0,0,0-4.17.17c-1.32.89-1.63,2.23-1.69,3.76Z"/><path class="cls-7" d="M306.56,194.44c-.34,4.28,2.19,5.63,8.68,4.53-.4.55-.56,1-.86,1.16a8.1,8.1,0,0,1-6.1.08,4.72,4.72,0,0,1-2.88-4c-.38-2.58-.36-5.08,1.68-7.08a4.77,4.77,0,0,1,8.12,2.24,23.65,23.65,0,0,1,.33,3Zm7.44-1.12c.27-2.52-1.12-4.38-3.25-4.45-2.41-.08-4.06,1.71-4,4.45Z"/><path class="cls-7" d="M392.83,199.35c-.31.3-.57.79-.92.85a20,20,0,0,1-3.92.45c-2.61-.05-4.39-1.71-4.91-4.48a8.06,8.06,0,0,1,.91-6,5.1,5.1,0,0,1,5.16-2.36,4.56,4.56,0,0,1,3.77,3.74,25,25,0,0,1,.26,2.92h-8.84c-.38,4.3,2.31,5.76,8.17,4.58Zm-1.12-6c.17-2.71-1.17-4.45-3.32-4.45a3.92,3.92,0,0,0-3.94,4.45Z"/><path class="cls-7" d="M368.7,198.74a5.25,5.25,0,0,1-5.22,1.89,3.3,3.3,0,0,1-2.92-3.15,3.58,3.58,0,0,1,2.41-3.59,21.69,21.69,0,0,1,3.33-.6c.78-.1,1.57-.09,2.33-.12.79-3.86-1-4.84-6.6-3.41.09-.46,0-1,.24-1.12,1.55-1.26,5.09-1.1,6.6.17a3.74,3.74,0,0,1,1.14,3.08c.06,2.54,0,5.08,0,7.62a3.31,3.31,0,0,1-.41,1c-.23-.32-.47-.62-.67-1A4.22,4.22,0,0,1,368.7,198.74Zm-.12-4.8c-1.83.37-3.62.62-5.33,1.14a2.11,2.11,0,0,0-1.34,2.67,2.17,2.17,0,0,0,2.13,1.86C367.29,200,369.22,197.8,368.58,193.94Z"/><path class="cls-7" d="M231.9,194.64c.09-2.34.38-4.06,1.84-5.52,2.35-2.34,7.7-1.83,8.82,2.32.68,2.55.73,5.08-.93,7.37-1.34,1.83-3.24,2.1-5.28,1.81a4.69,4.69,0,0,1-4-3.53A17.74,17.74,0,0,1,231.9,194.64Zm9.85-.81a28.77,28.77,0,0,0-.82-2.9,3.4,3.4,0,0,0-3.51-2,3.57,3.57,0,0,0-3.58,2.12,7.54,7.54,0,0,0-.28,5.73,3.92,3.92,0,0,0,4.09,2.91,3.8,3.8,0,0,0,3.72-3.21C241.54,195.69,241.6,194.89,241.75,193.83Z"/><path class="cls-7" d="M276.59,200.39V188.15c1.26-.65,1,.56,1.39,1.27a5.43,5.43,0,0,1,4.4-1.68c2.37.1,3.87,1.29,4,3.64.16,3,0,6,0,9.05h-1.21c0-2.42,0-4.79,0-7.17a15.89,15.89,0,0,0-.26-2.58,2,2,0,0,0-.62-1.05c-1.6-1.51-5.34-.66-6.09,1.41a7.29,7.29,0,0,0-.38,2.22c-.05,2.09-.05,4.17,0,6.26C277.85,200.39,277.59,200.73,276.59,200.39Z"/><path class="cls-7" d="M403.25,198.77a8.91,8.91,0,0,0,5.28.73,2.23,2.23,0,0,0,2.16-1.84c.18-1-.4-1.81-1.69-2.39s-2.7-1.17-4-1.81a2.76,2.76,0,0,1-1.56-3,2.8,2.8,0,0,1,2.17-2.37,8.75,8.75,0,0,1,5.47.16c.24.07.35.53.52.8-.29.13-.59.39-.88.37-1.27-.1-2.53-.38-3.8-.39-1,0-2,.32-2.2,1.55s.67,1.9,1.62,2.34,2,.73,3,1.13c2.25.91,3.08,2.37,2.56,4.28a2.72,2.72,0,0,1-2.46,2.07,35.94,35.94,0,0,1-5.39-.07C403.13,200.27,402.9,199.64,403.25,198.77Z"/><path class="cls-7" d="M299.78,184.89v15.53l-1.24.1V185h-5.38v-1.24h12v1.16Z"/><path class="cls-7" d="M326.33,188.2l-.24,1.15c-2.38-.37-4.9-1.24-6.51,1.35a6.34,6.34,0,0,0,0,7.18c1.64,2.52,4.13,1.77,6.71,1.53-.23.33-.4.87-.69.94-2.27.55-4.54.73-6.44-1a4.93,4.93,0,0,1-1.3-1.94,8.91,8.91,0,0,1,0-6.13c.89-2.48,3-3.73,6-3.51A24.74,24.74,0,0,1,326.33,188.2Z"/><path class="cls-7" d="M402.21,188.79a12.89,12.89,0,0,0-3.25.66c-1.71.86-1.91,2.61-1.94,4.31,0,2.19,0,4.38,0,6.69l-1.28.06v-3.14c0-2.8,0-5.61,0-8.41,0-.33.36-.65.56-1a8.45,8.45,0,0,1,.59,1,3.87,3.87,0,0,1,.06,1c.32-.36.52-.58.71-.82a4.11,4.11,0,0,1,4.09-1.37C402.69,187.93,402.32,188.48,402.21,188.79Z"/><path class="cls-6" d="M322.16,210a1,1,0,0,1-1.11.89c-.87,0-1.14-.73-1.22-1.49s.42-1,1.11-1C321.93,208.32,322.09,209,322.16,210Z"/><path class="cls-4" d="M284.89,44.23c-.06,0-.09,0-.1-.07l.08,0Z"/></g></svg>