<svg xmlns="http://www.w3.org/2000/svg" viewBox="0 0 623.62 255.12"><defs><style>.cls-1{fill:#fff;}.cls-2{fill:#70757a;}.cls-3{fill:#03bea5;}.cls-4{fill:#4485f6;}.cls-5{fill:#50c2f8;}.cls-6{fill:#1fe8b6;}</style></defs><g id="BG"><rect class="cls-1" width="623.62" height="255.12"/></g><g id="Logo"><path class="cls-2" d="M209.5,197.81h2.21l3.78,13.68,3.94-13.67h1.86L225,211.51l3.63-13.69h2c0,.46-4.22,15.56-4.54,16.24h-2.19c-1.23-4.4-2.46-8.81-3.64-13l-3.65,13h-2.24c-.2-.65-.39-1.31-.59-2q-2-6.77-4-13.51c-.06-.18,0-.48-.32-.52Z"/><path class="cls-2" d="M326.39,240.94a1.88,1.88,0,0,0-.24-.14,3.22,3.22,0,0,1-2.27-3.74,3.26,3.26,0,0,1,2.18-2.82,11.47,11.47,0,0,1,2.78-.58l2.28-.33a3.12,3.12,0,0,0-.48-2.13,2,2,0,0,0-1.68-.82,5.53,5.53,0,0,0-3.38,1l-.55.37a7.57,7.57,0,0,1,0-1.71c0-.11.16-.23.27-.29a6.92,6.92,0,0,1,5.28-.71,3.24,3.24,0,0,1,2.39,2.84,8.33,8.33,0,0,1,.11,1.33q0,3.48,0,7c0,.15,0,.31,0,.5h-1.86v-1.58l-.12,0-.24.32a3.73,3.73,0,0,1-2,1.44.76.76,0,0,0-.19.12Zm4.66-6.12c-1.21.19-2.42.38-3.63.59a2,2,0,0,0-.57.21,1.76,1.76,0,0,0-1.07,2,1.72,1.72,0,0,0,1.21,1.64,3,3,0,0,0,1.85.06C330.47,238.87,331.55,237.2,331.05,234.82Z"/><path class="cls-2" d="M296.62,240.94c-.18-.08-.35-.17-.53-.23a3.09,3.09,0,0,1-2-2.84,3.37,3.37,0,0,1,2.46-3.72,8.71,8.71,0,0,1,1.53-.35c1-.16,2-.28,2.94-.41l.29-.08a2.31,2.31,0,0,0-2.27-2.94,5.53,5.53,0,0,0-3.2,1l-.63.41v-1.64c0-.26.19-.34.36-.43a7,7,0,0,1,3.13-.87,7.65,7.65,0,0,1,1.51.08,3.38,3.38,0,0,1,3,3.3c0,.52.07,1.05.07,1.57,0,2.07,0,4.13,0,6.2v.7h-1.87v-1.72c-.17.19-.24.26-.31.35a3.81,3.81,0,0,1-2.24,1.56c-.05,0-.09.06-.14.09Zm4.73-6.11c-.93.13-1.79.23-2.64.38a9.15,9.15,0,0,0-1.64.41,1.84,1.84,0,0,0-.76.56,2,2,0,0,0,1.2,3.16,3.14,3.14,0,0,0,3.73-2.31A8.33,8.33,0,0,0,301.35,234.83Z"/><path class="cls-2" d="M315.94,240.94c-.34-.11-.68-.21-1-.33s-.49-.2-.75-.31v-1.92a3.66,3.66,0,0,1,.39.18,5.54,5.54,0,0,0,3.6.8,2.8,2.8,0,0,0,.76-.17,1.47,1.47,0,0,0,.55-2.5,4,4,0,0,0-1.06-.67c-.7-.33-1.43-.59-2.12-.92a4.6,4.6,0,0,1-1.08-.66,2.93,2.93,0,0,1-.31-4.22,4.53,4.53,0,0,1,2.9-1.37,6.69,6.69,0,0,1,3.49.46v1.83l-.59-.27a5.08,5.08,0,0,0-3.19-.39l-.34.11a1.52,1.52,0,0,0-.31,2.8,6.84,6.84,0,0,0,.81.41c.56.24,1.13.45,1.68.7a11.91,11.91,0,0,1,1.17.63,3,3,0,0,1,.06,4.93,5.06,5.06,0,0,1-1.77.76,1.85,1.85,0,0,0-.33.12Z"/><path class="cls-2" d="M414.12,211.66a7.77,7.77,0,0,1-.5,1,3.35,3.35,0,0,1-1.78,1.31,7.32,7.32,0,0,1-4.76,0c-.14-.05-.26-.11-.39-.17l-.22-.13v-1.91l.6.32a5.35,5.35,0,0,0,3.93.58,1.45,1.45,0,0,0,1.19-1.81,1.55,1.55,0,0,0-.81-1.08c-.42-.24-.87-.43-1.31-.63s-1.17-.47-1.73-.75a3.1,3.1,0,0,1-1.75-1.83,3,3,0,0,1,1.16-3.44,5,5,0,0,1,2.18-.85,6.57,6.57,0,0,1,3.65.47v1.81l-.53-.26a4.91,4.91,0,0,0-3.43-.36,1.53,1.53,0,0,0-1.23,1.7,1.26,1.26,0,0,0,.54,1,6.31,6.31,0,0,0,1.05.59c.82.38,1.67.72,2.49,1.12a2.82,2.82,0,0,1,1.31,1.22,7.27,7.27,0,0,1,.34.81Z"/><path class="cls-3" d="M356.88,179V159.4h32.44V33.79H357c-.13-.5-.18-18.43-.06-19.61h44.19A7.62,7.62,0,0,1,409,21.77c0,.2,0,.41,0,.61q0,74.18,0,148.36a10.26,10.26,0,0,1-.26,2.53,7.52,7.52,0,0,1-7.34,5.7H356.88Z"/><path class="cls-4" d="M266.86,14.18V33.75H234.51c-.15.5-.21,124.26-.07,125.63.7,0,1.42,0,2.14,0h30.27V179l-.65,0H222.58a7.55,7.55,0,0,1-4.76-1.53,7.38,7.38,0,0,1-3-5.35,12.09,12.09,0,0,1-.07-1.21V22.28a8,8,0,0,1,1.14-4.46,7.47,7.47,0,0,1,6.3-3.63c.28,0,.57,0,.85,0h43.81Z"/><path class="cls-5" d="M312.25,90.29a6.32,6.32,0,0,0-.47.68l-9.93,18.09L293,125.18q-4.8,8.76-9.61,17.5c-.42.77-.85,1.52-1.24,2.3a.74.74,0,0,1-.76.44c-2.21,0-4.42,0-6.62,0h-22a5,5,0,0,1-.55,0c-.19,0-.29-.12-.23-.33s.26-.18.33-.31c.34-.6.66-1.21,1-1.81l1.7-3.15q1.7-3.08,3.38-6.16c.62-1.14,1.22-2.28,1.84-3.42l3.46-6.32,1.64-3,3.47-6.32,1.64-3q1.71-3.14,3.44-6.27c.56-1,1.11-2.07,1.67-3.09,1.12-2.06,2.25-4.11,3.38-6.17.63-1.15,1.27-2.29,1.89-3.45.4-.74.77-1.51,1.15-2.26s.9-1.53,1.33-2.31l9.33-17.11c1.47-2.68,2.94-5.36,4.38-8.05a.79.79,0,0,1,.8-.48l29.15,0a2.84,2.84,0,0,1,.57.1l-2.11,3.74c-.58,1-1.13,2.1-1.71,3.15-1,1.87-2.07,3.74-3.1,5.62-.79,1.44-1.56,2.88-2.35,4.32-1,1.82-2,3.64-3,5.46l-2.63,4.78C312.44,89.75,312.36,90,312.25,90.29Z"/><path class="cls-4" d="M281.93,90.26c-.38.75-.75,1.52-1.15,2.26-.62,1.16-1.26,2.3-1.89,3.45-1.13,2.06-2.26,4.11-3.38,6.17-.56,1-1.11,2.06-1.67,3.09q-1.72,3.13-3.44,6.27l-1.64,3-3.47,6.32-1.64,3-3.46,6.32c-.62,1.14-1.22,2.28-1.84,3.42q-1.68,3.09-3.38,6.16l-1.7,3.15c-.32.6-.64,1.21-1,1.81-.07.13-.22.21-.33.31,0-.24,0-.48,0-.72V47.8h30V89.41C281.92,89.69,281.93,90,281.93,90.26Z"/><path class="cls-3" d="M341.81,89c0-.29,0-.57,0-.85V47.87c.48-.13,28.46-.19,29.93-.07,0,.15,0,.3.05.45s0,.29,0,.43v95.54c0,.28,0,.57,0,.85a4.51,4.51,0,0,1-.48-.6c-1-1.83-2-3.67-2.94-5.5s-1.93-3.6-2.88-5.4c-1.18-2.22-2.34-4.44-3.51-6.65l-1.06-2-3.6-6.73c-.71-1.32-1.41-2.65-2.11-4l-3.61-6.74c-1.15-2.15-2.31-4.3-3.46-6.46-.65-1.21-1.3-2.42-1.94-3.64q-2-3.82-4.07-7.65A6.51,6.51,0,0,1,341.81,89Z"/><path class="cls-6" d="M341.81,89a6.51,6.51,0,0,0,.31.72q2,3.83,4.07,7.65c.64,1.22,1.29,2.43,1.94,3.64,1.15,2.16,2.31,4.31,3.46,6.46l3.61,6.74c.7,1.31,1.4,2.64,2.11,4l3.6,6.73,1.06,2c1.17,2.21,2.33,4.43,3.51,6.65.95,1.8,1.92,3.6,2.88,5.4s1.95,3.67,2.94,5.5a4.51,4.51,0,0,0,.48.6c.05.16,0,.29-.17.32a3.81,3.81,0,0,1-.48,0H342.46a.89.89,0,0,1-.93-.55q-11.19-20.88-22.4-41.73L312.64,91l-.39-.75c.11-.27.19-.54.32-.79l2.63-4.78c1-1.82,2-3.64,3-5.46.79-1.44,1.56-2.88,2.35-4.32,1-1.88,2.07-3.75,3.1-5.62.58-1,1.13-2.1,1.71-3.15l2.11-3.74c.53,1,1.06,1.9,1.58,2.87q6.09,11.4,12.17,22.82C341.41,88.43,341.62,88.73,341.81,89Z"/><path class="cls-2" d="M288,238.15q1.8-6.81,3.63-13.7h2.05c-.46,1.85-1,3.63-1.51,5.43s-1,3.58-1.51,5.37-1,3.61-1.54,5.43h-2.26c-1.22-4.37-2.45-8.73-3.64-13l-3.66,13h-2.23c-1.58-5.38-3.16-10.76-4.76-16.24.72-.05,1.37,0,2.1,0l3.79,13.7q2-6.84,3.94-13.69h1.85C285.45,229,286.71,233.59,288,238.15Z"/><path class="cls-2" d="M254.82,214.06H253c0-.24,0-.45,0-.67,0-2,0-4,0-6a9.11,9.11,0,0,0-.19-1.81,2.17,2.17,0,0,0-1.67-1.74,2.52,2.52,0,0,0-2.56.69,3.76,3.76,0,0,0-1,2.66c0,1.95,0,3.89,0,5.83v1a4.6,4.6,0,0,1-1.85.06V202.48h1.84v1.57l.1,0,.36-.44a3.93,3.93,0,0,1,3.84-1.44,3.21,3.21,0,0,1,2.35,1.66l.26.48.1,0,.33-.45a4.3,4.3,0,0,1,5-1.51,3.31,3.31,0,0,1,2.11,2.69,8,8,0,0,1,.15,1.38q0,3.58,0,7.17c0,.11,0,.23,0,.38h-1.82v-.67c0-2,0-4.05,0-6.08a7.28,7.28,0,0,0-.23-1.8,2.38,2.38,0,0,0-3.9-1.17,3.76,3.76,0,0,0-1.31,3c0,2,0,4,0,6.07Z"/><path class="cls-2" d="M345.25,214.08H344l-.51,0V202.48h1.8v1.6l.12,0,.36-.44a3.85,3.85,0,0,1,3.83-1.45,3.32,3.32,0,0,1,2.65,2.27c.13-.17.23-.3.32-.44a4.28,4.28,0,0,1,4.92-1.7,3,3,0,0,1,2.1,2.1,6.91,6.91,0,0,1,.35,2c.05,2.45,0,4.9,0,7.35a2,2,0,0,1,0,.27h-1.81c0-.2,0-.41,0-.62,0-1.95,0-3.89,0-5.83a9.39,9.39,0,0,0-.19-2,2.38,2.38,0,0,0-4-1.21,3.57,3.57,0,0,0-1.22,2.62c0,1.25,0,2.51,0,3.77V214a11.9,11.9,0,0,1-1.89,0v-.67c0-2.11,0-4.22,0-6.32a6.31,6.31,0,0,0-.25-1.67,2.48,2.48,0,0,0-4-1,3.57,3.57,0,0,0-1.09,2.12,9.19,9.19,0,0,0-.1,1.39c0,1.82,0,3.64,0,5.46Z"/><path class="cls-2" d="M335,229.08h2c.87,3.17,1.74,6.33,2.62,9.51l2.9-9.49h1.73q1.31,4.74,2.63,9.58c.86-3.19,1.71-6.37,2.58-9.59h1.84c-1.16,3.89-2.31,7.74-3.47,11.59H345.8c-.86-3-1.72-6-2.61-9.08-1,3.06-1.89,6.07-2.83,9.08h-1.89Z"/><path class="cls-2" d="M339.83,214.05h-1.77c0-.23,0-.44,0-.66,0-1.88,0-3.76,0-5.64a9.5,9.5,0,0,0-.19-1.93,2.64,2.64,0,0,0-4.37-1.44,3.64,3.64,0,0,0-1.36,2.92c0,2,0,4,0,6v.75c-.62,0-1.21,0-1.84,0V196.89h1.83v7.28l.11,0,.32-.4a4.46,4.46,0,0,1,5.15-1.35,2.93,2.93,0,0,1,1.81,1.93,6.61,6.61,0,0,1,.38,2c0,2.49,0,5,0,7.47A1.93,1.93,0,0,1,339.83,214.05Z"/><path class="cls-2" d="M375.31,196.86h1.84c0,1.82,0,3.61,0,5.4s0,3.55,0,5.45a5.49,5.49,0,0,0,.46-.42c1.36-1.47,2.72-2.94,4.06-4.43a1.16,1.16,0,0,1,1-.44c.56,0,1.13,0,1.83,0-.62.73-1.23,1.31-1.8,1.92l-1.77,1.84-1.79,1.86,5.7,5.91-.06.12c-.76,0-1.52,0-2.27,0-.18,0-.38-.21-.52-.37q-2.14-2.31-4.28-4.64l-.49-.54a15.82,15.82,0,0,0-.05,1.91c0,.58,0,1.17,0,1.76V214h-1.85Z"/><path class="cls-2" d="M316.62,208.72h-8.13a1.94,1.94,0,0,0,.05,1.1,3.43,3.43,0,0,0,3.48,2.94,5.61,5.61,0,0,0,3.33-.95l.41-.26a5.19,5.19,0,0,1,0,1.57c0,.13-.22.27-.36.36a6.14,6.14,0,0,1-2.59.81,7.48,7.48,0,0,1-2.54-.1,4.27,4.27,0,0,1-2.94-2.17,7.31,7.31,0,0,1,.1-7.37,5,5,0,0,1,5.88-2.29,4.13,4.13,0,0,1,3,3A9.52,9.52,0,0,1,316.62,208.72Zm-1.91-1.61a3.93,3.93,0,0,0-.62-2.26,2.45,2.45,0,0,0-1.81-1.08,3.4,3.4,0,0,0-3.77,3.34Z"/><path class="cls-2" d="M388.07,208.73c-.08,2.45,1.4,3.91,3.35,4a5.72,5.72,0,0,0,3.46-.9l.53-.33a15,15,0,0,1,0,1.52c0,.16-.21.33-.36.43a5.94,5.94,0,0,1-2.46.79,7.32,7.32,0,0,1-2.72-.1,4.62,4.62,0,0,1-3.43-3.36,7.85,7.85,0,0,1,0-4.84,5.11,5.11,0,0,1,4.1-3.72,4.51,4.51,0,0,1,4.3,1.24,4.65,4.65,0,0,1,.7,1,7.93,7.93,0,0,1,.68,4.25Zm6.2-1.61a2.88,2.88,0,0,0-3.21-3.36,3.45,3.45,0,0,0-2.93,3.36Z"/><path class="cls-2" d="M275,208.73h-8.08a2.9,2.9,0,0,0,.13,1.5,3.37,3.37,0,0,0,3.26,2.53,5.67,5.67,0,0,0,3.4-.91l.53-.32c0,.56,0,1,0,1.51a.66.66,0,0,1-.31.4,5.83,5.83,0,0,1-2.33.8,7.57,7.57,0,0,1-2.6,0,4.47,4.47,0,0,1-3.57-2.95,7.76,7.76,0,0,1,0-5.8,5,5,0,0,1,3.89-3.23,5.15,5.15,0,0,1,2.75.2,4.24,4.24,0,0,1,2.6,2.78A8.85,8.85,0,0,1,275,208.73Zm-8.08-1.62h6.19c0-.28,0-.52,0-.76a2.79,2.79,0,0,0-2.28-2.57A3.41,3.41,0,0,0,266.89,207.11Z"/><path class="cls-2" d="M370,206.68a14.22,14.22,0,0,0-.31-1.51,1.92,1.92,0,0,0-1.85-1.41,5.44,5.44,0,0,0-3.45.93l-.63.42a12.33,12.33,0,0,1,0-1.72c0-.13.22-.27.37-.35a6.42,6.42,0,0,1,2.83-.84,8.88,8.88,0,0,1,1.63,0,3.43,3.43,0,0,1,3.16,3.36c0,.42.05.85.05,1.27,0,2.21,0,4.41,0,6.62,0,.18,0,.36,0,.57h-1.8v-1.69a2.49,2.49,0,0,0-.36.34A4.23,4.23,0,0,1,364.4,214a2.94,2.94,0,0,1-1.81-2.66,5.43,5.43,0,0,1,.06-1.21,3.18,3.18,0,0,1,2-2.46,10,10,0,0,1,2.71-.6Zm-.1,1.52c-1,.13-1.88.24-2.77.39a7.44,7.44,0,0,0-1.46.37,1.74,1.74,0,0,0-1.13,2,1.76,1.76,0,0,0,1.32,1.69,3.14,3.14,0,0,0,3.93-2.19A6.94,6.94,0,0,0,369.86,208.2Z"/><path class="cls-2" d="M237.11,202.12a17.2,17.2,0,0,1,1.73.26,4.62,4.62,0,0,1,3.35,3.06,7.72,7.72,0,0,1,.11,5.11,5.24,5.24,0,0,1-5,3.77,7.75,7.75,0,0,1-2.1-.18,5,5,0,0,1-3.82-3.9,7.84,7.84,0,0,1,0-3.85,5.35,5.35,0,0,1,5.13-4.21h.55Zm3.66,6.19c-.06-.5-.08-1-.17-1.5a3.58,3.58,0,0,0-1.85-2.7,3.77,3.77,0,0,0-5.33,2.19,6.59,6.59,0,0,0-.25,2.93,3.72,3.72,0,0,0,4.12,3.53,3.24,3.24,0,0,0,3.06-2.18A6.52,6.52,0,0,0,240.77,208.31Z"/><path class="cls-2" d="M279.71,214.05h-1.85V202.43h1.83v1.74l.11,0,.45-.54a4.39,4.39,0,0,1,5.08-1.14,3.15,3.15,0,0,1,1.78,2,6.92,6.92,0,0,1,.36,1.95c0,2.43,0,4.86,0,7.29a2,2,0,0,1,0,.26c-.58,0-1.18,0-1.85,0v-.69c0-1.93,0-3.85,0-5.77a8.5,8.5,0,0,0-.15-1.75,2.64,2.64,0,0,0-4.21-1.62,3.42,3.42,0,0,0-1.51,2.89c0,1.52,0,3,0,4.56Z"/><path class="cls-2" d="M307.24,197.84v1.66h-4.66V214c-.65.07-1.24,0-1.92,0-.05-.71,0-1.39,0-2.07s0-1.37,0-2.06V199.51H296v-1.62C296.41,197.77,306.06,197.72,307.24,197.84Z"/><path class="cls-2" d="M327.37,202.73v1.82l-.51-.24a4.45,4.45,0,0,0-3-.5,3.78,3.78,0,0,0-3,2.7,5.8,5.8,0,0,0-.12,3.35,3.73,3.73,0,0,0,4.55,2.83,8.31,8.31,0,0,0,1.53-.56,4.72,4.72,0,0,0,.52-.28v1.69a4.85,4.85,0,0,1-2.16.74,5.65,5.65,0,0,1-4.71-1.27,5.13,5.13,0,0,1-1.54-2.49,7.24,7.24,0,0,1,.2-4.71,5.39,5.39,0,0,1,4.7-3.6A6.14,6.14,0,0,1,327.37,202.73Z"/><path class="cls-2" d="M306.85,229.09h1.77v2.13A4.14,4.14,0,0,1,311,229a3.07,3.07,0,0,1,1.8.12v1.73a13.72,13.72,0,0,0-1.37-.2,2,2,0,0,0-1.63.66,4.24,4.24,0,0,0-1.16,3.11c0,1.86,0,3.72,0,5.59v.69h-1.78C306.73,240.22,306.71,229.68,306.85,229.09Z"/><path class="cls-2" d="M399.12,202.47h1.79v2l.12,0c.09-.16.19-.32.28-.49a3.11,3.11,0,0,1,3.79-1.62c0,.59,0,1.2,0,1.81-.42-.08-.79-.18-1.16-.22a2.3,2.3,0,0,0-2.19,1,3.94,3.94,0,0,0-.75,2,11.72,11.72,0,0,0-.1,1.57c0,1.6,0,3.2,0,4.8V214h-1.74C399,213.65,399,203.3,399.12,202.47Z"/></g></svg>